<svg width="688" height="308" viewBox="0 0 688 308" fill="none" xmlns="http://www.w3.org/2000/svg">
<rect width="1440" height="3613" transform="translate(-554 -387)" fill="white"/>
<rect y="17" width="138" height="138" rx="15" fill="#FDC841"/>
<path d="M0 213C0 206.925 4.92487 202 11 202H199C205.075 202 210 206.925 210 213V297C210 303.075 205.075 308 199 308H11C4.92487 308 0 303.075 0 297V213Z" fill="#5A9CFF"/>
<path d="M478 212C478 206.477 482.477 202 488 202H678C683.523 202 688 206.477 688 212V298C688 303.523 683.523 308 678 308H488C482.477 308 478 303.523 478 298V212Z" fill="#5A9CFF"/>
<path d="M239 212C239 206.477 243.477 202 249 202H439C444.523 202 449 206.477 449 212V298C449 303.523 444.523 308 439 308H249C243.477 308 239 303.523 239 298V212Z" fill="#5A9CFF"/>
<rect x="550" y="17" width="138" height="138" rx="15" fill="#FDC841"/>
<rect x="366" y="17" width="139" height="138" rx="15" fill="#FDC841"/>
<rect x="183" y="17" width="139" height="138" rx="15" fill="#FDC841"/>
<rect x="196" y="32" width="113" height="29" rx="7" fill="white"/>
<path d="M222.653 50.9091L222.784 48.608L220.852 49.875L220.159 48.6705L222.222 47.6364L220.159 46.6023L220.852 45.3977L222.784 46.6648L222.653 44.3636H224.034L223.909 46.6648L225.841 45.3977L226.534 46.6023L224.466 47.6364L226.534 48.6705L225.841 49.875L223.909 48.608L224.034 50.9091H222.653ZM230.541 50.9091L230.672 48.608L228.74 49.875L228.047 48.6705L230.109 47.6364L228.047 46.6023L228.74 45.3977L230.672 46.6648L230.541 44.3636H231.922L231.797 46.6648L233.728 45.3977L234.422 46.6023L232.353 47.6364L234.422 48.6705L233.728 49.875L231.797 48.608L231.922 50.9091H230.541ZM238.428 50.9091L238.559 48.608L236.627 49.875L235.934 48.6705L237.997 47.6364L235.934 46.6023L236.627 45.3977L238.559 46.6648L238.428 44.3636H239.809L239.684 46.6648L241.616 45.3977L242.309 46.6023L240.241 47.6364L242.309 48.6705L241.616 49.875L239.684 48.608L239.809 50.9091H238.428ZM246.316 50.9091L246.447 48.608L244.515 49.875L243.822 48.6705L245.884 47.6364L243.822 46.6023L244.515 45.3977L246.447 46.6648L246.316 44.3636H247.697L247.572 46.6648L249.503 45.3977L250.197 46.6023L248.128 47.6364L250.197 48.6705L249.503 49.875L247.572 48.608L247.697 50.9091H246.316ZM254.203 50.9091L254.334 48.608L252.402 49.875L251.709 48.6705L253.772 47.6364L251.709 46.6023L252.402 45.3977L254.334 46.6648L254.203 44.3636H255.584L255.459 46.6648L257.391 45.3977L258.084 46.6023L256.016 47.6364L258.084 48.6705L257.391 49.875L255.459 48.608L255.584 50.9091H254.203ZM262.091 50.9091L262.222 48.608L260.29 49.875L259.597 48.6705L261.659 47.6364L259.597 46.6023L260.29 45.3977L262.222 46.6648L262.091 44.3636H263.472L263.347 46.6648L265.278 45.3977L265.972 46.6023L263.903 47.6364L265.972 48.6705L265.278 49.875L263.347 48.608L263.472 50.9091H262.091ZM269.978 50.9091L270.109 48.608L268.177 49.875L267.484 48.6705L269.547 47.6364L267.484 46.6023L268.177 45.3977L270.109 46.6648L269.978 44.3636H271.359L271.234 46.6648L273.166 45.3977L273.859 46.6023L271.791 47.6364L273.859 48.6705L273.166 49.875L271.234 48.608L271.359 50.9091H269.978Z" fill="#AAAAAA"/>
<path d="M67.4173 17.2962C67.4173 17.2962 99.1087 -13.7004 134.258 7.53807C169.407 28.7765 147.511 143.579 184.965 163.095C222.419 182.612 252.958 155.059 252.958 155.059" stroke="#AAAAAA" stroke-width="2" stroke-linecap="round" stroke-dasharray="4 4"/>
<path d="M252.848 17.7077C252.848 17.7077 284.539 -13.2889 319.689 7.94951C354.838 29.1879 332.942 143.99 370.396 163.507C407.85 183.023 438.389 155.471 438.389 155.471" stroke="#AAAAAA" stroke-width="2" stroke-linecap="round" stroke-dasharray="4 4"/>
<path d="M438.389 17.7077C438.389 17.7077 470.08 -13.2889 505.23 7.94951C540.379 29.1879 518.483 143.99 555.937 163.507C593.391 183.023 623.93 155.471 623.93 155.471" stroke="#AAAAAA" stroke-width="2" stroke-linecap="round" stroke-dasharray="4 4"/>
<rect x="13" y="32" width="113" height="29" rx="7" fill="white"/>
<path d="M42.6534 50.9091L42.7841 48.608L40.8523 49.875L40.1591 48.6705L42.2216 47.6364L40.1591 46.6023L40.8523 45.3977L42.7841 46.6648L42.6534 44.3636H44.0341L43.9091 46.6648L45.8409 45.3977L46.5341 46.6023L44.4659 47.6364L46.5341 48.6705L45.8409 49.875L43.9091 48.608L44.0341 50.9091H42.6534ZM50.5409 50.9091L50.6716 48.608L48.7398 49.875L48.0466 48.6705L50.1091 47.6364L48.0466 46.6023L48.7398 45.3977L50.6716 46.6648L50.5409 44.3636H51.9216L51.7966 46.6648L53.7284 45.3977L54.4216 46.6023L52.3534 47.6364L54.4216 48.6705L53.7284 49.875L51.7966 48.608L51.9216 50.9091H50.5409ZM58.4284 50.9091L58.5591 48.608L56.6273 49.875L55.9341 48.6705L57.9966 47.6364L55.9341 46.6023L56.6273 45.3977L58.5591 46.6648L58.4284 44.3636H59.8091L59.6841 46.6648L61.6159 45.3977L62.3091 46.6023L60.2409 47.6364L62.3091 48.6705L61.6159 49.875L59.6841 48.608L59.8091 50.9091H58.4284ZM66.3159 50.9091L66.4466 48.608L64.5148 49.875L63.8216 48.6705L65.8841 47.6364L63.8216 46.6023L64.5148 45.3977L66.4466 46.6648L66.3159 44.3636H67.6966L67.5716 46.6648L69.5034 45.3977L70.1966 46.6023L68.1284 47.6364L70.1966 48.6705L69.5034 49.875L67.5716 48.608L67.6966 50.9091H66.3159ZM74.2034 50.9091L74.3341 48.608L72.4023 49.875L71.7091 48.6705L73.7716 47.6364L71.7091 46.6023L72.4023 45.3977L74.3341 46.6648L74.2034 44.3636H75.5841L75.4591 46.6648L77.3909 45.3977L78.0841 46.6023L76.0159 47.6364L78.0841 48.6705L77.3909 49.875L75.4591 48.608L75.5841 50.9091H74.2034ZM82.0909 50.9091L82.2216 48.608L80.2898 49.875L79.5966 48.6705L81.6591 47.6364L79.5966 46.6023L80.2898 45.3977L82.2216 46.6648L82.0909 44.3636H83.4716L83.3466 46.6648L85.2784 45.3977L85.9716 46.6023L83.9034 47.6364L85.9716 48.6705L85.2784 49.875L83.3466 48.608L83.4716 50.9091H82.0909ZM89.9784 50.9091L90.1091 48.608L88.1773 49.875L87.4841 48.6705L89.5466 47.6364L87.4841 46.6023L88.1773 45.3977L90.1091 46.6648L89.9784 44.3636H91.3591L91.2341 46.6648L93.1659 45.3977L93.8591 46.6023L91.7909 47.6364L93.8591 48.6705L93.1659 49.875L91.2341 48.608L91.3591 50.9091H89.9784Z" fill="#AAAAAA"/>
<rect x="379" y="32" width="113" height="29" rx="7" fill="white"/>
<path d="M412.653 50.9091L412.784 48.608L410.852 49.875L410.159 48.6705L412.222 47.6364L410.159 46.6023L410.852 45.3977L412.784 46.6648L412.653 44.3636H414.034L413.909 46.6648L415.841 45.3977L416.534 46.6023L414.466 47.6364L416.534 48.6705L415.841 49.875L413.909 48.608L414.034 50.9091H412.653ZM420.541 50.9091L420.672 48.608L418.74 49.875L418.047 48.6705L420.109 47.6364L418.047 46.6023L418.74 45.3977L420.672 46.6648L420.541 44.3636H421.922L421.797 46.6648L423.728 45.3977L424.422 46.6023L422.353 47.6364L424.422 48.6705L423.728 49.875L421.797 48.608L421.922 50.9091H420.541ZM428.428 50.9091L428.559 48.608L426.627 49.875L425.934 48.6705L427.997 47.6364L425.934 46.6023L426.627 45.3977L428.559 46.6648L428.428 44.3636H429.809L429.684 46.6648L431.616 45.3977L432.309 46.6023L430.241 47.6364L432.309 48.6705L431.616 49.875L429.684 48.608L429.809 50.9091H428.428ZM436.316 50.9091L436.447 48.608L434.515 49.875L433.822 48.6705L435.884 47.6364L433.822 46.6023L434.515 45.3977L436.447 46.6648L436.316 44.3636H437.697L437.572 46.6648L439.503 45.3977L440.197 46.6023L438.128 47.6364L440.197 48.6705L439.503 49.875L437.572 48.608L437.697 50.9091H436.316ZM444.203 50.9091L444.334 48.608L442.402 49.875L441.709 48.6705L443.772 47.6364L441.709 46.6023L442.402 45.3977L444.334 46.6648L444.203 44.3636H445.584L445.459 46.6648L447.391 45.3977L448.084 46.6023L446.016 47.6364L448.084 48.6705L447.391 49.875L445.459 48.608L445.584 50.9091H444.203ZM452.091 50.9091L452.222 48.608L450.29 49.875L449.597 48.6705L451.659 47.6364L449.597 46.6023L450.29 45.3977L452.222 46.6648L452.091 44.3636H453.472L453.347 46.6648L455.278 45.3977L455.972 46.6023L453.903 47.6364L455.972 48.6705L455.278 49.875L453.347 48.608L453.472 50.9091H452.091ZM459.978 50.9091L460.109 48.608L458.177 49.875L457.484 48.6705L459.547 47.6364L457.484 46.6023L458.177 45.3977L460.109 46.6648L459.978 44.3636H461.359L461.234 46.6648L463.166 45.3977L463.859 46.6023L461.791 47.6364L463.859 48.6705L463.166 49.875L461.234 48.608L461.359 50.9091H459.978Z" fill="#AAAAAA"/>
<rect x="562" y="32" width="113" height="29" rx="7" fill="white"/>
<path d="M593.653 50.9091L593.784 48.608L591.852 49.875L591.159 48.6705L593.222 47.6364L591.159 46.6023L591.852 45.3977L593.784 46.6648L593.653 44.3636H595.034L594.909 46.6648L596.841 45.3977L597.534 46.6023L595.466 47.6364L597.534 48.6705L596.841 49.875L594.909 48.608L595.034 50.9091H593.653ZM601.541 50.9091L601.672 48.608L599.74 49.875L599.047 48.6705L601.109 47.6364L599.047 46.6023L599.74 45.3977L601.672 46.6648L601.541 44.3636H602.922L602.797 46.6648L604.728 45.3977L605.422 46.6023L603.353 47.6364L605.422 48.6705L604.728 49.875L602.797 48.608L602.922 50.9091H601.541ZM609.428 50.9091L609.559 48.608L607.627 49.875L606.934 48.6705L608.997 47.6364L606.934 46.6023L607.627 45.3977L609.559 46.6648L609.428 44.3636H610.809L610.684 46.6648L612.616 45.3977L613.309 46.6023L611.241 47.6364L613.309 48.6705L612.616 49.875L610.684 48.608L610.809 50.9091H609.428ZM617.316 50.9091L617.447 48.608L615.515 49.875L614.822 48.6705L616.884 47.6364L614.822 46.6023L615.515 45.3977L617.447 46.6648L617.316 44.3636H618.697L618.572 46.6648L620.503 45.3977L621.197 46.6023L619.128 47.6364L621.197 48.6705L620.503 49.875L618.572 48.608L618.697 50.9091H617.316ZM625.203 50.9091L625.334 48.608L623.402 49.875L622.709 48.6705L624.772 47.6364L622.709 46.6023L623.402 45.3977L625.334 46.6648L625.203 44.3636H626.584L626.459 46.6648L628.391 45.3977L629.084 46.6023L627.016 47.6364L629.084 48.6705L628.391 49.875L626.459 48.608L626.584 50.9091H625.203ZM633.091 50.9091L633.222 48.608L631.29 49.875L630.597 48.6705L632.659 47.6364L630.597 46.6023L631.29 45.3977L633.222 46.6648L633.091 44.3636H634.472L634.347 46.6648L636.278 45.3977L636.972 46.6023L634.903 47.6364L636.972 48.6705L636.278 49.875L634.347 48.608L634.472 50.9091H633.091ZM640.978 50.9091L641.109 48.608L639.177 49.875L638.484 48.6705L640.547 47.6364L638.484 46.6023L639.177 45.3977L641.109 46.6648L640.978 44.3636H642.359L642.234 46.6648L644.166 45.3977L644.859 46.6023L642.791 47.6364L644.859 48.6705L644.166 49.875L642.234 48.608L642.359 50.9091H640.978Z" fill="#AAAAAA"/>
<path d="M68.2929 193.707C68.6834 194.098 69.3166 194.098 69.7071 193.707L76.0711 187.343C76.4616 186.953 76.4616 186.319 76.0711 185.929C75.6805 185.538 75.0474 185.538 74.6569 185.929L69 191.586L63.3431 185.929C62.9526 185.538 62.3195 185.538 61.9289 185.929C61.5384 186.319 61.5384 186.953 61.9289 187.343L68.2929 193.707ZM68 164V193H70V164H68Z" fill="#6B6B6B"/>
</svg>
