<svg width="646" height="529" viewBox="0 0 646 529" fill="none" xmlns="http://www.w3.org/2000/svg">
    <style>
        #arrows {
            fill: #626262;
        }
        @media (prefers-color-scheme: dark) {
            #arrows { fill: #DDDDDD; }
        }
    </style>
<rect x="2" y="331" width="526" height="196" rx="22" fill="#91FF3A" fill-opacity="0.42" stroke="#459D00" stroke-width="4" stroke-dasharray="4 4"/>
<rect x="2" y="166" width="106" height="106" rx="13" fill="#FDC841" fill-opacity="0.42" stroke="#FDC841" stroke-width="4"/>
<rect x="10" y="176" width="47" height="21" rx="7" fill="white"/>
<path d="M19.0237 191V182.273H22.3646C22.9953 182.273 23.5194 182.372 23.937 182.571C24.3575 182.767 24.6714 183.036 24.8788 183.376C25.089 183.717 25.1941 184.104 25.1941 184.536C25.1941 184.891 25.126 185.195 24.9896 185.447C24.8532 185.697 24.67 185.901 24.4399 186.057C24.2098 186.213 23.9527 186.325 23.6686 186.393V186.479C23.9782 186.496 24.2751 186.591 24.5592 186.764C24.8461 186.935 25.0805 187.176 25.2623 187.489C25.4441 187.801 25.535 188.179 25.535 188.622C25.535 189.074 25.4257 189.48 25.2069 189.841C24.9882 190.199 24.6586 190.482 24.2183 190.689C23.7779 190.896 23.224 191 22.5564 191H19.0237ZM20.6047 189.679H22.3049C22.8788 189.679 23.2922 189.57 23.545 189.351C23.8007 189.129 23.9285 188.845 23.9285 188.499C23.9285 188.24 23.8646 188.007 23.7368 187.8C23.6089 187.589 23.4271 187.425 23.1913 187.305C22.9555 187.183 22.6743 187.122 22.3475 187.122H20.6047V189.679ZM20.6047 185.984H22.1686C22.4413 185.984 22.687 185.935 22.9058 185.835C23.1245 185.733 23.2964 185.589 23.4214 185.405C23.5493 185.217 23.6132 184.996 23.6132 184.74C23.6132 184.402 23.4939 184.124 23.2552 183.905C23.0194 183.686 22.6686 183.577 22.2027 183.577H20.6047V185.984ZM27.7848 182.273V191H26.2422V182.273H27.7848ZM31.6262 191.128C30.987 191.128 30.4331 190.987 29.9643 190.706C29.4956 190.425 29.1319 190.031 28.8734 189.526C28.6177 189.02 28.4899 188.429 28.4899 187.753C28.4899 187.077 28.6177 186.484 28.8734 185.976C29.1319 185.467 29.4956 185.072 29.9643 184.791C30.4331 184.51 30.987 184.369 31.6262 184.369C32.2654 184.369 32.8194 184.51 33.2882 184.791C33.7569 185.072 34.1191 185.467 34.3748 185.976C34.6333 186.484 34.7626 187.077 34.7626 187.753C34.7626 188.429 34.6333 189.02 34.3748 189.526C34.1191 190.031 33.7569 190.425 33.2882 190.706C32.8194 190.987 32.2654 191.128 31.6262 191.128ZM31.6348 189.892C31.9814 189.892 32.2711 189.797 32.5041 189.607C32.737 189.413 32.9103 189.155 33.024 188.831C33.1404 188.507 33.1987 188.146 33.1987 187.749C33.1987 187.348 33.1404 186.986 33.024 186.662C32.9103 186.335 32.737 186.075 32.5041 185.882C32.2711 185.689 31.9814 185.592 31.6348 185.592C31.2797 185.592 30.9842 185.689 30.7484 185.882C30.5154 186.075 30.3407 186.335 30.2243 186.662C30.1106 186.986 30.0538 187.348 30.0538 187.749C30.0538 188.146 30.1106 188.507 30.2243 188.831C30.3407 189.155 30.5154 189.413 30.7484 189.607C30.9842 189.797 31.2797 189.892 31.6348 189.892ZM38.327 191.128C37.6736 191.128 37.1125 190.984 36.6438 190.697C36.1779 190.411 35.8185 190.014 35.5657 189.509C35.3157 189 35.1907 188.415 35.1907 187.753C35.1907 187.088 35.3185 186.501 35.5742 185.993C35.8299 185.482 36.1907 185.084 36.6566 184.8C37.1253 184.513 37.6793 184.369 38.3185 184.369C38.8498 184.369 39.3199 184.467 39.729 184.663C40.1409 184.857 40.4691 185.131 40.7134 185.486C40.9577 185.838 41.0969 186.25 41.131 186.722H39.6566C39.5969 186.406 39.4549 186.143 39.2304 185.933C39.0088 185.72 38.712 185.614 38.3398 185.614C38.0245 185.614 37.7475 185.699 37.5088 185.869C37.2702 186.037 37.0841 186.278 36.9506 186.594C36.8199 186.909 36.7546 187.287 36.7546 187.727C36.7546 188.173 36.8199 188.557 36.9506 188.878C37.0813 189.196 37.2645 189.442 37.5003 189.615C37.739 189.786 38.0188 189.871 38.3398 189.871C38.5671 189.871 38.7702 189.828 38.9492 189.743C39.131 189.655 39.283 189.528 39.4052 189.364C39.5273 189.199 39.6111 188.999 39.6566 188.763H41.131C41.0941 189.226 40.9577 189.636 40.7219 189.994C40.4861 190.349 40.1651 190.628 39.7588 190.83C39.3526 191.028 38.8753 191.128 38.327 191.128ZM43.2039 188.946L43.1997 187.084H43.4468L45.7991 184.455H47.6017L44.7082 187.676H44.3886L43.2039 188.946ZM41.7977 191V182.273H43.3403V191H41.7977ZM45.9056 191L43.775 188.021L44.8147 186.935L47.7508 191H45.9056Z" fill="#916B00"/>
<rect x="142" y="166" width="106" height="106" rx="13" fill="#FDC841" fill-opacity="0.42" stroke="#FDC841" stroke-width="4"/>
<rect x="150" y="176" width="47" height="21" rx="7" fill="white"/>
<path d="M159.024 191V182.273H162.365C162.995 182.273 163.519 182.372 163.937 182.571C164.357 182.767 164.671 183.036 164.879 183.376C165.089 183.717 165.194 184.104 165.194 184.536C165.194 184.891 165.126 185.195 164.99 185.447C164.853 185.697 164.67 185.901 164.44 186.057C164.21 186.213 163.953 186.325 163.669 186.393V186.479C163.978 186.496 164.275 186.591 164.559 186.764C164.846 186.935 165.081 187.176 165.262 187.489C165.444 187.801 165.535 188.179 165.535 188.622C165.535 189.074 165.426 189.48 165.207 189.841C164.988 190.199 164.659 190.482 164.218 190.689C163.778 190.896 163.224 191 162.556 191H159.024ZM160.605 189.679H162.305C162.879 189.679 163.292 189.57 163.545 189.351C163.801 189.129 163.929 188.845 163.929 188.499C163.929 188.24 163.865 188.007 163.737 187.8C163.609 187.589 163.427 187.425 163.191 187.305C162.956 187.183 162.674 187.122 162.348 187.122H160.605V189.679ZM160.605 185.984H162.169C162.441 185.984 162.687 185.935 162.906 185.835C163.125 185.733 163.296 185.589 163.421 185.405C163.549 185.217 163.613 184.996 163.613 184.74C163.613 184.402 163.494 184.124 163.255 183.905C163.019 183.686 162.669 183.577 162.203 183.577H160.605V185.984ZM167.785 182.273V191H166.242V182.273H167.785ZM171.626 191.128C170.987 191.128 170.433 190.987 169.964 190.706C169.496 190.425 169.132 190.031 168.873 189.526C168.618 189.02 168.49 188.429 168.49 187.753C168.49 187.077 168.618 186.484 168.873 185.976C169.132 185.467 169.496 185.072 169.964 184.791C170.433 184.51 170.987 184.369 171.626 184.369C172.265 184.369 172.819 184.51 173.288 184.791C173.757 185.072 174.119 185.467 174.375 185.976C174.633 186.484 174.763 187.077 174.763 187.753C174.763 188.429 174.633 189.02 174.375 189.526C174.119 190.031 173.757 190.425 173.288 190.706C172.819 190.987 172.265 191.128 171.626 191.128ZM171.635 189.892C171.981 189.892 172.271 189.797 172.504 189.607C172.737 189.413 172.91 189.155 173.024 188.831C173.14 188.507 173.199 188.146 173.199 187.749C173.199 187.348 173.14 186.986 173.024 186.662C172.91 186.335 172.737 186.075 172.504 185.882C172.271 185.689 171.981 185.592 171.635 185.592C171.28 185.592 170.984 185.689 170.748 185.882C170.515 186.075 170.341 186.335 170.224 186.662C170.111 186.986 170.054 187.348 170.054 187.749C170.054 188.146 170.111 188.507 170.224 188.831C170.341 189.155 170.515 189.413 170.748 189.607C170.984 189.797 171.28 189.892 171.635 189.892ZM178.327 191.128C177.674 191.128 177.113 190.984 176.644 190.697C176.178 190.411 175.819 190.014 175.566 189.509C175.316 189 175.191 188.415 175.191 187.753C175.191 187.088 175.319 186.501 175.574 185.993C175.83 185.482 176.191 185.084 176.657 184.8C177.125 184.513 177.679 184.369 178.319 184.369C178.85 184.369 179.32 184.467 179.729 184.663C180.141 184.857 180.469 185.131 180.713 185.486C180.958 185.838 181.097 186.25 181.131 186.722H179.657C179.597 186.406 179.455 186.143 179.23 185.933C179.009 185.72 178.712 185.614 178.34 185.614C178.024 185.614 177.747 185.699 177.509 185.869C177.27 186.037 177.084 186.278 176.951 186.594C176.82 186.909 176.755 187.287 176.755 187.727C176.755 188.173 176.82 188.557 176.951 188.878C177.081 189.196 177.265 189.442 177.5 189.615C177.739 189.786 178.019 189.871 178.34 189.871C178.567 189.871 178.77 189.828 178.949 189.743C179.131 189.655 179.283 189.528 179.405 189.364C179.527 189.199 179.611 188.999 179.657 188.763H181.131C181.094 189.226 180.958 189.636 180.722 189.994C180.486 190.349 180.165 190.628 179.759 190.83C179.353 191.028 178.875 191.128 178.327 191.128ZM183.204 188.946L183.2 187.084H183.447L185.799 184.455H187.602L184.708 187.676H184.389L183.204 188.946ZM181.798 191V182.273H183.34V191H181.798ZM185.906 191L183.775 188.021L184.815 186.935L187.751 191H185.906Z" fill="#916B00"/>
<rect x="422" y="166" width="106" height="106" rx="13" fill="#FDC841" fill-opacity="0.42" stroke="#FDC841" stroke-width="4"/>
<rect x="430" y="176" width="47" height="21" rx="7" fill="white"/>
<path d="M439.024 191V182.273H442.365C442.995 182.273 443.519 182.372 443.937 182.571C444.357 182.767 444.671 183.036 444.879 183.376C445.089 183.717 445.194 184.104 445.194 184.536C445.194 184.891 445.126 185.195 444.99 185.447C444.853 185.697 444.67 185.901 444.44 186.057C444.21 186.213 443.953 186.325 443.669 186.393V186.479C443.978 186.496 444.275 186.591 444.559 186.764C444.846 186.935 445.081 187.176 445.262 187.489C445.444 187.801 445.535 188.179 445.535 188.622C445.535 189.074 445.426 189.48 445.207 189.841C444.988 190.199 444.659 190.482 444.218 190.689C443.778 190.896 443.224 191 442.556 191H439.024ZM440.605 189.679H442.305C442.879 189.679 443.292 189.57 443.545 189.351C443.801 189.129 443.929 188.845 443.929 188.499C443.929 188.24 443.865 188.007 443.737 187.8C443.609 187.589 443.427 187.425 443.191 187.305C442.956 187.183 442.674 187.122 442.348 187.122H440.605V189.679ZM440.605 185.984H442.169C442.441 185.984 442.687 185.935 442.906 185.835C443.125 185.733 443.296 185.589 443.421 185.405C443.549 185.217 443.613 184.996 443.613 184.74C443.613 184.402 443.494 184.124 443.255 183.905C443.019 183.686 442.669 183.577 442.203 183.577H440.605V185.984ZM447.785 182.273V191H446.242V182.273H447.785ZM451.626 191.128C450.987 191.128 450.433 190.987 449.964 190.706C449.496 190.425 449.132 190.031 448.873 189.526C448.618 189.02 448.49 188.429 448.49 187.753C448.49 187.077 448.618 186.484 448.873 185.976C449.132 185.467 449.496 185.072 449.964 184.791C450.433 184.51 450.987 184.369 451.626 184.369C452.265 184.369 452.819 184.51 453.288 184.791C453.757 185.072 454.119 185.467 454.375 185.976C454.633 186.484 454.763 187.077 454.763 187.753C454.763 188.429 454.633 189.02 454.375 189.526C454.119 190.031 453.757 190.425 453.288 190.706C452.819 190.987 452.265 191.128 451.626 191.128ZM451.635 189.892C451.981 189.892 452.271 189.797 452.504 189.607C452.737 189.413 452.91 189.155 453.024 188.831C453.14 188.507 453.199 188.146 453.199 187.749C453.199 187.348 453.14 186.986 453.024 186.662C452.91 186.335 452.737 186.075 452.504 185.882C452.271 185.689 451.981 185.592 451.635 185.592C451.28 185.592 450.984 185.689 450.748 185.882C450.515 186.075 450.341 186.335 450.224 186.662C450.111 186.986 450.054 187.348 450.054 187.749C450.054 188.146 450.111 188.507 450.224 188.831C450.341 189.155 450.515 189.413 450.748 189.607C450.984 189.797 451.28 189.892 451.635 189.892ZM458.327 191.128C457.674 191.128 457.113 190.984 456.644 190.697C456.178 190.411 455.819 190.014 455.566 189.509C455.316 189 455.191 188.415 455.191 187.753C455.191 187.088 455.319 186.501 455.574 185.993C455.83 185.482 456.191 185.084 456.657 184.8C457.125 184.513 457.679 184.369 458.319 184.369C458.85 184.369 459.32 184.467 459.729 184.663C460.141 184.857 460.469 185.131 460.713 185.486C460.958 185.838 461.097 186.25 461.131 186.722H459.657C459.597 186.406 459.455 186.143 459.23 185.933C459.009 185.72 458.712 185.614 458.34 185.614C458.024 185.614 457.747 185.699 457.509 185.869C457.27 186.037 457.084 186.278 456.951 186.594C456.82 186.909 456.755 187.287 456.755 187.727C456.755 188.173 456.82 188.557 456.951 188.878C457.081 189.196 457.265 189.442 457.5 189.615C457.739 189.786 458.019 189.871 458.34 189.871C458.567 189.871 458.77 189.828 458.949 189.743C459.131 189.655 459.283 189.528 459.405 189.364C459.527 189.199 459.611 188.999 459.657 188.763H461.131C461.094 189.226 460.958 189.636 460.722 189.994C460.486 190.349 460.165 190.628 459.759 190.83C459.353 191.028 458.875 191.128 458.327 191.128ZM463.204 188.946L463.2 187.084H463.447L465.799 184.455H467.602L464.708 187.676H464.389L463.204 188.946ZM461.798 191V182.273H463.34V191H461.798ZM465.906 191L463.775 188.021L464.815 186.935L467.751 191H465.906Z" fill="#916B00"/>
<rect x="282" y="166" width="106" height="106" rx="13" fill="#FDC841" fill-opacity="0.42" stroke="#FDC841" stroke-width="4"/>
<rect x="290" y="176" width="47" height="21" rx="7" fill="white"/>
<path d="M299.024 191V182.273H302.365C302.995 182.273 303.519 182.372 303.937 182.571C304.357 182.767 304.671 183.036 304.879 183.376C305.089 183.717 305.194 184.104 305.194 184.536C305.194 184.891 305.126 185.195 304.99 185.447C304.853 185.697 304.67 185.901 304.44 186.057C304.21 186.213 303.953 186.325 303.669 186.393V186.479C303.978 186.496 304.275 186.591 304.559 186.764C304.846 186.935 305.081 187.176 305.262 187.489C305.444 187.801 305.535 188.179 305.535 188.622C305.535 189.074 305.426 189.48 305.207 189.841C304.988 190.199 304.659 190.482 304.218 190.689C303.778 190.896 303.224 191 302.556 191H299.024ZM300.605 189.679H302.305C302.879 189.679 303.292 189.57 303.545 189.351C303.801 189.129 303.929 188.845 303.929 188.499C303.929 188.24 303.865 188.007 303.737 187.8C303.609 187.589 303.427 187.425 303.191 187.305C302.956 187.183 302.674 187.122 302.348 187.122H300.605V189.679ZM300.605 185.984H302.169C302.441 185.984 302.687 185.935 302.906 185.835C303.125 185.733 303.296 185.589 303.421 185.405C303.549 185.217 303.613 184.996 303.613 184.74C303.613 184.402 303.494 184.124 303.255 183.905C303.019 183.686 302.669 183.577 302.203 183.577H300.605V185.984ZM307.785 182.273V191H306.242V182.273H307.785ZM311.626 191.128C310.987 191.128 310.433 190.987 309.964 190.706C309.496 190.425 309.132 190.031 308.873 189.526C308.618 189.02 308.49 188.429 308.49 187.753C308.49 187.077 308.618 186.484 308.873 185.976C309.132 185.467 309.496 185.072 309.964 184.791C310.433 184.51 310.987 184.369 311.626 184.369C312.265 184.369 312.819 184.51 313.288 184.791C313.757 185.072 314.119 185.467 314.375 185.976C314.633 186.484 314.763 187.077 314.763 187.753C314.763 188.429 314.633 189.02 314.375 189.526C314.119 190.031 313.757 190.425 313.288 190.706C312.819 190.987 312.265 191.128 311.626 191.128ZM311.635 189.892C311.981 189.892 312.271 189.797 312.504 189.607C312.737 189.413 312.91 189.155 313.024 188.831C313.14 188.507 313.199 188.146 313.199 187.749C313.199 187.348 313.14 186.986 313.024 186.662C312.91 186.335 312.737 186.075 312.504 185.882C312.271 185.689 311.981 185.592 311.635 185.592C311.28 185.592 310.984 185.689 310.748 185.882C310.515 186.075 310.341 186.335 310.224 186.662C310.111 186.986 310.054 187.348 310.054 187.749C310.054 188.146 310.111 188.507 310.224 188.831C310.341 189.155 310.515 189.413 310.748 189.607C310.984 189.797 311.28 189.892 311.635 189.892ZM318.327 191.128C317.674 191.128 317.113 190.984 316.644 190.697C316.178 190.411 315.819 190.014 315.566 189.509C315.316 189 315.191 188.415 315.191 187.753C315.191 187.088 315.319 186.501 315.574 185.993C315.83 185.482 316.191 185.084 316.657 184.8C317.125 184.513 317.679 184.369 318.319 184.369C318.85 184.369 319.32 184.467 319.729 184.663C320.141 184.857 320.469 185.131 320.713 185.486C320.958 185.838 321.097 186.25 321.131 186.722H319.657C319.597 186.406 319.455 186.143 319.23 185.933C319.009 185.72 318.712 185.614 318.34 185.614C318.024 185.614 317.747 185.699 317.509 185.869C317.27 186.037 317.084 186.278 316.951 186.594C316.82 186.909 316.755 187.287 316.755 187.727C316.755 188.173 316.82 188.557 316.951 188.878C317.081 189.196 317.265 189.442 317.5 189.615C317.739 189.786 318.019 189.871 318.34 189.871C318.567 189.871 318.77 189.828 318.949 189.743C319.131 189.655 319.283 189.528 319.405 189.364C319.527 189.199 319.611 188.999 319.657 188.763H321.131C321.094 189.226 320.958 189.636 320.722 189.994C320.486 190.349 320.165 190.628 319.759 190.83C319.353 191.028 318.875 191.128 318.327 191.128ZM323.204 188.946L323.2 187.084H323.447L325.799 184.455H327.602L324.708 187.676H324.389L323.204 188.946ZM321.798 191V182.273H323.34V191H321.798ZM325.906 191L323.775 188.021L324.815 186.935L327.751 191H325.906Z" fill="#916B00"/>
<path d="M12 2H198C203.523 2 208 6.47715 208 12V94C208 99.5229 203.523 104 198 104H12C6.47715 104 2 99.5229 2 94V12C2 6.47715 6.47715 2 12 2Z" fill="#5A9CFF" fill-opacity="0.5" stroke="#5A9CFF" stroke-width="4"/>
<rect x="10" y="9" width="60" height="22" rx="7" fill="white"/>
<path d="M18.3759 24V15.2727H21.6486C22.3191 15.2727 22.8816 15.3892 23.3361 15.6222C23.7935 15.8551 24.1387 16.1818 24.3717 16.6023C24.6074 17.0199 24.7253 17.5071 24.7253 18.0639C24.7253 18.6236 24.606 19.1094 24.3674 19.5213C24.1316 19.9304 23.7836 20.2472 23.3234 20.4716C22.8631 20.6932 22.2978 20.804 21.6273 20.804H19.2964V19.4915H21.4143C21.8063 19.4915 22.1273 19.4375 22.3773 19.3295C22.6273 19.2187 22.812 19.0582 22.9313 18.848C23.0535 18.6349 23.1145 18.3736 23.1145 18.0639C23.1145 17.7543 23.0535 17.4901 22.9313 17.2713C22.8091 17.0497 22.6231 16.8821 22.3731 16.7685C22.1231 16.652 21.8006 16.5938 21.4057 16.5938H19.9569V24H18.3759ZM22.8844 20.0455L25.0449 24H23.2807L21.1586 20.0455H22.8844ZM27.3959 24.1321C26.9812 24.1321 26.6076 24.0582 26.2752 23.9105C25.9457 23.7599 25.6843 23.5384 25.4911 23.2457C25.3008 22.9531 25.2056 22.5923 25.2056 22.1634C25.2056 21.794 25.2738 21.4886 25.4101 21.2472C25.5465 21.0057 25.7326 20.8125 25.9684 20.6676C26.2042 20.5227 26.4698 20.4134 26.7653 20.3395C27.0636 20.2628 27.3718 20.2074 27.69 20.1733C28.0735 20.1335 28.3846 20.098 28.6232 20.0668C28.8618 20.0327 29.0351 19.9815 29.1431 19.9134C29.2539 19.8423 29.3093 19.733 29.3093 19.5852V19.5597C29.3093 19.2386 29.2141 18.9901 29.0238 18.8139C28.8334 18.6378 28.5593 18.5497 28.2013 18.5497C27.8235 18.5497 27.5238 18.6321 27.3022 18.7969C27.0834 18.9616 26.9357 19.1562 26.859 19.3807L25.4187 19.1761C25.5323 18.7784 25.7198 18.446 25.9812 18.179C26.2425 17.9091 26.5621 17.7074 26.94 17.5739C27.3178 17.4375 27.7354 17.3693 28.1928 17.3693C28.5082 17.3693 28.8221 17.4062 29.1346 17.4801C29.4471 17.554 29.7326 17.6761 29.9911 17.8466C30.2496 18.0142 30.457 18.2429 30.6133 18.5327C30.7724 18.8224 30.8519 19.1847 30.8519 19.6193V24H29.369V23.1009H29.3178C29.2241 23.2827 29.092 23.4531 28.9215 23.6122C28.7539 23.7685 28.5422 23.8949 28.2866 23.9915C28.0337 24.0852 27.7368 24.1321 27.3959 24.1321ZM27.7965 22.9986C28.1062 22.9986 28.3746 22.9375 28.6019 22.8153C28.8292 22.6903 29.0039 22.5256 29.1261 22.321C29.2511 22.1165 29.3136 21.8935 29.3136 21.652V20.8807C29.2653 20.9205 29.1829 20.9574 29.0664 20.9915C28.9528 21.0256 28.8249 21.0554 28.6829 21.081C28.5408 21.1065 28.4002 21.1293 28.261 21.1491C28.1218 21.169 28.0011 21.1861 27.8988 21.2003C27.6687 21.2315 27.4627 21.2827 27.2809 21.3537C27.0991 21.4247 26.9556 21.5241 26.8505 21.652C26.7454 21.777 26.6928 21.9389 26.6928 22.1378C26.6928 22.4219 26.7965 22.6364 27.0039 22.7812C27.2113 22.9261 27.4755 22.9986 27.7965 22.9986ZM33.1539 24L31.3045 17.4545H32.8769L34.0275 22.0568H34.0871L35.2633 17.4545H36.8187L37.9948 22.0312H38.0587L39.1922 17.4545H40.769L38.9153 24H37.3087L36.0815 19.5767H35.992L34.7647 24H33.1539ZM43.6908 24V15.2727H49.2817V16.598H45.2717V18.9673H48.8981V20.2926H45.2717V24H43.6908ZM50.0538 24V17.4545H51.5964V24H50.0538ZM50.8294 16.5256C50.5851 16.5256 50.3748 16.4446 50.1987 16.2827C50.0226 16.1179 49.9345 15.9205 49.9345 15.6903C49.9345 15.4574 50.0226 15.2599 50.1987 15.098C50.3748 14.9332 50.5851 14.8509 50.8294 14.8509C51.0765 14.8509 51.2868 14.9332 51.4601 15.098C51.6362 15.2599 51.7243 15.4574 51.7243 15.6903C51.7243 15.9205 51.6362 16.1179 51.4601 16.2827C51.2868 16.4446 51.0765 16.5256 50.8294 16.5256ZM54.1253 15.2727V24H52.5827V15.2727H54.1253ZM58.0094 24.1278C57.3531 24.1278 56.7864 23.9915 56.3091 23.7188C55.8346 23.4432 55.4696 23.054 55.2139 22.5511C54.9582 22.0455 54.8304 21.4503 54.8304 20.7656C54.8304 20.0923 54.9582 19.5014 55.2139 18.9929C55.4724 18.4815 55.8332 18.0838 56.2963 17.7997C56.7594 17.5128 57.3034 17.3693 57.9284 17.3693C58.3318 17.3693 58.7125 17.4347 59.0704 17.5653C59.4312 17.6932 59.7494 17.892 60.025 18.1619C60.3034 18.4318 60.5221 18.7756 60.6812 19.1932C60.8403 19.608 60.9199 20.1023 60.9199 20.6761V21.1491H55.5548V20.1094H59.4412C59.4383 19.8139 59.3744 19.5511 59.2494 19.321C59.1244 19.0881 58.9497 18.9048 58.7253 18.7713C58.5037 18.6378 58.2452 18.571 57.9497 18.571C57.6344 18.571 57.3574 18.6477 57.1187 18.8011C56.8801 18.9517 56.694 19.1506 56.5605 19.3977C56.4298 19.642 56.3631 19.9105 56.3602 20.2031V21.1108C56.3602 21.4915 56.4298 21.8182 56.569 22.0909C56.7082 22.3608 56.9028 22.5682 57.1528 22.7131C57.4028 22.8551 57.6954 22.9261 58.0307 22.9261C58.2551 22.9261 58.4582 22.8949 58.64 22.8324C58.8219 22.767 58.9795 22.6719 59.1131 22.5469C59.2466 22.4219 59.3474 22.267 59.4156 22.0824L60.856 22.2443C60.765 22.625 60.5918 22.9574 60.3361 23.2415C60.0832 23.5227 59.7594 23.7415 59.3645 23.8977C58.9696 24.0511 58.5179 24.1278 58.0094 24.1278Z" fill="#4B82D3"/>
<path fill-rule="evenodd" clip-rule="evenodd" d="M50 107C50.5523 107 51 107.448 51 108V108.5V128C51 132.969 55.0371 137 60.0088 137H60.2637H60.5183H60.7725H61.0264H61.28H61.5332H61.786H62.0386H62.2908H62.5426H62.7941H63.0453H63.2961H63.5467H63.7968H64.0467H64.2962H64.5454H64.7943H65.0428H65.291H65.5389H65.7865H66.0338H66.2807H66.5273H66.7737H67.0197H67.2653H67.5107H67.7558H68.0005H68.245H68.4891H68.7329H68.9764H69.2197H69.4626H69.7052H69.9475H70.1896H70.4313H70.6727H70.9139H71.1547H71.3953H71.6355H71.8755H72.1152H72.3546H72.5937H72.8325H73.0711H73.3094H73.5474H73.7851H74.0225H74.2597H74.4966H74.7332H74.9695H75.2056H75.4414H75.6769H75.9122H76.1472H76.3819H76.6164H76.8506H77.0845H77.3182H77.5516H77.7848H78.0177H78.2504H78.4828H78.715H78.9469H79.1785H79.4099H79.6411H79.872H80.1027H80.3331H80.5633H80.7933H81.023H81.2524H81.4817H81.7107H81.9395H82.168H82.3963H82.6244H82.8522H83.0798H83.3072H83.5344H83.7613H83.9881H84.2146H84.4408H84.6669H84.8928H85.1184H85.3438H85.569H85.794H86.0188H86.2433H86.4677H86.6919H86.9158H87.1395H87.3631H87.5864H87.8096H88.0325H88.2552H88.4778H88.7001H88.9223H89.1443H89.366H89.5876H89.809H90.0302H90.2512H90.4721H90.6927H90.9132H91.1335H91.3536H91.5735H91.7932H92.0128H92.2322H92.4514H92.6705H92.8894H93.1081H93.3266H93.545H93.7632H93.9812H94.1991H94.4168H94.6344H94.8518H95.069H95.2861H95.503H95.7198H95.9364H96.1529H96.3692H96.5854H96.8014H97.0173H97.233H97.4486H97.664H97.8793H98.0944H98.3095H98.5243H98.7391H98.9537H99.1682H99.3825H99.5967H99.8108H100.025H100.239H100.452H100.666H100.879H101.093H101.306H101.519H101.732H101.945H102.157H102.37H102.583H102.795H103.007H103.219H103.431H103.643H103.855H104.067H104.279H104.49H104.702H104.913H105.124H105.335H105.546H105.757H105.968H106.179H106.39H106.6H106.811H107.021H107.231H107.442H107.652H107.862H108.072H108.282H108.492H108.701H108.911H109.121H109.33H109.54H109.749H109.958H110.168H110.377H110.586H110.795H111.004H111.213H111.422H111.631H111.84H112.048H112.257H112.466H112.674H112.883H113.091H113.299H113.508H113.716H113.924H114.133H114.341H114.549H114.757H114.965H115.173H115.381H115.589H115.797H116.005H116.213H116.421H116.628H116.836H117.044H117.252H117.459H117.667H117.875H118.082H118.29H118.498H118.705H118.913H119.12H119.328H119.535H119.743H119.951H120.158H120.366H120.573H120.781H120.988H121.196H121.403H121.611H121.818H122.026H122.233H122.441H122.648H122.856H123.064H123.227L119.263 132.676C118.89 132.269 118.917 131.636 119.324 131.263C119.731 130.89 120.364 130.917 120.737 131.324L125.94 137H125.971H126.179H126.387H126.595H126.803H127.011H127.219H127.428H127.636H127.844H128.052H128.26H128.469H128.677H128.886H129.094H129.303H129.511H129.72H129.928H130.137H130.346H130.555H130.764H130.973H131.182H131.391H131.6H131.809H132.018H132.228H132.437H132.647H132.856H133.066H133.276H133.485H133.695H133.905H134.115H134.325H134.536H134.746H134.956H135.167H135.377H135.588H135.798H136.009H136.22H136.431H136.642H136.853H137.065H137.276H137.488H137.699H137.911H138.123H138.334H138.546H138.759H138.971H139.183H139.395H139.608H139.821H140.033H140.246H140.459H140.672H140.886H141.099H141.313H141.526H141.74H141.954H142.168H142.382H142.596H142.811H143.025H143.24H143.455H143.669H143.885H144.1H144.315H144.531H144.746H144.962H145.178H145.394H145.61H145.827H146.043H146.26H146.477H146.694H146.911H147.128H147.345H147.563H147.781H147.999H148.217H148.435H148.654H148.872H149.091H149.31H149.529H149.748H149.968H150.187H150.407H150.627H150.847H151.068H151.288H151.509H151.73H151.951H152.172H152.394H152.615H152.837H153.059H153.281H153.504H153.726H153.949H154.172H154.395H154.619H154.842H155.066H155.29H155.514H155.739H155.964H156.188H156.413H156.639H156.864H157.09H157.316H157.542H157.768H157.995H158.222H158.449H158.676H158.903H159.131H159.359H159.587H159.816H160.044H160.273H160.502H160.732H160.961H161.191H161.421H161.651H161.882H162.112H162.343H162.575H162.806H163.038H163.27H163.502H163.735H163.967H164.2H164.434H164.667H164.901H165.135H165.369H165.604H165.839H166.074H166.309H166.545H166.781H167.017H167.253H167.49H167.727H167.964H168.202H168.44H168.678H168.916H169.155H169.394H169.633H169.872H170.112H170.352H170.593H170.833H171.074H171.315H171.557H171.799H172.041H172.283H172.526H172.769H173.012H173.256H173.5H173.519H173.538H173.557H173.576H173.595H173.614H173.633H173.652H173.671H173.69H173.709H173.729H173.748H173.767H173.786H173.805H173.824H173.843H173.862H173.881H173.901H173.92H173.939H173.958H173.977H173.997H174.016H174.035H174.054H174.073H174.093H174.112H174.131H174.15H174.17H174.189H174.208H174.227H174.247H174.266H174.285H174.305H174.324H174.343H174.363H174.382H174.401H174.421H174.44H174.459H174.479H174.498H174.518H174.537H174.556H174.576H174.595H174.615H174.634H174.654H174.673H174.693H174.712H174.731H174.751H174.77H174.79H174.809H174.829H174.849H174.868H174.888H174.907H174.927H174.946H174.966H174.985H175.005H175.025H175.044H175.064H175.083H175.103H175.123H175.142H175.162H175.181H175.201H175.221H175.24H175.26H175.28H175.299H175.319H175.339H175.359H175.378H175.398H175.418H175.437H175.457H175.477H175.497H175.516H175.536H175.556H175.576H175.595H175.615H175.635H175.655H175.675H175.694H175.714H175.734H175.754H175.774H175.794H175.814H175.833H175.853H175.873H175.893H175.913H175.933H175.953H175.973H175.993H176.012H176.032H176.052H176.072H176.092H176.112H176.132H176.152H176.172H176.192H176.212H176.232H176.252H176.272H176.292H176.312H176.332H176.352H176.372H176.392H176.412H176.432H176.452H176.472H176.492H176.513H176.533H176.553H176.573H176.593H176.613H176.633H176.653H176.673H176.694H176.714H176.734H176.754H176.774H176.794H176.814H176.835H176.855H176.875H176.895H176.915H176.936H176.956H176.976H176.996H177.016H177.037H177.057H177.077H177.097H177.118H177.138H177.158H177.178H177.199H177.219H177.239H177.26H177.28H177.3H177.321H177.341H177.361H177.382H177.402H177.422H177.443H177.463H177.483H177.504H177.524H177.544H177.565H177.585H177.606H177.626H177.646H177.667H177.687H177.708H177.728H177.748H177.769H177.789H177.81H177.83H177.851H177.871H177.892H177.912H177.933H177.953H177.973H177.994H178.014H178.035H178.055H178.076H178.097H178.117H178.138H178.158H178.179H178.199H178.22H178.24H178.261H178.281H178.302H178.323H178.343H178.364H178.384H178.405H178.426H178.446H178.467H178.487H178.508H178.529H178.549H178.57H178.59H178.611H178.632H178.652H178.673H178.694H178.714H178.735H178.756H178.776H178.797H178.818H178.839H178.859H178.88H178.901H178.921H178.942H178.963H178.984H179.004H179.025H179.046H179.066H179.087H179.108H179.129H179.15H179.17H179.191H179.212H179.233H179.253H179.274H179.295H179.316H179.337H179.357H179.378H179.399H179.42H179.441H179.462H179.482H179.503H179.524H179.545H179.566H179.587H179.607H179.628H179.649H179.67H179.691H179.712H179.733H179.754H179.775H179.795H179.816H179.837H179.858H179.879H179.9H179.921H179.942H179.963H179.984H180.005H180.026H180.047H180.068H180.089H180.109H180.13H180.151H180.172H180.193H180.214H180.235H180.256H180.277H180.298H180.319H180.34H180.361H180.382H180.403H180.424H180.445H180.466H180.487H180.508H180.53H180.551H180.572H180.593H180.614H180.635H180.656H180.677H180.698H180.719H180.74H180.761H180.782H180.803H180.824H180.846H180.867H180.888H180.909H180.93H180.951H180.972H180.993H181.014H181.036H181.057H181.078H181.099H181.12H181.141H181.162H181.184H181.205H181.226H181.247H181.268H181.289H181.31H181.332H181.353H181.374H181.395H181.416H181.438H181.459H181.48H181.501H181.522H181.544H181.565H181.586H181.607H181.628H181.65H181.671H181.692H181.713H181.735H181.756H181.777H181.798H181.819H181.841H181.862H181.883H181.904H181.926H181.947H181.968H181.99H182.011H182.032H182.053H182.075H182.096H182.117H182.138H182.16H182.181H182.202H182.224H182.245H182.266H182.288H182.309H182.33H182.352H182.373H182.394H182.415H182.437H182.458H182.479H182.501H182.522H182.543H182.565H182.586H182.607H182.629H182.65H182.672H182.693H182.714H182.736H182.757H182.778H182.8H182.821H182.842H182.864H182.885H182.907H182.928H182.949H182.971H182.992H183.014H183.035H183.056H183.078H183.099H183.121H183.142H183.163H183.185H183.206H183.228H183.249H183.27H183.292H183.313H183.335H183.356H183.378H183.399H183.42H183.442H183.463H183.485H183.506H183.528H183.549H183.57H183.592H183.613H183.635H183.656H183.678H183.699H183.721H183.742H183.764H183.785H183.807H183.828H183.849H183.871H183.892H183.914H183.935H183.957H183.978H184H265.227L261.263 132.676C260.89 132.269 260.917 131.636 261.324 131.263C261.731 130.89 262.364 130.917 262.737 131.324L267.94 137H316H326.5H408.227L404.263 132.676C403.89 132.269 403.917 131.636 404.324 131.263C404.731 130.89 405.364 130.917 405.737 131.324L410.94 137H470.5C476.575 137 481.5 141.925 481.5 148V162C481.5 162.552 481.052 163 480.5 163C479.948 163 479.5 162.552 479.5 162V148C479.5 143.029 475.471 139 470.5 139H410.94L405.737 144.676C405.364 145.083 404.731 145.11 404.324 144.737C403.917 144.364 403.89 143.731 404.263 143.324L408.227 139H332.826C335.653 140.991 337.5 144.28 337.5 148V162C337.5 162.552 337.052 163 336.5 163C335.948 163 335.5 162.552 335.5 162V148C335.5 143.029 331.471 139 326.5 139H316H267.94L262.737 144.676C262.364 145.083 261.731 145.11 261.324 144.737C260.917 144.364 260.89 143.731 261.263 143.324L265.227 139H190.326C193.153 140.991 195 144.28 195 148V162C195 162.552 194.552 163 194 163C193.448 163 193 162.552 193 162V148C193 143.029 188.97 139 184 139H183.978H183.957H183.935H183.914H183.892H183.871H183.849H183.828H183.807H183.785H183.764H183.742H183.721H183.699H183.678H183.656H183.635H183.613H183.592H183.57H183.549H183.528H183.506H183.485H183.463H183.442H183.42H183.399H183.378H183.356H183.335H183.313H183.292H183.27H183.249H183.228H183.206H183.185H183.163H183.142H183.121H183.099H183.078H183.056H183.035H183.014H182.992H182.971H182.949H182.928H182.907H182.885H182.864H182.842H182.821H182.8H182.778H182.757H182.736H182.714H182.693H182.672H182.65H182.629H182.607H182.586H182.565H182.543H182.522H182.501H182.479H182.458H182.437H182.415H182.394H182.373H182.352H182.33H182.309H182.288H182.266H182.245H182.224H182.202H182.181H182.16H182.138H182.117H182.096H182.075H182.053H182.032H182.011H181.99H181.968H181.947H181.926H181.904H181.883H181.862H181.841H181.819H181.798H181.777H181.756H181.735H181.713H181.692H181.671H181.65H181.628H181.607H181.586H181.565H181.544H181.522H181.501H181.48H181.459H181.438H181.416H181.395H181.374H181.353H181.332H181.31H181.289H181.268H181.247H181.226H181.205H181.184H181.162H181.141H181.12H181.099H181.078H181.057H181.036H181.014H180.993H180.972H180.951H180.93H180.909H180.888H180.867H180.846H180.824H180.803H180.782H180.761H180.74H180.719H180.698H180.677H180.656H180.635H180.614H180.593H180.572H180.551H180.53H180.508H180.487H180.466H180.445H180.424H180.403H180.382H180.361H180.34H180.319H180.298H180.277H180.256H180.235H180.214H180.193H180.172H180.151H180.13H180.109H180.089H180.068H180.047H180.026H180.005H179.984H179.963H179.942H179.921H179.9H179.879H179.858H179.837H179.816H179.795H179.775H179.754H179.733H179.712H179.691H179.67H179.649H179.628H179.607H179.587H179.566H179.545H179.524H179.503H179.482H179.462H179.441H179.42H179.399H179.378H179.357H179.337H179.316H179.295H179.274H179.253H179.233H179.212H179.191H179.17H179.15H179.129H179.108H179.087H179.066H179.046H179.025H179.004H178.984H178.963H178.942H178.921H178.901H178.88H178.859H178.839H178.818H178.797H178.776H178.756H178.735H178.714H178.694H178.673H178.652H178.632H178.611H178.59H178.57H178.549H178.529H178.508H178.487H178.467H178.446H178.426H178.405H178.384H178.364H178.343H178.323H178.302H178.281H178.261H178.24H178.22H178.199H178.179H178.158H178.138H178.117H178.097H178.076H178.055H178.035H178.014H177.994H177.973H177.953H177.933H177.912H177.892H177.871H177.851H177.83H177.81H177.789H177.769H177.748H177.728H177.708H177.687H177.667H177.646H177.626H177.606H177.585H177.565H177.544H177.524H177.504H177.483H177.463H177.443H177.422H177.402H177.382H177.361H177.341H177.321H177.3H177.28H177.26H177.239H177.219H177.199H177.178H177.158H177.138H177.118H177.097H177.077H177.057H177.037H177.016H176.996H176.976H176.956H176.936H176.915H176.895H176.875H176.855H176.835H176.814H176.794H176.774H176.754H176.734H176.714H176.694H176.673H176.653H176.633H176.613H176.593H176.573H176.553H176.533H176.513H176.492H176.472H176.452H176.432H176.412H176.392H176.372H176.352H176.332H176.312H176.292H176.272H176.252H176.232H176.212H176.192H176.172H176.152H176.132H176.112H176.092H176.072H176.052H176.032H176.012H175.993H175.973H175.953H175.933H175.913H175.893H175.873H175.853H175.833H175.814H175.794H175.774H175.754H175.734H175.714H175.694H175.675H175.655H175.635H175.615H175.595H175.576H175.556H175.536H175.516H175.497H175.477H175.457H175.437H175.418H175.398H175.378H175.359H175.339H175.319H175.299H175.28H175.26H175.24H175.221H175.201H175.181H175.162H175.142H175.123H175.103H175.083H175.064H175.044H175.025H175.005H174.985H174.966H174.946H174.927H174.907H174.888H174.868H174.849H174.829H174.809H174.79H174.77H174.751H174.731H174.712H174.693H174.673H174.654H174.634H174.615H174.595H174.576H174.556H174.537H174.518H174.498H174.479H174.459H174.44H174.421H174.401H174.382H174.363H174.343H174.324H174.305H174.285H174.266H174.247H174.227H174.208H174.189H174.17H174.15H174.131H174.112H174.093H174.073H174.054H174.035H174.016H173.997H173.977H173.958H173.939H173.92H173.901H173.881H173.862H173.843H173.824H173.805H173.786H173.767H173.748H173.729H173.709H173.69H173.671H173.652H173.633H173.614H173.595H173.576H173.557H173.538H173.519H173.5H173.256H173.012H172.769H172.526H172.283H172.041H171.799H171.557H171.315H171.074H170.833H170.593H170.352H170.112H169.872H169.633H169.394H169.155H168.916H168.678H168.44H168.202H167.964H167.727H167.49H167.253H167.017H166.781H166.545H166.309H166.074H165.839H165.604H165.369H165.135H164.901H164.667H164.434H164.2H163.967H163.735H163.502H163.27H163.038H162.806H162.575H162.343H162.112H161.882H161.651H161.421H161.191H160.961H160.732H160.502H160.273H160.044H159.816H159.587H159.359H159.131H158.903H158.676H158.449H158.222H157.995H157.768H157.542H157.316H157.09H156.864H156.639H156.413H156.188H155.964H155.739H155.514H155.29H155.066H154.842H154.619H154.395H154.172H153.949H153.726H153.504H153.281H153.059H152.837H152.615H152.394H152.172H151.951H151.73H151.509H151.288H151.068H150.847H150.627H150.407H150.187H149.968H149.748H149.529H149.31H149.091H148.872H148.654H148.435H148.217H147.999H147.781H147.563H147.345H147.128H146.911H146.694H146.477H146.26H146.043H145.827H145.61H145.394H145.178H144.962H144.746H144.531H144.315H144.1H143.885H143.669H143.455H143.24H143.025H142.811H142.596H142.382H142.168H141.954H141.74H141.526H141.313H141.099H140.886H140.672H140.459H140.246H140.033H139.821H139.608H139.395H139.183H138.971H138.759H138.546H138.334H138.123H137.911H137.699H137.488H137.276H137.065H136.853H136.642H136.431H136.22H136.009H135.798H135.588H135.377H135.167H134.956H134.746H134.536H134.325H134.115H133.905H133.695H133.485H133.276H133.066H132.856H132.647H132.437H132.228H132.018H131.809H131.6H131.391H131.182H130.973H130.764H130.555H130.346H130.137H129.928H129.72H129.511H129.303H129.094H128.886H128.677H128.469H128.26H128.052H127.844H127.636H127.428H127.219H127.011H126.803H126.595H126.387H126.179H125.971H125.94L120.737 144.676C120.364 145.083 119.731 145.11 119.324 144.737C118.917 144.364 118.89 143.731 119.263 143.324L123.227 139H123.064H122.856H122.648H122.441H122.233H122.026H121.818H121.611H121.403H121.196H120.988H120.781H120.573H120.366H120.158H119.951H119.743H119.535H119.328H119.12H118.913H118.705H118.498H118.29H118.082H117.875H117.667H117.459H117.252H117.044H116.836H116.628H116.421H116.213H116.005H115.797H115.589H115.381H115.173H114.965H114.757H114.549H114.341H114.133H113.924H113.716H113.508H113.299H113.091H112.883H112.674H112.466H112.257H112.048H111.84H111.631H111.422H111.213H111.004H110.795H110.586H110.377H110.168H109.958H109.749H109.54H109.33H109.121H108.911H108.701H108.492H108.282H108.072H107.862H107.652H107.442H107.231H107.021H106.811H106.6H106.39H106.179H105.968H105.757H105.546H105.335H105.124H104.913H104.702H104.49H104.279H104.067H103.855H103.643H103.431H103.219H103.007H102.795H102.583H102.37H102.157H101.945H101.732H101.519H101.306H101.093H100.879H100.666H100.452H100.239H100.025H99.8108H99.5967H99.3825H99.1682H98.9537H98.7391H98.5243H98.3095H98.0944H97.8793H97.664H97.4486H97.233H97.0173H96.8014H96.5854H96.3692H96.1529H95.9364H95.7198H95.503H95.2861H95.069H94.8518H94.6344H94.4168H94.1991H93.9812H93.7632H93.545H93.3266H93.1081H92.8894H92.6705H92.4514H92.2322H92.0128H91.7932H91.5735H91.3536H91.1335H90.9132H90.6927H90.4721H90.2512H90.0302H89.809H89.5876H89.366H89.1443H88.9223H88.7001H88.4778H88.2552H88.0325H87.8096H87.5864H87.3631H87.1395H86.9158H86.6919H86.4677H86.2433H86.0188H85.794H85.569H85.3438H85.1184H84.8928H84.6669H84.4408H84.2146H83.9881H83.7613H83.5344H83.3072H83.0798H82.8522H82.6244H82.3963H82.168H81.9395H81.7107H81.4817H81.2524H81.023H80.7933H80.5633H80.3331H80.1027H79.872H79.6411H79.4099H79.1785H78.9469H78.715H78.4828H78.2504H78.0177H77.7848H77.5516H77.3182H77.0845H76.8506H76.6164H76.3819H76.1472H75.9122H75.6769H75.4414H75.2056H74.9695H74.7332H74.4966H74.2597H74.0225H73.7851H73.5474H73.3094H73.0711H72.8325H72.5937H72.3546H72.1152H71.8755H71.6355H71.3953H71.1547H70.9139H70.6727H70.4313H70.1896H69.9475H69.7052H69.4626H69.2197H68.9764H68.7329H68.4891H68.245H68.0005H67.7558H67.5107H67.2653H67.0197H66.7737H66.5273H66.2807H66.0338H65.7865H65.5389H65.291H65.0428H64.7943H64.5454H64.2962H64.0467H63.7968H63.5467H63.2961H63.0453H62.7941H62.5426H62.2908H62.0386H61.786H61.5332H61.28H61.0264H60.7725H60.5183H60.2637H60.0088C56.2871 139 52.9932 137.152 51 134.322V135V162C51 162.552 50.5523 163 50 163C49.4477 163 49 162.552 49 162V135V128V108.5V108C49 107.448 49.4477 107 50 107Z" fill="#626262"/>
<path d="M120 144L125.5 138L120 132" stroke="#474747" stroke-width="2" stroke-linecap="round"/>
<path d="M50 276V291.969C50 297.492 54.4772 301.969 60 301.969H78C83.5228 301.969 88 306.446 88 311.969V326" stroke="#626262" stroke-width="2" stroke-linecap="round"/>
<path d="M120 144L125.5 138L120 132" stroke="#474747" stroke-width="2" stroke-linecap="round"/>
<path d="M354 276V291.969C354 297.492 349.523 301.969 344 301.969H326C320.477 301.969 316 306.446 316 311.969V326" stroke="#626262" stroke-width="2" stroke-linecap="round"/>
<path d="M486 275V291.488C486 297.011 481.523 301.488 476 301.488H458C452.477 301.488 448 305.966 448 311.488V326" stroke="#626262" stroke-width="2" stroke-linecap="round"/>
<path d="M184 276V291.969C184 297.492 188.477 301.969 194 301.969H206C211.523 301.969 216 306.446 216 311.969V326" stroke="#626262" stroke-width="2" stroke-linecap="round"/>
<rect x="15" y="346" width="56" height="21" rx="7" fill="white"/>
<path d="M27.5404 354.672C27.5006 354.3 27.333 354.01 27.0376 353.803C26.745 353.595 26.3643 353.491 25.8955 353.491C25.566 353.491 25.2833 353.541 25.0475 353.641C24.8117 353.74 24.6313 353.875 24.5063 354.045C24.3813 354.216 24.3174 354.411 24.3146 354.629C24.3146 354.811 24.3558 354.969 24.4381 355.102C24.5234 355.236 24.6384 355.349 24.7833 355.443C24.9282 355.534 25.0887 355.611 25.2648 355.673C25.441 355.736 25.6185 355.788 25.7975 355.831L26.6157 356.036C26.9452 356.112 27.262 356.216 27.566 356.347C27.8728 356.477 28.1469 356.642 28.3884 356.841C28.6327 357.04 28.8259 357.28 28.968 357.561C29.11 357.842 29.181 358.172 29.181 358.55C29.181 359.061 29.0504 359.511 28.789 359.901C28.5276 360.287 28.1498 360.589 27.6555 360.808C27.164 361.024 26.5688 361.132 25.87 361.132C25.191 361.132 24.6015 361.027 24.1015 360.817C23.6043 360.607 23.2151 360.3 22.9339 359.896C22.6555 359.493 22.5049 359.001 22.4822 358.422H24.0376C24.0603 358.726 24.154 358.979 24.3188 359.18C24.4836 359.382 24.6981 359.533 24.9623 359.632C25.2293 359.732 25.5276 359.781 25.8572 359.781C26.2009 359.781 26.5021 359.73 26.7606 359.628C27.0219 359.523 27.2265 359.378 27.3742 359.193C27.5219 359.006 27.5972 358.787 27.6001 358.537C27.5972 358.31 27.5305 358.122 27.3998 357.974C27.2691 357.824 27.0859 357.699 26.8501 357.599C26.6171 357.497 26.3444 357.406 26.0319 357.327L25.039 357.071C24.3202 356.886 23.7521 356.607 23.3344 356.232C22.9197 355.854 22.7123 355.352 22.7123 354.727C22.7123 354.213 22.8515 353.763 23.1299 353.376C23.4111 352.99 23.7933 352.69 24.2762 352.477C24.7592 352.261 25.306 352.153 25.9168 352.153C26.5362 352.153 27.0788 352.261 27.5447 352.477C28.0134 352.69 28.3813 352.987 28.6484 353.368C28.9154 353.746 29.0532 354.18 29.0617 354.672H27.5404ZM33.1908 354.455V355.648H29.428V354.455H33.1908ZM30.357 352.886H31.8996V359.031C31.8996 359.239 31.9308 359.398 31.9933 359.509C32.0587 359.616 32.1439 359.69 32.249 359.73C32.3541 359.77 32.4706 359.79 32.5984 359.79C32.695 359.79 32.7831 359.783 32.8626 359.768C32.945 359.754 33.0075 359.741 33.0501 359.73L33.3101 360.936C33.2277 360.964 33.1098 360.996 32.9564 361.03C32.8058 361.064 32.6212 361.084 32.4024 361.089C32.0161 361.101 31.668 361.043 31.3584 360.915C31.0487 360.784 30.803 360.582 30.6212 360.31C30.4422 360.037 30.3541 359.696 30.357 359.287V352.886ZM36.6657 361.128C36.0265 361.128 35.4725 360.987 35.0038 360.706C34.535 360.425 34.1714 360.031 33.9129 359.526C33.6572 359.02 33.5293 358.429 33.5293 357.753C33.5293 357.077 33.6572 356.484 33.9129 355.976C34.1714 355.467 34.535 355.072 35.0038 354.791C35.4725 354.51 36.0265 354.369 36.6657 354.369C37.3049 354.369 37.8589 354.51 38.3276 354.791C38.7964 355.072 39.1586 355.467 39.4143 355.976C39.6728 356.484 39.8021 357.077 39.8021 357.753C39.8021 358.429 39.6728 359.02 39.4143 359.526C39.1586 360.031 38.7964 360.425 38.3276 360.706C37.8589 360.987 37.3049 361.128 36.6657 361.128ZM36.6742 359.892C37.0208 359.892 37.3106 359.797 37.5435 359.607C37.7765 359.413 37.9498 359.155 38.0634 358.831C38.1799 358.507 38.2381 358.146 38.2381 357.749C38.2381 357.348 38.1799 356.986 38.0634 356.662C37.9498 356.335 37.7765 356.075 37.5435 355.882C37.3106 355.689 37.0208 355.592 36.6742 355.592C36.3191 355.592 36.0237 355.689 35.7879 355.882C35.5549 356.075 35.3802 356.335 35.2637 356.662C35.1501 356.986 35.0933 357.348 35.0933 357.749C35.0933 358.146 35.1501 358.507 35.2637 358.831C35.3802 359.155 35.5549 359.413 35.7879 359.607C36.0237 359.797 36.3191 359.892 36.6742 359.892ZM40.5114 361V354.455H42.0071V355.545H42.0753C42.1946 355.168 42.3991 354.876 42.6889 354.672C42.9815 354.464 43.3153 354.361 43.6903 354.361C43.7756 354.361 43.8707 354.365 43.9759 354.374C44.0838 354.379 44.1733 354.389 44.2443 354.403V355.822C44.179 355.8 44.0753 355.78 43.9332 355.763C43.794 355.743 43.6591 355.733 43.5284 355.733C43.2472 355.733 42.9943 355.794 42.7699 355.916C42.5483 356.036 42.3736 356.202 42.2457 356.415C42.1179 356.628 42.054 356.874 42.054 357.152V361H40.5114ZM46.4355 361.132C46.0207 361.132 45.6472 361.058 45.3148 360.911C44.9852 360.76 44.7239 360.538 44.5307 360.246C44.3403 359.953 44.2452 359.592 44.2452 359.163C44.2452 358.794 44.3134 358.489 44.4497 358.247C44.5861 358.006 44.7722 357.812 45.008 357.668C45.2437 357.523 45.5094 357.413 45.8048 357.339C46.1031 357.263 46.4114 357.207 46.7295 357.173C47.1131 357.134 47.4241 357.098 47.6628 357.067C47.9014 357.033 48.0747 356.982 48.1827 356.913C48.2935 356.842 48.3489 356.733 48.3489 356.585V356.56C48.3489 356.239 48.2537 355.99 48.0634 355.814C47.873 355.638 47.5989 355.55 47.2409 355.55C46.8631 355.55 46.5634 355.632 46.3418 355.797C46.123 355.962 45.9753 356.156 45.8986 356.381L44.4582 356.176C44.5719 355.778 44.7594 355.446 45.0207 355.179C45.2821 354.909 45.6017 354.707 45.9795 354.574C46.3574 354.438 46.775 354.369 47.2324 354.369C47.5477 354.369 47.8616 354.406 48.1741 354.48C48.4866 354.554 48.7722 354.676 49.0307 354.847C49.2892 355.014 49.4966 355.243 49.6528 355.533C49.8119 355.822 49.8915 356.185 49.8915 356.619V361H48.4085V360.101H48.3574C48.2636 360.283 48.1315 360.453 47.9611 360.612C47.7935 360.768 47.5818 360.895 47.3261 360.991C47.0733 361.085 46.7764 361.132 46.4355 361.132ZM46.8361 359.999C47.1457 359.999 47.4142 359.937 47.6415 359.815C47.8687 359.69 48.0435 359.526 48.1656 359.321C48.2906 359.116 48.3531 358.893 48.3531 358.652V357.881C48.3048 357.92 48.2224 357.957 48.106 357.991C47.9923 358.026 47.8645 358.055 47.7224 358.081C47.5804 358.107 47.4398 358.129 47.3006 358.149C47.1614 358.169 47.0406 358.186 46.9384 358.2C46.7082 358.232 46.5023 358.283 46.3205 358.354C46.1386 358.425 45.9952 358.524 45.8901 358.652C45.7849 358.777 45.7324 358.939 45.7324 359.138C45.7324 359.422 45.8361 359.636 46.0435 359.781C46.2509 359.926 46.5151 359.999 46.8361 359.999ZM53.6892 363.591C53.1352 363.591 52.6594 363.516 52.2616 363.365C51.8639 363.217 51.5443 363.018 51.3028 362.768C51.0614 362.518 50.8937 362.241 50.8 361.938L52.1892 361.601C52.2517 361.729 52.3426 361.855 52.4619 361.98C52.5812 362.108 52.7418 362.213 52.9435 362.295C53.148 362.381 53.4051 362.423 53.7148 362.423C54.1523 362.423 54.5145 362.317 54.8014 362.104C55.0884 361.893 55.2318 361.547 55.2318 361.064V359.824H55.1551C55.0756 359.983 54.9591 360.146 54.8057 360.314C54.6551 360.482 54.4548 360.622 54.2048 360.736C53.9577 360.849 53.6466 360.906 53.2716 360.906C52.7687 360.906 52.3128 360.788 51.9037 360.553C51.4974 360.314 51.1736 359.959 50.9321 359.487C50.6935 359.013 50.5741 358.419 50.5741 357.706C50.5741 356.987 50.6935 356.381 50.9321 355.886C51.1736 355.389 51.4989 355.013 51.908 354.757C52.317 354.499 52.773 354.369 53.2759 354.369C53.6594 354.369 53.9747 354.435 54.2219 354.565C54.4719 354.693 54.6707 354.848 54.8185 355.03C54.9662 355.209 55.0784 355.378 55.1551 355.537H55.2403V354.455H56.7616V361.107C56.7616 361.666 56.6281 362.129 56.3611 362.496C56.094 362.862 55.729 363.136 55.2659 363.318C54.8028 363.5 54.2773 363.591 53.6892 363.591ZM53.702 359.696C54.0287 359.696 54.3071 359.616 54.5372 359.457C54.7673 359.298 54.942 359.07 55.0614 358.771C55.1807 358.473 55.2403 358.115 55.2403 357.697C55.2403 357.286 55.1807 356.925 55.0614 356.615C54.9449 356.305 54.7716 356.065 54.5415 355.895C54.3142 355.722 54.0344 355.635 53.702 355.635C53.3582 355.635 53.0713 355.724 52.8412 355.903C52.6111 356.082 52.4378 356.328 52.3213 356.641C52.2048 356.95 52.1466 357.303 52.1466 357.697C52.1466 358.098 52.2048 358.449 52.3213 358.75C52.4406 359.048 52.6153 359.281 52.8455 359.449C53.0784 359.614 53.3639 359.696 53.702 359.696ZM60.6403 361.128C59.9841 361.128 59.4173 360.991 58.9401 360.719C58.4656 360.443 58.1006 360.054 57.8449 359.551C57.5892 359.045 57.4614 358.45 57.4614 357.766C57.4614 357.092 57.5892 356.501 57.8449 355.993C58.1034 355.482 58.4642 355.084 58.9273 354.8C59.3903 354.513 59.9344 354.369 60.5594 354.369C60.9628 354.369 61.3435 354.435 61.7014 354.565C62.0622 354.693 62.3804 354.892 62.656 355.162C62.9344 355.432 63.1531 355.776 63.3122 356.193C63.4713 356.608 63.5509 357.102 63.5509 357.676V358.149H58.1858V357.109H62.0722C62.0693 356.814 62.0054 356.551 61.8804 356.321C61.7554 356.088 61.5807 355.905 61.3563 355.771C61.1347 355.638 60.8761 355.571 60.5807 355.571C60.2653 355.571 59.9884 355.648 59.7497 355.801C59.5111 355.952 59.325 356.151 59.1915 356.398C59.0608 356.642 58.994 356.911 58.9912 357.203V358.111C58.9912 358.491 59.0608 358.818 59.2 359.091C59.3392 359.361 59.5338 359.568 59.7838 359.713C60.0338 359.855 60.3264 359.926 60.6616 359.926C60.8861 359.926 61.0892 359.895 61.271 359.832C61.4528 359.767 61.6105 359.672 61.744 359.547C61.8776 359.422 61.9784 359.267 62.0466 359.082L63.4869 359.244C63.396 359.625 63.2227 359.957 62.967 360.241C62.7142 360.523 62.3903 360.741 61.9955 360.898C61.6006 361.051 61.1489 361.128 60.6403 361.128Z" fill="#357601"/>
<path d="M590.191 58V47.8182H592.035V52.1286H596.753V47.8182H598.603V58H596.753V53.6747H592.035V58H590.191ZM602.027 58.1541C601.543 58.1541 601.107 58.0679 600.719 57.8956C600.335 57.7199 600.03 57.4614 599.805 57.12C599.582 56.7786 599.471 56.3577 599.471 55.8572C599.471 55.4264 599.551 55.0701 599.71 54.7884C599.869 54.5066 600.086 54.2812 600.361 54.1122C600.636 53.9432 600.946 53.8156 601.291 53.7294C601.639 53.6399 601.999 53.5753 602.37 53.5355C602.817 53.4891 603.18 53.4477 603.459 53.4112C603.737 53.3714 603.939 53.3118 604.065 53.2322C604.194 53.1494 604.259 53.0218 604.259 52.8494V52.8196C604.259 52.4451 604.148 52.1551 603.926 51.9496C603.704 51.7441 603.384 51.6413 602.966 51.6413C602.526 51.6413 602.176 51.7375 601.917 51.9297C601.662 52.1219 601.49 52.349 601.4 52.6108L599.72 52.3722C599.853 51.9081 600.071 51.5204 600.376 51.2088C600.681 50.8939 601.054 50.6586 601.495 50.5028C601.936 50.3438 602.423 50.2642 602.957 50.2642C603.324 50.2642 603.691 50.3073 604.055 50.3935C604.42 50.4796 604.753 50.6222 605.055 50.821C605.356 51.0166 605.598 51.2834 605.78 51.6214C605.966 51.9595 606.059 52.3821 606.059 52.8892V58H604.329V56.951H604.269C604.16 57.1631 604.006 57.362 603.807 57.5476C603.611 57.7299 603.364 57.8774 603.066 57.9901C602.771 58.0994 602.425 58.1541 602.027 58.1541ZM602.494 56.8317C602.855 56.8317 603.169 56.7604 603.434 56.6179C603.699 56.4721 603.903 56.2798 604.045 56.0412C604.191 55.8026 604.264 55.5424 604.264 55.2607V54.3608C604.208 54.4072 604.112 54.4503 603.976 54.4901C603.843 54.5298 603.694 54.5646 603.528 54.5945C603.363 54.6243 603.198 54.6508 603.036 54.674C602.874 54.6972 602.733 54.7171 602.613 54.7337C602.345 54.7701 602.105 54.8298 601.893 54.9126C601.68 54.9955 601.513 55.1115 601.39 55.2607C601.268 55.4065 601.207 55.5954 601.207 55.8274C601.207 56.1589 601.328 56.4091 601.569 56.5781C601.811 56.7472 602.12 56.8317 602.494 56.8317ZM613.204 52.3821L611.563 52.5611C611.517 52.3954 611.436 52.2396 611.32 52.0938C611.207 51.9479 611.055 51.8303 610.862 51.7408C610.67 51.6513 610.435 51.6065 610.156 51.6065C609.782 51.6065 609.467 51.6877 609.212 51.8501C608.96 52.0125 608.836 52.223 608.839 52.4815C608.836 52.7036 608.917 52.8842 609.083 53.0234C609.252 53.1626 609.53 53.277 609.918 53.3665L611.22 53.6449C611.943 53.8007 612.48 54.0476 612.831 54.3857C613.186 54.7237 613.365 55.1662 613.368 55.7131C613.365 56.1937 613.224 56.6179 612.945 56.9858C612.67 57.3504 612.288 57.6354 611.797 57.8409C611.306 58.0464 610.743 58.1491 610.107 58.1491C609.172 58.1491 608.42 57.9536 607.85 57.5625C607.279 57.1681 606.94 56.6196 606.83 55.9169L608.585 55.7479C608.665 56.0926 608.834 56.3527 609.092 56.5284C609.351 56.7041 609.687 56.7919 610.102 56.7919C610.529 56.7919 610.872 56.7041 611.131 56.5284C611.393 56.3527 611.524 56.1357 611.524 55.8771C611.524 55.6584 611.439 55.4777 611.27 55.3352C611.104 55.1927 610.846 55.0833 610.494 55.0071L609.192 54.7337C608.459 54.5812 607.918 54.3243 607.566 53.9631C607.215 53.5985 607.041 53.1378 607.044 52.581C607.041 52.1103 607.168 51.7027 607.427 51.358C607.689 51.0099 608.052 50.7415 608.516 50.5526C608.983 50.3603 609.522 50.2642 610.132 50.2642C611.026 50.2642 611.731 50.4548 612.244 50.8359C612.762 51.2171 613.081 51.7325 613.204 52.3821ZM615.952 53.5256V58H614.152V47.8182H615.912V51.6612H616.001C616.18 51.2304 616.457 50.8906 616.832 50.642C617.21 50.3902 617.69 50.2642 618.274 50.2642C618.804 50.2642 619.266 50.3752 619.661 50.5973C620.055 50.8194 620.36 51.1442 620.575 51.5717C620.794 51.9993 620.903 52.5213 620.903 53.1378V58H619.104V53.4162C619.104 52.9025 618.971 52.5031 618.706 52.218C618.444 51.9297 618.076 51.7855 617.602 51.7855C617.284 51.7855 616.999 51.8551 616.747 51.9943C616.499 52.1302 616.303 52.3274 616.161 52.5859C616.021 52.8445 615.952 53.1577 615.952 53.5256Z" fill="#626262" id="arrows"/>
<rect x="565" y="31" width="80" height="43" rx="9" stroke="#606060" stroke-width="2"/>
<path d="M576.175 423.818H578.432L581.455 431.196H581.574L584.597 423.818H586.854V434H585.084V427.005H584.99L582.176 433.97H580.853L578.039 426.99H577.945V434H576.175V423.818ZM591.464 434.149C590.698 434.149 590.037 433.99 589.48 433.672C588.926 433.35 588.501 432.896 588.202 432.31C587.904 431.72 587.755 431.025 587.755 430.227C587.755 429.441 587.904 428.752 588.202 428.158C588.504 427.562 588.925 427.098 589.465 426.766C590.005 426.432 590.64 426.264 591.369 426.264C591.84 426.264 592.284 426.34 592.702 426.493C593.122 426.642 593.494 426.874 593.815 427.189C594.14 427.504 594.395 427.905 594.581 428.392C594.766 428.876 594.859 429.453 594.859 430.122V430.674H588.6V429.461H593.134C593.131 429.116 593.056 428.81 592.91 428.541C592.765 428.269 592.561 428.056 592.299 427.9C592.04 427.744 591.739 427.666 591.394 427.666C591.026 427.666 590.703 427.756 590.425 427.935C590.146 428.11 589.929 428.342 589.773 428.631C589.621 428.916 589.543 429.229 589.54 429.57V430.629C589.54 431.073 589.621 431.455 589.783 431.773C589.946 432.088 590.173 432.33 590.464 432.499C590.756 432.664 591.097 432.747 591.488 432.747C591.75 432.747 591.987 432.711 592.199 432.638C592.412 432.562 592.595 432.451 592.751 432.305C592.907 432.159 593.025 431.978 593.104 431.763L594.785 431.952C594.679 432.396 594.476 432.784 594.178 433.115C593.883 433.443 593.505 433.698 593.045 433.881C592.584 434.06 592.057 434.149 591.464 434.149ZM599.495 426.364V427.756H595.105V426.364H599.495ZM596.189 424.534H597.989V431.703C597.989 431.945 598.025 432.131 598.098 432.26C598.174 432.386 598.274 432.472 598.396 432.518C598.519 432.565 598.655 432.588 598.804 432.588C598.917 432.588 599.019 432.58 599.112 432.563C599.208 432.547 599.281 432.532 599.331 432.518L599.634 433.925C599.538 433.959 599.4 433.995 599.222 434.035C599.046 434.075 598.83 434.098 598.575 434.104C598.124 434.118 597.718 434.05 597.357 433.901C596.996 433.748 596.709 433.513 596.497 433.195C596.288 432.876 596.186 432.479 596.189 432.001V424.534ZM602.498 434.154C602.014 434.154 601.578 434.068 601.19 433.896C600.806 433.72 600.501 433.461 600.275 433.12C600.053 432.779 599.942 432.358 599.942 431.857C599.942 431.426 600.022 431.07 600.181 430.788C600.34 430.507 600.557 430.281 600.832 430.112C601.107 429.943 601.417 429.816 601.762 429.729C602.11 429.64 602.469 429.575 602.841 429.536C603.288 429.489 603.651 429.448 603.929 429.411C604.208 429.371 604.41 429.312 604.536 429.232C604.665 429.149 604.73 429.022 604.73 428.849V428.82C604.73 428.445 604.619 428.155 604.397 427.95C604.175 427.744 603.855 427.641 603.437 427.641C602.996 427.641 602.647 427.737 602.388 427.93C602.133 428.122 601.961 428.349 601.871 428.611L600.191 428.372C600.323 427.908 600.542 427.52 600.847 427.209C601.152 426.894 601.525 426.659 601.966 426.503C602.406 426.344 602.894 426.264 603.427 426.264C603.795 426.264 604.161 426.307 604.526 426.393C604.891 426.48 605.224 426.622 605.525 426.821C605.827 427.017 606.069 427.283 606.251 427.621C606.437 427.96 606.53 428.382 606.53 428.889V434H604.799V432.951H604.74C604.63 433.163 604.476 433.362 604.277 433.548C604.082 433.73 603.835 433.877 603.537 433.99C603.242 434.099 602.895 434.154 602.498 434.154ZM602.965 432.832C603.326 432.832 603.639 432.76 603.905 432.618C604.17 432.472 604.373 432.28 604.516 432.041C604.662 431.803 604.735 431.542 604.735 431.261V430.361C604.678 430.407 604.582 430.45 604.446 430.49C604.314 430.53 604.165 430.565 603.999 430.594C603.833 430.624 603.669 430.651 603.507 430.674C603.344 430.697 603.204 430.717 603.084 430.734C602.816 430.77 602.575 430.83 602.363 430.913C602.151 430.996 601.984 431.112 601.861 431.261C601.739 431.406 601.677 431.595 601.677 431.827C601.677 432.159 601.798 432.409 602.04 432.578C602.282 432.747 602.59 432.832 602.965 432.832ZM610.473 434.134C609.873 434.134 609.336 433.98 608.862 433.672C608.388 433.364 608.014 432.916 607.739 432.33C607.464 431.743 607.326 431.03 607.326 430.192C607.326 429.343 607.465 428.627 607.744 428.044C608.025 427.457 608.405 427.015 608.882 426.717C609.359 426.415 609.891 426.264 610.478 426.264C610.925 426.264 611.293 426.34 611.582 426.493C611.87 426.642 612.099 426.823 612.268 427.035C612.437 427.244 612.568 427.441 612.66 427.626H612.735V423.818H614.54V434H612.77V432.797H612.66C612.568 432.982 612.433 433.18 612.258 433.388C612.082 433.594 611.85 433.77 611.562 433.915C611.273 434.061 610.91 434.134 610.473 434.134ZM610.975 432.658C611.356 432.658 611.681 432.555 611.95 432.349C612.218 432.141 612.422 431.851 612.561 431.479C612.7 431.108 612.77 430.676 612.77 430.182C612.77 429.688 612.7 429.259 612.561 428.894C612.425 428.53 612.223 428.246 611.955 428.044C611.689 427.842 611.363 427.741 610.975 427.741C610.574 427.741 610.239 427.845 609.971 428.054C609.702 428.263 609.5 428.551 609.364 428.919C609.228 429.287 609.16 429.708 609.16 430.182C609.16 430.659 609.228 431.085 609.364 431.46C609.504 431.831 609.707 432.124 609.976 432.339C610.248 432.552 610.581 432.658 610.975 432.658ZM617.955 434.154C617.471 434.154 617.035 434.068 616.647 433.896C616.263 433.72 615.958 433.461 615.733 433.12C615.511 432.779 615.4 432.358 615.4 431.857C615.4 431.426 615.479 431.07 615.638 430.788C615.797 430.507 616.014 430.281 616.289 430.112C616.565 429.943 616.874 429.816 617.219 429.729C617.567 429.64 617.927 429.575 618.298 429.536C618.745 429.489 619.108 429.448 619.387 429.411C619.665 429.371 619.867 429.312 619.993 429.232C620.123 429.149 620.187 429.022 620.187 428.849V428.82C620.187 428.445 620.076 428.155 619.854 427.95C619.632 427.744 619.312 427.641 618.895 427.641C618.454 427.641 618.104 427.737 617.846 427.93C617.59 428.122 617.418 428.349 617.329 428.611L615.648 428.372C615.781 427.908 615.999 427.52 616.304 427.209C616.609 426.894 616.982 426.659 617.423 426.503C617.864 426.344 618.351 426.264 618.885 426.264C619.253 426.264 619.619 426.307 619.983 426.393C620.348 426.48 620.681 426.622 620.983 426.821C621.284 427.017 621.526 427.283 621.709 427.621C621.894 427.96 621.987 428.382 621.987 428.889V434H620.257V432.951H620.197C620.088 433.163 619.934 433.362 619.735 433.548C619.539 433.73 619.292 433.877 618.994 433.99C618.699 434.099 618.353 434.154 617.955 434.154ZM618.422 432.832C618.784 432.832 619.097 432.76 619.362 432.618C619.627 432.472 619.831 432.28 619.973 432.041C620.119 431.803 620.192 431.542 620.192 431.261V430.361C620.136 430.407 620.04 430.45 619.904 430.49C619.771 430.53 619.622 430.565 619.456 430.594C619.291 430.624 619.127 430.651 618.964 430.674C618.802 430.697 618.661 430.717 618.542 430.734C618.273 430.77 618.033 430.83 617.821 430.913C617.609 430.996 617.441 431.112 617.319 431.261C617.196 431.406 617.135 431.595 617.135 431.827C617.135 432.159 617.256 432.409 617.498 432.578C617.74 432.747 618.048 432.832 618.422 432.832ZM626.91 426.364V427.756H622.52V426.364H626.91ZM623.604 424.534H625.403V431.703C625.403 431.945 625.44 432.131 625.513 432.26C625.589 432.386 625.688 432.472 625.811 432.518C625.934 432.565 626.07 432.588 626.219 432.588C626.331 432.588 626.434 432.58 626.527 432.563C626.623 432.547 626.696 432.532 626.746 432.518L627.049 433.925C626.953 433.959 626.815 433.995 626.636 434.035C626.461 434.075 626.245 434.098 625.99 434.104C625.539 434.118 625.133 434.05 624.772 433.901C624.411 433.748 624.124 433.513 623.912 433.195C623.703 432.876 623.6 432.479 623.604 432.001V424.534ZM629.912 434.154C629.428 434.154 628.993 434.068 628.605 433.896C628.22 433.72 627.915 433.461 627.69 433.12C627.468 432.779 627.357 432.358 627.357 431.857C627.357 431.426 627.437 431.07 627.596 430.788C627.755 430.507 627.972 430.281 628.247 430.112C628.522 429.943 628.832 429.816 629.177 429.729C629.525 429.64 629.884 429.575 630.255 429.536C630.703 429.489 631.066 429.448 631.344 429.411C631.623 429.371 631.825 429.312 631.951 429.232C632.08 429.149 632.145 429.022 632.145 428.849V428.82C632.145 428.445 632.034 428.155 631.812 427.95C631.589 427.744 631.27 427.641 630.852 427.641C630.411 427.641 630.062 427.737 629.803 427.93C629.548 428.122 629.375 428.349 629.286 428.611L627.606 428.372C627.738 427.908 627.957 427.52 628.262 427.209C628.567 426.894 628.94 426.659 629.38 426.503C629.821 426.344 630.308 426.264 630.842 426.264C631.21 426.264 631.576 426.307 631.941 426.393C632.305 426.48 632.638 426.622 632.94 426.821C633.242 427.017 633.484 427.283 633.666 427.621C633.852 427.96 633.944 428.382 633.944 428.889V434H632.214V432.951H632.155C632.045 433.163 631.891 433.362 631.692 433.548C631.497 433.73 631.25 433.877 630.951 433.99C630.656 434.099 630.31 434.154 629.912 434.154ZM630.38 432.832C630.741 432.832 631.054 432.76 631.319 432.618C631.585 432.472 631.788 432.28 631.931 432.041C632.077 431.803 632.15 431.542 632.15 431.261V430.361C632.093 430.407 631.997 430.45 631.861 430.49C631.729 430.53 631.58 430.565 631.414 430.594C631.248 430.624 631.084 430.651 630.922 430.674C630.759 430.697 630.618 430.717 630.499 430.734C630.231 430.77 629.99 430.83 629.778 430.913C629.566 430.996 629.399 431.112 629.276 431.261C629.153 431.406 629.092 431.595 629.092 431.827C629.092 432.159 629.213 432.409 629.455 432.578C629.697 432.747 630.005 432.832 630.38 432.832Z" fill="#626262" id="arrows"/>
<rect x="565" y="407" width="80" height="43" rx="9" stroke="#606060" stroke-width="2" />
<path d="M582.088 224V213.818H588.71V215.364H583.932V218.129H588.367V219.675H583.932V222.454H588.75V224H582.088ZM591.612 219.526V224H589.812V216.364H591.532V217.661H591.622C591.797 217.234 592.077 216.894 592.462 216.642C592.85 216.39 593.329 216.264 593.899 216.264C594.426 216.264 594.885 216.377 595.276 216.602C595.67 216.828 595.975 217.154 596.191 217.582C596.409 218.009 596.517 218.528 596.514 219.138V224H594.714V219.416C594.714 218.906 594.581 218.506 594.316 218.218C594.054 217.93 593.692 217.786 593.228 217.786C592.913 217.786 592.633 217.855 592.387 217.994C592.145 218.13 591.955 218.327 591.816 218.586C591.68 218.844 591.612 219.158 591.612 219.526ZM600.974 224.149C600.212 224.149 599.557 223.982 599.01 223.647C598.467 223.312 598.048 222.85 597.753 222.26C597.461 221.667 597.315 220.984 597.315 220.212C597.315 219.436 597.464 218.752 597.763 218.158C598.061 217.562 598.482 217.098 599.025 216.766C599.572 216.432 600.219 216.264 600.964 216.264C601.584 216.264 602.133 216.379 602.61 216.607C603.09 216.833 603.473 217.152 603.758 217.567C604.043 217.978 604.206 218.458 604.246 219.009H602.525C602.456 218.641 602.29 218.334 602.028 218.089C601.77 217.84 601.423 217.716 600.989 217.716C600.621 217.716 600.298 217.815 600.02 218.014C599.741 218.21 599.524 218.491 599.368 218.859C599.216 219.227 599.14 219.668 599.14 220.182C599.14 220.702 599.216 221.15 599.368 221.524C599.521 221.895 599.735 222.182 600.01 222.384C600.288 222.583 600.615 222.683 600.989 222.683C601.254 222.683 601.491 222.633 601.7 222.533C601.912 222.431 602.09 222.283 602.232 222.091C602.375 221.899 602.472 221.665 602.525 221.39H604.246C604.202 221.93 604.043 222.409 603.768 222.827C603.493 223.241 603.119 223.566 602.645 223.801C602.171 224.033 601.614 224.149 600.974 224.149ZM605.023 224V216.364H606.768V217.636H606.848C606.987 217.196 607.226 216.856 607.564 216.617C607.905 216.375 608.295 216.254 608.732 216.254C608.832 216.254 608.943 216.259 609.065 216.269C609.191 216.276 609.296 216.287 609.378 216.304V217.96C609.302 217.933 609.181 217.91 609.016 217.89C608.853 217.867 608.696 217.855 608.543 217.855C608.215 217.855 607.92 217.926 607.658 218.069C607.4 218.208 607.196 218.402 607.047 218.651C606.898 218.899 606.823 219.186 606.823 219.511V224H605.023ZM611.225 226.864C610.98 226.864 610.753 226.844 610.544 226.804C610.339 226.768 610.174 226.724 610.052 226.675L610.469 225.273C610.731 225.349 610.965 225.385 611.17 225.382C611.376 225.379 611.557 225.314 611.712 225.188C611.871 225.066 612.006 224.86 612.115 224.572L612.269 224.159L609.5 216.364H611.409L613.169 222.131H613.249L615.014 216.364H616.928L613.87 224.925C613.728 225.329 613.539 225.675 613.303 225.964C613.068 226.255 612.78 226.478 612.438 226.63C612.1 226.786 611.696 226.864 611.225 226.864ZM617.473 226.864V216.364H619.243V217.626H619.347C619.44 217.441 619.571 217.244 619.74 217.035C619.909 216.823 620.138 216.642 620.426 216.493C620.714 216.34 621.082 216.264 621.53 216.264C622.12 216.264 622.652 216.415 623.126 216.717C623.603 217.015 623.981 217.457 624.259 218.044C624.541 218.627 624.682 219.343 624.682 220.192C624.682 221.03 624.544 221.743 624.269 222.33C623.994 222.916 623.62 223.364 623.146 223.672C622.672 223.98 622.135 224.134 621.535 224.134C621.097 224.134 620.734 224.061 620.446 223.915C620.158 223.77 619.926 223.594 619.75 223.388C619.578 223.18 619.443 222.982 619.347 222.797H619.273V226.864H617.473ZM619.238 220.182C619.238 220.676 619.307 221.108 619.447 221.479C619.589 221.851 619.793 222.141 620.058 222.349C620.327 222.555 620.651 222.658 621.033 222.658C621.43 222.658 621.763 222.552 622.032 222.339C622.3 222.124 622.503 221.831 622.638 221.46C622.778 221.085 622.847 220.659 622.847 220.182C622.847 219.708 622.779 219.287 622.643 218.919C622.508 218.551 622.305 218.263 622.037 218.054C621.768 217.845 621.434 217.741 621.033 217.741C620.648 217.741 620.322 217.842 620.053 218.044C619.785 218.246 619.581 218.53 619.442 218.894C619.306 219.259 619.238 219.688 619.238 220.182ZM629.336 216.364V217.756H624.946V216.364H629.336ZM626.03 214.534H627.83V221.703C627.83 221.945 627.866 222.131 627.939 222.26C628.015 222.386 628.115 222.472 628.237 222.518C628.36 222.565 628.496 222.588 628.645 222.588C628.758 222.588 628.861 222.58 628.953 222.563C629.049 222.547 629.122 222.532 629.172 222.518L629.475 223.925C629.379 223.959 629.242 223.995 629.063 224.035C628.887 224.075 628.672 224.098 628.416 224.104C627.966 224.118 627.56 224.05 627.198 223.901C626.837 223.748 626.55 223.513 626.338 223.195C626.129 222.876 626.027 222.479 626.03 222.001V214.534Z" fill="#626262" id="arrows"/>
<rect x="565" y="197" width="80" height="43" rx="9" stroke="#606060" stroke-width="2" />
<path d="M216 53L556 53" stroke="#606060" stroke-width="2" stroke-linecap="round" stroke-dasharray="2 2" />
<path d="M539 219L556 219" stroke="#606060" stroke-width="2" stroke-dasharray="2 2"/>
<path d="M539 429L556 429" stroke="#606060" stroke-width="2" stroke-dasharray="2 2" id="arrows"/>
<path d="M48 484.9L48 388.1C48 379.63 68.88 376 84 376C98.4 376 120 379.63 120 388.1L120 484.9C120 493.37 98.4 497 84 497C68.88 497 48 493.37 48 484.9Z" fill="white"/>
<path d="M48 388.1C48 397.78 48 476.43 48 484.9C48 493.37 68.88 497 84 497C98.4 497 120 493.37 120 484.9C120 476.43 120 388.1 120 388.1M48 388.1C48 379.63 68.88 376 84 376C98.4 376 120 379.63 120 388.1M48 388.1C48 396.57 68.88 400.2 84 400.2C98.4 400.2 120 396.57 120 388.1" stroke="#459B01" stroke-width="4"/>
<path d="M169 484.9L169 388.1C169 379.63 189.88 376 205 376C219.4 376 241 379.63 241 388.1L241 484.9C241 493.37 219.4 497 205 497C189.88 497 169 493.37 169 484.9Z" fill="white"/>
<path d="M169 388.1C169 397.78 169 476.43 169 484.9C169 493.37 189.88 497 205 497C219.4 497 241 493.37 241 484.9C241 476.43 241 388.1 241 388.1M169 388.1C169 379.63 189.88 376 205 376C219.4 376 241 379.63 241 388.1M169 388.1C169 396.57 189.88 400.2 205 400.2C219.4 400.2 241 396.57 241 388.1" stroke="#459B01" stroke-width="4"/>
<path d="M290 484.9L290 388.1C290 379.63 310.88 376 326 376C340.4 376 362 379.63 362 388.1V484.9C362 493.37 340.4 497 326 497C310.88 497 290 493.37 290 484.9Z" fill="white"/>
<path d="M290 388.1C290 397.78 290 476.43 290 484.9C290 493.37 310.88 497 326 497C340.4 497 362 493.37 362 484.9C362 476.43 362 388.1 362 388.1M290 388.1C290 379.63 310.88 376 326 376C340.4 376 362 379.63 362 388.1M290 388.1C290 396.57 310.88 400.2 326 400.2C340.4 400.2 362 396.57 362 388.1" stroke="#459B01" stroke-width="4"/>
<path d="M411 484.9L411 388.1C411 379.63 431.88 376 447 376C461.4 376 483 379.63 483 388.1V484.9C483 493.37 461.4 497 447 497C431.88 497 411 493.37 411 484.9Z" fill="white"/>
<path d="M411 388.1C411 397.78 411 476.43 411 484.9C411 493.37 431.88 497 447 497C461.4 497 483 493.37 483 484.9C483 476.43 483 388.1 483 388.1M411 388.1C411 379.63 431.88 376 447 376C461.4 376 483 379.63 483 388.1M411 388.1C411 396.57 431.88 400.2 447 400.2C461.4 400.2 483 396.57 483 388.1" stroke="#459B01" stroke-width="4"/>
</svg>
