<svg width="687" height="291" viewBox="0 0 687 291" fill="none" xmlns="http://www.w3.org/2000/svg">
<rect width="687" height="291"/>
<path d="M11 187H199C203.971 187 208 191.029 208 196V280C208 284.971 203.971 289 199 289H11C6.02944 289 2 284.971 2 280V196C2 191.029 6.02944 187 11 187Z" fill="#5A9CFF" fill-opacity="0.5" stroke="#5A9CFF" stroke-width="4"/>
<path d="M488 187H676C680.971 187 685 191.029 685 196V280C685 284.971 680.971 289 676 289H488C483.029 289 479 284.971 479 280V196C479 191.029 483.029 187 488 187Z" fill="#5A9CFF" fill-opacity="0.5" stroke="#5A9CFF" stroke-width="4"/>
<rect x="489" y="198" width="48" height="24" rx="7" fill="white"/>
<path d="M502.734 215H499.284V204.818H502.804C503.815 204.818 504.683 205.022 505.409 205.43C506.138 205.834 506.698 206.416 507.089 207.175C507.48 207.934 507.676 208.842 507.676 209.899C507.676 210.96 507.479 211.871 507.084 212.634C506.693 213.396 506.128 213.981 505.389 214.388C504.653 214.796 503.768 215 502.734 215ZM501.128 213.404H502.645C503.354 213.404 503.945 213.275 504.419 213.016C504.893 212.754 505.25 212.365 505.488 211.848C505.727 211.328 505.846 210.678 505.846 209.899C505.846 209.12 505.727 208.474 505.488 207.96C505.25 207.443 504.897 207.057 504.429 206.802C503.965 206.543 503.389 206.414 502.699 206.414H501.128V213.404ZM510.846 215.154C510.362 215.154 509.926 215.068 509.539 214.896C509.154 214.72 508.849 214.461 508.624 214.12C508.402 213.779 508.291 213.358 508.291 212.857C508.291 212.426 508.37 212.07 508.529 211.788C508.689 211.507 508.906 211.281 509.181 211.112C509.456 210.943 509.766 210.816 510.11 210.729C510.458 210.64 510.818 210.575 511.189 210.536C511.637 210.489 512 210.448 512.278 210.411C512.556 210.371 512.759 210.312 512.885 210.232C513.014 210.149 513.078 210.022 513.078 209.849V209.82C513.078 209.445 512.967 209.155 512.745 208.95C512.523 208.744 512.203 208.641 511.786 208.641C511.345 208.641 510.995 208.737 510.737 208.93C510.482 209.122 510.309 209.349 510.22 209.611L508.539 209.372C508.672 208.908 508.891 208.52 509.196 208.209C509.501 207.894 509.873 207.659 510.314 207.503C510.755 207.344 511.242 207.264 511.776 207.264C512.144 207.264 512.51 207.307 512.875 207.393C513.239 207.48 513.572 207.622 513.874 207.821C514.175 208.017 514.417 208.283 514.6 208.621C514.785 208.96 514.878 209.382 514.878 209.889V215H513.148V213.951H513.088C512.979 214.163 512.825 214.362 512.626 214.548C512.43 214.73 512.184 214.877 511.885 214.99C511.59 215.099 511.244 215.154 510.846 215.154ZM511.314 213.832C511.675 213.832 511.988 213.76 512.253 213.618C512.518 213.472 512.722 213.28 512.865 213.041C513.01 212.803 513.083 212.542 513.083 212.261V211.361C513.027 211.407 512.931 211.45 512.795 211.49C512.662 211.53 512.513 211.565 512.348 211.594C512.182 211.624 512.018 211.651 511.855 211.674C511.693 211.697 511.552 211.717 511.433 211.734C511.164 211.77 510.924 211.83 510.712 211.913C510.5 211.996 510.332 212.112 510.21 212.261C510.087 212.406 510.026 212.595 510.026 212.827C510.026 213.159 510.147 213.409 510.389 213.578C510.631 213.747 510.939 213.832 511.314 213.832ZM519.801 207.364V208.756H515.411V207.364H519.801ZM516.495 205.534H518.295V212.703C518.295 212.945 518.331 213.131 518.404 213.26C518.48 213.386 518.58 213.472 518.702 213.518C518.825 213.565 518.961 213.588 519.11 213.588C519.223 213.588 519.325 213.58 519.418 213.563C519.514 213.547 519.587 213.532 519.637 213.518L519.94 214.925C519.844 214.959 519.707 214.995 519.528 215.035C519.352 215.075 519.136 215.098 518.881 215.104C518.431 215.118 518.024 215.05 517.663 214.901C517.302 214.748 517.015 214.513 516.803 214.195C516.594 213.876 516.492 213.479 516.495 213.001V205.534ZM522.804 215.154C522.32 215.154 521.884 215.068 521.496 214.896C521.112 214.72 520.807 214.461 520.581 214.12C520.359 213.779 520.248 213.358 520.248 212.857C520.248 212.426 520.328 212.07 520.487 211.788C520.646 211.507 520.863 211.281 521.138 211.112C521.413 210.943 521.723 210.816 522.068 210.729C522.416 210.64 522.775 210.575 523.147 210.536C523.594 210.489 523.957 210.448 524.235 210.411C524.514 210.371 524.716 210.312 524.842 210.232C524.971 210.149 525.036 210.022 525.036 209.849V209.82C525.036 209.445 524.925 209.155 524.703 208.95C524.481 208.744 524.161 208.641 523.743 208.641C523.302 208.641 522.953 208.737 522.694 208.93C522.439 209.122 522.267 209.349 522.177 209.611L520.497 209.372C520.629 208.908 520.848 208.52 521.153 208.209C521.458 207.894 521.831 207.659 522.272 207.503C522.712 207.344 523.2 207.264 523.733 207.264C524.101 207.264 524.467 207.307 524.832 207.393C525.197 207.48 525.53 207.622 525.831 207.821C526.133 208.017 526.375 208.283 526.557 208.621C526.743 208.96 526.836 209.382 526.836 209.889V215H525.105V213.951H525.046C524.936 214.163 524.782 214.362 524.583 214.548C524.388 214.73 524.141 214.877 523.843 214.99C523.548 215.099 523.201 215.154 522.804 215.154ZM523.271 213.832C523.632 213.832 523.945 213.76 524.211 213.618C524.476 213.472 524.68 213.28 524.822 213.041C524.968 212.803 525.041 212.542 525.041 212.261V211.361C524.984 211.407 524.888 211.45 524.752 211.49C524.62 211.53 524.471 211.565 524.305 211.594C524.139 211.624 523.975 211.651 523.813 211.674C523.65 211.697 523.51 211.717 523.39 211.734C523.122 211.77 522.881 211.83 522.669 211.913C522.457 211.996 522.29 212.112 522.167 212.261C522.045 212.406 521.983 212.595 521.983 212.827C521.983 213.159 522.104 213.409 522.346 213.578C522.588 213.747 522.896 213.832 523.271 213.832Z" fill="#4B82D3"/>
<path d="M249 187H437C441.971 187 446 191.029 446 196V280C446 284.971 441.971 289 437 289H249C244.029 289 240 284.971 240 280V196C240 191.029 244.029 187 249 187Z" fill="#5A9CFF" fill-opacity="0.5" stroke="#5A9CFF" stroke-width="4"/>
<rect x="251" y="198" width="48" height="24" rx="7" fill="white"/>
<path d="M264.734 215H261.284V204.818H264.804C265.815 204.818 266.683 205.022 267.409 205.43C268.138 205.834 268.698 206.416 269.089 207.175C269.48 207.934 269.676 208.842 269.676 209.899C269.676 210.96 269.479 211.871 269.084 212.634C268.693 213.396 268.128 213.981 267.389 214.388C266.653 214.796 265.768 215 264.734 215ZM263.128 213.404H264.645C265.354 213.404 265.945 213.275 266.419 213.016C266.893 212.754 267.25 212.365 267.488 211.848C267.727 211.328 267.846 210.678 267.846 209.899C267.846 209.12 267.727 208.474 267.488 207.96C267.25 207.443 266.897 207.057 266.429 206.802C265.965 206.543 265.389 206.414 264.699 206.414H263.128V213.404ZM272.846 215.154C272.362 215.154 271.926 215.068 271.539 214.896C271.154 214.72 270.849 214.461 270.624 214.12C270.402 213.779 270.291 213.358 270.291 212.857C270.291 212.426 270.37 212.07 270.529 211.788C270.689 211.507 270.906 211.281 271.181 211.112C271.456 210.943 271.766 210.816 272.11 210.729C272.458 210.64 272.818 210.575 273.189 210.536C273.637 210.489 274 210.448 274.278 210.411C274.556 210.371 274.759 210.312 274.885 210.232C275.014 210.149 275.078 210.022 275.078 209.849V209.82C275.078 209.445 274.967 209.155 274.745 208.95C274.523 208.744 274.203 208.641 273.786 208.641C273.345 208.641 272.995 208.737 272.737 208.93C272.482 209.122 272.309 209.349 272.22 209.611L270.539 209.372C270.672 208.908 270.891 208.52 271.196 208.209C271.501 207.894 271.873 207.659 272.314 207.503C272.755 207.344 273.242 207.264 273.776 207.264C274.144 207.264 274.51 207.307 274.875 207.393C275.239 207.48 275.572 207.622 275.874 207.821C276.175 208.017 276.417 208.283 276.6 208.621C276.785 208.96 276.878 209.382 276.878 209.889V215H275.148V213.951H275.088C274.979 214.163 274.825 214.362 274.626 214.548C274.43 214.73 274.184 214.877 273.885 214.99C273.59 215.099 273.244 215.154 272.846 215.154ZM273.314 213.832C273.675 213.832 273.988 213.76 274.253 213.618C274.518 213.472 274.722 213.28 274.865 213.041C275.01 212.803 275.083 212.542 275.083 212.261V211.361C275.027 211.407 274.931 211.45 274.795 211.49C274.662 211.53 274.513 211.565 274.348 211.594C274.182 211.624 274.018 211.651 273.855 211.674C273.693 211.697 273.552 211.717 273.433 211.734C273.164 211.77 272.924 211.83 272.712 211.913C272.5 211.996 272.332 212.112 272.21 212.261C272.087 212.406 272.026 212.595 272.026 212.827C272.026 213.159 272.147 213.409 272.389 213.578C272.631 213.747 272.939 213.832 273.314 213.832ZM281.801 207.364V208.756H277.411V207.364H281.801ZM278.495 205.534H280.295V212.703C280.295 212.945 280.331 213.131 280.404 213.26C280.48 213.386 280.58 213.472 280.702 213.518C280.825 213.565 280.961 213.588 281.11 213.588C281.223 213.588 281.325 213.58 281.418 213.563C281.514 213.547 281.587 213.532 281.637 213.518L281.94 214.925C281.844 214.959 281.707 214.995 281.528 215.035C281.352 215.075 281.136 215.098 280.881 215.104C280.431 215.118 280.024 215.05 279.663 214.901C279.302 214.748 279.015 214.513 278.803 214.195C278.594 213.876 278.492 213.479 278.495 213.001V205.534ZM284.804 215.154C284.32 215.154 283.884 215.068 283.496 214.896C283.112 214.72 282.807 214.461 282.581 214.12C282.359 213.779 282.248 213.358 282.248 212.857C282.248 212.426 282.328 212.07 282.487 211.788C282.646 211.507 282.863 211.281 283.138 211.112C283.413 210.943 283.723 210.816 284.068 210.729C284.416 210.64 284.775 210.575 285.147 210.536C285.594 210.489 285.957 210.448 286.235 210.411C286.514 210.371 286.716 210.312 286.842 210.232C286.971 210.149 287.036 210.022 287.036 209.849V209.82C287.036 209.445 286.925 209.155 286.703 208.95C286.481 208.744 286.161 208.641 285.743 208.641C285.302 208.641 284.953 208.737 284.694 208.93C284.439 209.122 284.267 209.349 284.177 209.611L282.497 209.372C282.629 208.908 282.848 208.52 283.153 208.209C283.458 207.894 283.831 207.659 284.272 207.503C284.712 207.344 285.2 207.264 285.733 207.264C286.101 207.264 286.467 207.307 286.832 207.393C287.197 207.48 287.53 207.622 287.831 207.821C288.133 208.017 288.375 208.283 288.557 208.621C288.743 208.96 288.836 209.382 288.836 209.889V215H287.105V213.951H287.046C286.936 214.163 286.782 214.362 286.583 214.548C286.388 214.73 286.141 214.877 285.843 214.99C285.548 215.099 285.201 215.154 284.804 215.154ZM285.271 213.832C285.632 213.832 285.945 213.76 286.211 213.618C286.476 213.472 286.68 213.28 286.822 213.041C286.968 212.803 287.041 212.542 287.041 212.261V211.361C286.984 211.407 286.888 211.45 286.752 211.49C286.62 211.53 286.471 211.565 286.305 211.594C286.139 211.624 285.975 211.651 285.813 211.674C285.65 211.697 285.51 211.717 285.39 211.734C285.122 211.77 284.881 211.83 284.669 211.913C284.457 211.996 284.29 212.112 284.167 212.261C284.045 212.406 283.983 212.595 283.983 212.827C283.983 213.159 284.104 213.409 284.346 213.578C284.588 213.747 284.896 213.832 285.271 213.832Z" fill="#4B82D3"/>
<path d="M165.023 75H163.338C162.88 75 162.5 74.6464 162.5 74.22C162.5 73.7936 162.88 73.44 163.338 73.44H165.023C167.948 73.44 170.326 71.2248 170.326 68.5C170.326 65.7752 167.948 63.56 165.023 63.56H163.349C162.891 63.56 162.512 63.2064 162.512 62.78C162.512 62.3536 162.88 62 163.349 62H165.023C168.874 62 172 64.912 172 68.5C172 72.088 168.874 75 165.023 75Z" fill="#606060"/>
<path d="M156.651 75H154.977C151.126 75 148 72.088 148 68.5C148 64.912 151.126 62 154.977 62H156.651C157.109 62 157.488 62.3536 157.488 62.78C157.488 63.2064 157.109 63.56 156.651 63.56H154.977C152.052 63.56 149.674 65.7752 149.674 68.5C149.674 71.2248 152.052 73.44 154.977 73.44H156.651C157.109 73.44 157.488 73.7936 157.488 74.22C157.488 74.6464 157.109 75 156.651 75Z" fill="#606060"/>
<path d="M164.465 69.28H155.535C155.077 69.28 154.698 68.9264 154.698 68.5C154.698 68.0736 155.077 67.72 155.535 67.72H164.465C164.923 67.72 165.302 68.0736 165.302 68.5C165.302 68.9264 164.923 69.28 164.465 69.28Z" fill="#606060"/>
<path d="M349.023 75H347.338C346.88 75 346.5 74.6464 346.5 74.22C346.5 73.7936 346.88 73.44 347.338 73.44H349.023C351.948 73.44 354.326 71.2248 354.326 68.5C354.326 65.7752 351.948 63.56 349.023 63.56H347.349C346.891 63.56 346.512 63.2064 346.512 62.78C346.512 62.3536 346.88 62 347.349 62H349.023C352.874 62 356 64.912 356 68.5C356 72.088 352.874 75 349.023 75Z" fill="#606060"/>
<path d="M340.651 75H338.977C335.126 75 332 72.088 332 68.5C332 64.912 335.126 62 338.977 62H340.651C341.109 62 341.488 62.3536 341.488 62.78C341.488 63.2064 341.109 63.56 340.651 63.56H338.977C336.052 63.56 333.674 65.7752 333.674 68.5C333.674 71.2248 336.052 73.44 338.977 73.44H340.651C341.109 73.44 341.488 73.7936 341.488 74.22C341.488 74.6464 341.109 75 340.651 75Z" fill="#606060"/>
<path d="M348.465 69.28H339.535C339.077 69.28 338.698 68.9264 338.698 68.5C338.698 68.0736 339.077 67.72 339.535 67.72H348.465C348.923 67.72 349.302 68.0736 349.302 68.5C349.302 68.9264 348.923 69.28 348.465 69.28Z" fill="#606060"/>
<rect x="2" y="2" width="134" height="134" rx="13" fill="#FDC841" fill-opacity="0.42" stroke="#FDC841" stroke-width="4"/>
<rect x="13" y="15" width="48" height="24" rx="7" fill="white"/>
<path d="M22.191 32V21.8182H24.0354V26.1286H28.7535V21.8182H30.6029V32H28.7535V27.6747H24.0354V32H22.191ZM34.0268 32.1541C33.5429 32.1541 33.1071 32.0679 32.7193 31.8956C32.3348 31.7199 32.0299 31.4614 31.8045 31.12C31.5825 30.7786 31.4714 30.3577 31.4714 29.8572C31.4714 29.4264 31.551 29.0701 31.7101 28.7884C31.8692 28.5066 32.0863 28.2812 32.3614 28.1122C32.6365 27.9432 32.9464 27.8156 33.2911 27.7294C33.6391 27.6399 33.9987 27.5753 34.3699 27.5355C34.8173 27.4891 35.1803 27.4477 35.4587 27.4112C35.7371 27.3714 35.9393 27.3118 36.0652 27.2322C36.1945 27.1494 36.2591 27.0218 36.2591 26.8494V26.8196C36.2591 26.4451 36.1481 26.1551 35.926 25.9496C35.7039 25.7441 35.3841 25.6413 34.9665 25.6413C34.5257 25.6413 34.176 25.7375 33.9175 25.9297C33.6623 26.1219 33.4899 26.349 33.4004 26.6108L31.72 26.3722C31.8526 25.9081 32.0714 25.5204 32.3763 25.2088C32.6812 24.8939 33.0541 24.6586 33.4949 24.5028C33.9357 24.3438 34.4229 24.2642 34.9565 24.2642C35.3244 24.2642 35.6907 24.3073 36.0553 24.3935C36.4198 24.4796 36.7529 24.6222 37.0545 24.821C37.3562 25.0166 37.5981 25.2834 37.7804 25.6214C37.966 25.9595 38.0588 26.3821 38.0588 26.8892V32H36.3287V30.951H36.269C36.1597 31.1631 36.0055 31.362 35.8067 31.5476C35.6111 31.7299 35.3642 31.8774 35.0659 31.9901C34.7709 32.0994 34.4246 32.1541 34.0268 32.1541ZM34.4942 30.8317C34.8554 30.8317 35.1687 30.7604 35.4338 30.6179C35.699 30.4721 35.9028 30.2798 36.0453 30.0412C36.1911 29.8026 36.2641 29.5424 36.2641 29.2607V28.3608C36.2077 28.4072 36.1116 28.4503 35.9757 28.4901C35.8431 28.5298 35.694 28.5646 35.5283 28.5945C35.3625 28.6243 35.1985 28.6508 35.0361 28.674C34.8737 28.6972 34.7328 28.7171 34.6135 28.7337C34.345 28.7701 34.1047 28.8298 33.8926 28.9126C33.6805 28.9955 33.5131 29.1115 33.3905 29.2607C33.2678 29.4065 33.2065 29.5954 33.2065 29.8274C33.2065 30.1589 33.3275 30.4091 33.5695 30.5781C33.8114 30.7472 34.1196 30.8317 34.4942 30.8317ZM45.204 26.3821L43.5634 26.5611C43.517 26.3954 43.4357 26.2396 43.3197 26.0938C43.2071 25.9479 43.0546 25.8303 42.8624 25.7408C42.6701 25.6513 42.4348 25.6065 42.1564 25.6065C41.7819 25.6065 41.467 25.6877 41.2118 25.8501C40.9599 26.0125 40.8356 26.223 40.8389 26.4815C40.8356 26.7036 40.9168 26.8842 41.0825 27.0234C41.2516 27.1626 41.53 27.277 41.9178 27.3665L43.2203 27.6449C43.9429 27.8007 44.4798 28.0476 44.8311 28.3857C45.1857 28.7237 45.3647 29.1662 45.368 29.7131C45.3647 30.1937 45.2239 30.6179 44.9455 30.9858C44.6704 31.3504 44.2875 31.6354 43.797 31.8409C43.3065 32.0464 42.743 32.1491 42.1067 32.1491C41.172 32.1491 40.4196 31.9536 39.8496 31.5625C39.2795 31.1681 38.9398 30.6196 38.8304 29.9169L40.5854 29.7479C40.6649 30.0926 40.8339 30.3527 41.0925 30.5284C41.351 30.7041 41.6874 30.7919 42.1017 30.7919C42.5293 30.7919 42.8723 30.7041 43.1308 30.5284C43.3927 30.3527 43.5236 30.1357 43.5236 29.8771C43.5236 29.6584 43.4391 29.4777 43.27 29.3352C43.1043 29.1927 42.8458 29.0833 42.4945 29.0071L41.1919 28.7337C40.4594 28.5812 39.9175 28.3243 39.5662 27.9631C39.2149 27.5985 39.0409 27.1378 39.0442 26.581C39.0409 26.1103 39.1685 25.7027 39.427 25.358C39.6888 25.0099 40.0518 24.7415 40.5158 24.5526C40.9831 24.3603 41.5217 24.2642 42.1315 24.2642C43.0264 24.2642 43.7307 24.4548 44.2445 24.8359C44.7615 25.2171 45.0813 25.7325 45.204 26.3821ZM47.9518 27.5256V32H46.1521V21.8182H47.912V25.6612H48.0015C48.1805 25.2304 48.4572 24.8906 48.8317 24.642C49.2096 24.3902 49.6902 24.2642 50.2735 24.2642C50.8038 24.2642 51.2662 24.3752 51.6606 24.5973C52.055 24.8194 52.3599 25.1442 52.5754 25.5717C52.7941 25.9993 52.9035 26.5213 52.9035 27.1378V32H51.1038V27.4162C51.1038 26.9025 50.9712 26.5031 50.706 26.218C50.4442 25.9297 50.0763 25.7855 49.6023 25.7855C49.2842 25.7855 48.9991 25.8551 48.7472 25.9943C48.4986 26.1302 48.3031 26.3274 48.1606 26.5859C48.0214 26.8445 47.9518 27.1577 47.9518 27.5256Z" fill="#916B00"/>
<rect x="13" y="198" width="48" height="24" rx="7" fill="white"/>
<path d="M26.734 215H23.2838V204.818H26.8036C27.8145 204.818 28.6829 205.022 29.4088 205.43C30.1379 205.834 30.6981 206.416 31.0892 207.175C31.4803 207.934 31.6758 208.842 31.6758 209.899C31.6758 210.96 31.4786 211.871 31.0842 212.634C30.6931 213.396 30.128 213.981 29.3889 214.388C28.6531 214.796 27.7681 215 26.734 215ZM25.1282 213.404H26.6445C27.3538 213.404 27.9454 213.275 28.4194 213.016C28.8934 212.754 29.2497 212.365 29.4883 211.848C29.7269 211.328 29.8463 210.678 29.8463 209.899C29.8463 209.12 29.7269 208.474 29.4883 207.96C29.2497 207.443 28.8967 207.057 28.4294 206.802C27.9653 206.543 27.3886 206.414 26.6992 206.414H25.1282V213.404ZM34.8462 215.154C34.3623 215.154 33.9264 215.068 33.5387 214.896C33.1542 214.72 32.8493 214.461 32.6239 214.12C32.4018 213.779 32.2908 213.358 32.2908 212.857C32.2908 212.426 32.3703 212.07 32.5294 211.788C32.6885 211.507 32.9056 211.281 33.1807 211.112C33.4558 210.943 33.7657 210.816 34.1104 210.729C34.4584 210.64 34.818 210.575 35.1892 210.536C35.6367 210.489 35.9996 210.448 36.278 210.411C36.5564 210.371 36.7586 210.312 36.8845 210.232C37.0138 210.149 37.0784 210.022 37.0784 209.849V209.82C37.0784 209.445 36.9674 209.155 36.7453 208.95C36.5233 208.744 36.2034 208.641 35.7858 208.641C35.345 208.641 34.9953 208.737 34.7368 208.93C34.4816 209.122 34.3093 209.349 34.2198 209.611L32.5394 209.372C32.6719 208.908 32.8907 208.52 33.1956 208.209C33.5005 207.894 33.8734 207.659 34.3142 207.503C34.755 207.344 35.2423 207.264 35.7759 207.264C36.1438 207.264 36.51 207.307 36.8746 207.393C37.2392 207.48 37.5723 207.622 37.8739 207.821C38.1755 208.017 38.4174 208.283 38.5997 208.621C38.7853 208.96 38.8781 209.382 38.8781 209.889V215H37.148V213.951H37.0884C36.979 214.163 36.8249 214.362 36.626 214.548C36.4305 214.73 36.1835 214.877 35.8852 214.99C35.5903 215.099 35.2439 215.154 34.8462 215.154ZM35.3135 213.832C35.6748 213.832 35.988 213.76 36.2531 213.618C36.5183 213.472 36.7221 213.28 36.8646 213.041C37.0105 212.803 37.0834 212.542 37.0834 212.261V211.361C37.0271 211.407 36.9309 211.45 36.795 211.49C36.6625 211.53 36.5133 211.565 36.3476 211.594C36.1819 211.624 36.0178 211.651 35.8554 211.674C35.693 211.697 35.5521 211.717 35.4328 211.734C35.1644 211.77 34.9241 211.83 34.7119 211.913C34.4998 211.996 34.3325 212.112 34.2098 212.261C34.0872 212.406 34.0259 212.595 34.0259 212.827C34.0259 213.159 34.1468 213.409 34.3888 213.578C34.6307 213.747 34.939 213.832 35.3135 213.832ZM43.801 207.364V208.756H39.4111V207.364H43.801ZM40.4949 205.534H42.2946V212.703C42.2946 212.945 42.3311 213.131 42.404 213.26C42.4802 213.386 42.5797 213.472 42.7023 213.518C42.8249 213.565 42.9608 213.588 43.11 213.588C43.2227 213.588 43.3254 213.58 43.4182 213.563C43.5143 213.547 43.5872 213.532 43.637 213.518L43.9402 214.925C43.8441 214.959 43.7066 214.995 43.5276 215.035C43.3519 215.075 43.1365 215.098 42.8813 215.104C42.4305 215.118 42.0245 215.05 41.6632 214.901C41.302 214.748 41.0153 214.513 40.8031 214.195C40.5943 213.876 40.4916 213.479 40.4949 213.001V205.534ZM46.8036 215.154C46.3197 215.154 45.8839 215.068 45.4961 214.896C45.1116 214.72 44.8067 214.461 44.5813 214.12C44.3592 213.779 44.2482 213.358 44.2482 212.857C44.2482 212.426 44.3278 212.07 44.4868 211.788C44.6459 211.507 44.863 211.281 45.1381 211.112C45.4132 210.943 45.7231 210.816 46.0678 210.729C46.4158 210.64 46.7754 210.575 47.1466 210.536C47.5941 210.489 47.957 210.448 48.2354 210.411C48.5138 210.371 48.716 210.312 48.842 210.232C48.9712 210.149 49.0358 210.022 49.0358 209.849V209.82C49.0358 209.445 48.9248 209.155 48.7028 208.95C48.4807 208.744 48.1608 208.641 47.7432 208.641C47.3024 208.641 46.9528 208.737 46.6942 208.93C46.439 209.122 46.2667 209.349 46.1772 209.611L44.4968 209.372C44.6294 208.908 44.8481 208.52 45.153 208.209C45.458 207.894 45.8308 207.659 46.2716 207.503C46.7125 207.344 47.1997 207.264 47.7333 207.264C48.1012 207.264 48.4674 207.307 48.832 207.393C49.1966 207.48 49.5297 207.622 49.8313 207.821C50.1329 208.017 50.3749 208.283 50.5572 208.621C50.7428 208.96 50.8356 209.382 50.8356 209.889V215H49.1055V213.951H49.0458C48.9364 214.163 48.7823 214.362 48.5834 214.548C48.3879 214.73 48.141 214.877 47.8427 214.99C47.5477 215.099 47.2013 215.154 46.8036 215.154ZM47.2709 213.832C47.6322 213.832 47.9454 213.76 48.2106 213.618C48.4757 213.472 48.6796 213.28 48.8221 213.041C48.9679 212.803 49.0408 212.542 49.0408 212.261V211.361C48.9845 211.407 48.8884 211.45 48.7525 211.49C48.6199 211.53 48.4707 211.565 48.305 211.594C48.1393 211.624 47.9752 211.651 47.8128 211.674C47.6504 211.697 47.5096 211.717 47.3903 211.734C47.1218 211.77 46.8815 211.83 46.6694 211.913C46.4573 211.996 46.2899 212.112 46.1672 212.261C46.0446 212.406 45.9833 212.595 45.9833 212.827C45.9833 213.159 46.1043 213.409 46.3462 213.578C46.5882 213.747 46.8964 213.832 47.2709 213.832Z" fill="#4B82D3"/>
<rect x="551" y="2" width="134" height="134" rx="13" fill="#FDC841" fill-opacity="0.42" stroke="#FDC841" stroke-width="4"/>
<rect x="562" y="15" width="48" height="24" rx="7" fill="white"/>
<path d="M571.191 32V21.8182H573.035V26.1286H577.753V21.8182H579.603V32H577.753V27.6747H573.035V32H571.191ZM583.027 32.1541C582.543 32.1541 582.107 32.0679 581.719 31.8956C581.335 31.7199 581.03 31.4614 580.805 31.12C580.582 30.7786 580.471 30.3577 580.471 29.8572C580.471 29.4264 580.551 29.0701 580.71 28.7884C580.869 28.5066 581.086 28.2812 581.361 28.1122C581.636 27.9432 581.946 27.8156 582.291 27.7294C582.639 27.6399 582.999 27.5753 583.37 27.5355C583.817 27.4891 584.18 27.4477 584.459 27.4112C584.737 27.3714 584.939 27.3118 585.065 27.2322C585.194 27.1494 585.259 27.0218 585.259 26.8494V26.8196C585.259 26.4451 585.148 26.1551 584.926 25.9496C584.704 25.7441 584.384 25.6413 583.966 25.6413C583.526 25.6413 583.176 25.7375 582.917 25.9297C582.662 26.1219 582.49 26.349 582.4 26.6108L580.72 26.3722C580.853 25.9081 581.071 25.5204 581.376 25.2088C581.681 24.8939 582.054 24.6586 582.495 24.5028C582.936 24.3438 583.423 24.2642 583.957 24.2642C584.324 24.2642 584.691 24.3073 585.055 24.3935C585.42 24.4796 585.753 24.6222 586.055 24.821C586.356 25.0166 586.598 25.2834 586.78 25.6214C586.966 25.9595 587.059 26.3821 587.059 26.8892V32H585.329V30.951H585.269C585.16 31.1631 585.006 31.362 584.807 31.5476C584.611 31.7299 584.364 31.8774 584.066 31.9901C583.771 32.0994 583.425 32.1541 583.027 32.1541ZM583.494 30.8317C583.855 30.8317 584.169 30.7604 584.434 30.6179C584.699 30.4721 584.903 30.2798 585.045 30.0412C585.191 29.8026 585.264 29.5424 585.264 29.2607V28.3608C585.208 28.4072 585.112 28.4503 584.976 28.4901C584.843 28.5298 584.694 28.5646 584.528 28.5945C584.363 28.6243 584.198 28.6508 584.036 28.674C583.874 28.6972 583.733 28.7171 583.613 28.7337C583.345 28.7701 583.105 28.8298 582.893 28.9126C582.68 28.9955 582.513 29.1115 582.39 29.2607C582.268 29.4065 582.207 29.5954 582.207 29.8274C582.207 30.1589 582.328 30.4091 582.569 30.5781C582.811 30.7472 583.12 30.8317 583.494 30.8317ZM594.204 26.3821L592.563 26.5611C592.517 26.3954 592.436 26.2396 592.32 26.0938C592.207 25.9479 592.055 25.8303 591.862 25.7408C591.67 25.6513 591.435 25.6065 591.156 25.6065C590.782 25.6065 590.467 25.6877 590.212 25.8501C589.96 26.0125 589.836 26.223 589.839 26.4815C589.836 26.7036 589.917 26.8842 590.083 27.0234C590.252 27.1626 590.53 27.277 590.918 27.3665L592.22 27.6449C592.943 27.8007 593.48 28.0476 593.831 28.3857C594.186 28.7237 594.365 29.1662 594.368 29.7131C594.365 30.1937 594.224 30.6179 593.945 30.9858C593.67 31.3504 593.288 31.6354 592.797 31.8409C592.306 32.0464 591.743 32.1491 591.107 32.1491C590.172 32.1491 589.42 31.9536 588.85 31.5625C588.279 31.1681 587.94 30.6196 587.83 29.9169L589.585 29.7479C589.665 30.0926 589.834 30.3527 590.092 30.5284C590.351 30.7041 590.687 30.7919 591.102 30.7919C591.529 30.7919 591.872 30.7041 592.131 30.5284C592.393 30.3527 592.524 30.1357 592.524 29.8771C592.524 29.6584 592.439 29.4777 592.27 29.3352C592.104 29.1927 591.846 29.0833 591.494 29.0071L590.192 28.7337C589.459 28.5812 588.918 28.3243 588.566 27.9631C588.215 27.5985 588.041 27.1378 588.044 26.581C588.041 26.1103 588.168 25.7027 588.427 25.358C588.689 25.0099 589.052 24.7415 589.516 24.5526C589.983 24.3603 590.522 24.2642 591.132 24.2642C592.026 24.2642 592.731 24.4548 593.244 24.8359C593.762 25.2171 594.081 25.7325 594.204 26.3821ZM596.952 27.5256V32H595.152V21.8182H596.912V25.6612H597.001C597.18 25.2304 597.457 24.8906 597.832 24.642C598.21 24.3902 598.69 24.2642 599.274 24.2642C599.804 24.2642 600.266 24.3752 600.661 24.5973C601.055 24.8194 601.36 25.1442 601.575 25.5717C601.794 25.9993 601.903 26.5213 601.903 27.1378V32H600.104V27.4162C600.104 26.9025 599.971 26.5031 599.706 26.218C599.444 25.9297 599.076 25.7855 598.602 25.7855C598.284 25.7855 597.999 25.8551 597.747 25.9943C597.499 26.1302 597.303 26.3274 597.161 26.5859C597.021 26.8445 596.952 27.1577 596.952 27.5256Z" fill="#916B00"/>
<rect x="368" y="2" width="134" height="134" rx="13" fill="#FDC841" fill-opacity="0.42" stroke="#FDC841" stroke-width="4"/>
<rect x="379" y="15" width="48" height="24" rx="7" fill="white"/>
<path d="M388.191 32V21.8182H390.035V26.1286H394.753V21.8182H396.603V32H394.753V27.6747H390.035V32H388.191ZM400.027 32.1541C399.543 32.1541 399.107 32.0679 398.719 31.8956C398.335 31.7199 398.03 31.4614 397.805 31.12C397.582 30.7786 397.471 30.3577 397.471 29.8572C397.471 29.4264 397.551 29.0701 397.71 28.7884C397.869 28.5066 398.086 28.2812 398.361 28.1122C398.636 27.9432 398.946 27.8156 399.291 27.7294C399.639 27.6399 399.999 27.5753 400.37 27.5355C400.817 27.4891 401.18 27.4477 401.459 27.4112C401.737 27.3714 401.939 27.3118 402.065 27.2322C402.194 27.1494 402.259 27.0218 402.259 26.8494V26.8196C402.259 26.4451 402.148 26.1551 401.926 25.9496C401.704 25.7441 401.384 25.6413 400.966 25.6413C400.526 25.6413 400.176 25.7375 399.917 25.9297C399.662 26.1219 399.49 26.349 399.4 26.6108L397.72 26.3722C397.853 25.9081 398.071 25.5204 398.376 25.2088C398.681 24.8939 399.054 24.6586 399.495 24.5028C399.936 24.3438 400.423 24.2642 400.957 24.2642C401.324 24.2642 401.691 24.3073 402.055 24.3935C402.42 24.4796 402.753 24.6222 403.055 24.821C403.356 25.0166 403.598 25.2834 403.78 25.6214C403.966 25.9595 404.059 26.3821 404.059 26.8892V32H402.329V30.951H402.269C402.16 31.1631 402.006 31.362 401.807 31.5476C401.611 31.7299 401.364 31.8774 401.066 31.9901C400.771 32.0994 400.425 32.1541 400.027 32.1541ZM400.494 30.8317C400.855 30.8317 401.169 30.7604 401.434 30.6179C401.699 30.4721 401.903 30.2798 402.045 30.0412C402.191 29.8026 402.264 29.5424 402.264 29.2607V28.3608C402.208 28.4072 402.112 28.4503 401.976 28.4901C401.843 28.5298 401.694 28.5646 401.528 28.5945C401.363 28.6243 401.198 28.6508 401.036 28.674C400.874 28.6972 400.733 28.7171 400.613 28.7337C400.345 28.7701 400.105 28.8298 399.893 28.9126C399.68 28.9955 399.513 29.1115 399.39 29.2607C399.268 29.4065 399.207 29.5954 399.207 29.8274C399.207 30.1589 399.328 30.4091 399.569 30.5781C399.811 30.7472 400.12 30.8317 400.494 30.8317ZM411.204 26.3821L409.563 26.5611C409.517 26.3954 409.436 26.2396 409.32 26.0938C409.207 25.9479 409.055 25.8303 408.862 25.7408C408.67 25.6513 408.435 25.6065 408.156 25.6065C407.782 25.6065 407.467 25.6877 407.212 25.8501C406.96 26.0125 406.836 26.223 406.839 26.4815C406.836 26.7036 406.917 26.8842 407.083 27.0234C407.252 27.1626 407.53 27.277 407.918 27.3665L409.22 27.6449C409.943 27.8007 410.48 28.0476 410.831 28.3857C411.186 28.7237 411.365 29.1662 411.368 29.7131C411.365 30.1937 411.224 30.6179 410.945 30.9858C410.67 31.3504 410.288 31.6354 409.797 31.8409C409.306 32.0464 408.743 32.1491 408.107 32.1491C407.172 32.1491 406.42 31.9536 405.85 31.5625C405.279 31.1681 404.94 30.6196 404.83 29.9169L406.585 29.7479C406.665 30.0926 406.834 30.3527 407.092 30.5284C407.351 30.7041 407.687 30.7919 408.102 30.7919C408.529 30.7919 408.872 30.7041 409.131 30.5284C409.393 30.3527 409.524 30.1357 409.524 29.8771C409.524 29.6584 409.439 29.4777 409.27 29.3352C409.104 29.1927 408.846 29.0833 408.494 29.0071L407.192 28.7337C406.459 28.5812 405.918 28.3243 405.566 27.9631C405.215 27.5985 405.041 27.1378 405.044 26.581C405.041 26.1103 405.168 25.7027 405.427 25.358C405.689 25.0099 406.052 24.7415 406.516 24.5526C406.983 24.3603 407.522 24.2642 408.132 24.2642C409.026 24.2642 409.731 24.4548 410.244 24.8359C410.762 25.2171 411.081 25.7325 411.204 26.3821ZM413.952 27.5256V32H412.152V21.8182H413.912V25.6612H414.001C414.18 25.2304 414.457 24.8906 414.832 24.642C415.21 24.3902 415.69 24.2642 416.274 24.2642C416.804 24.2642 417.266 24.3752 417.661 24.5973C418.055 24.8194 418.36 25.1442 418.575 25.5717C418.794 25.9993 418.903 26.5213 418.903 27.1378V32H417.104V27.4162C417.104 26.9025 416.971 26.5031 416.706 26.218C416.444 25.9297 416.076 25.7855 415.602 25.7855C415.284 25.7855 414.999 25.8551 414.747 25.9943C414.499 26.1302 414.303 26.3274 414.161 26.5859C414.021 26.8445 413.952 27.1577 413.952 27.5256Z" fill="#916B00"/>
<rect x="184" y="2" width="134" height="134" rx="13" fill="#FDC841" fill-opacity="0.42" stroke="#FDC841" stroke-width="4"/>
<rect x="195" y="15" width="48" height="24" rx="7" fill="white"/>
<path d="M204.191 32V21.8182H206.035V26.1286H210.753V21.8182H212.603V32H210.753V27.6747H206.035V32H204.191ZM216.027 32.1541C215.543 32.1541 215.107 32.0679 214.719 31.8956C214.335 31.7199 214.03 31.4614 213.805 31.12C213.582 30.7786 213.471 30.3577 213.471 29.8572C213.471 29.4264 213.551 29.0701 213.71 28.7884C213.869 28.5066 214.086 28.2812 214.361 28.1122C214.636 27.9432 214.946 27.8156 215.291 27.7294C215.639 27.6399 215.999 27.5753 216.37 27.5355C216.817 27.4891 217.18 27.4477 217.459 27.4112C217.737 27.3714 217.939 27.3118 218.065 27.2322C218.194 27.1494 218.259 27.0218 218.259 26.8494V26.8196C218.259 26.4451 218.148 26.1551 217.926 25.9496C217.704 25.7441 217.384 25.6413 216.966 25.6413C216.526 25.6413 216.176 25.7375 215.917 25.9297C215.662 26.1219 215.49 26.349 215.4 26.6108L213.72 26.3722C213.853 25.9081 214.071 25.5204 214.376 25.2088C214.681 24.8939 215.054 24.6586 215.495 24.5028C215.936 24.3438 216.423 24.2642 216.957 24.2642C217.324 24.2642 217.691 24.3073 218.055 24.3935C218.42 24.4796 218.753 24.6222 219.055 24.821C219.356 25.0166 219.598 25.2834 219.78 25.6214C219.966 25.9595 220.059 26.3821 220.059 26.8892V32H218.329V30.951H218.269C218.16 31.1631 218.006 31.362 217.807 31.5476C217.611 31.7299 217.364 31.8774 217.066 31.9901C216.771 32.0994 216.425 32.1541 216.027 32.1541ZM216.494 30.8317C216.855 30.8317 217.169 30.7604 217.434 30.6179C217.699 30.4721 217.903 30.2798 218.045 30.0412C218.191 29.8026 218.264 29.5424 218.264 29.2607V28.3608C218.208 28.4072 218.112 28.4503 217.976 28.4901C217.843 28.5298 217.694 28.5646 217.528 28.5945C217.363 28.6243 217.198 28.6508 217.036 28.674C216.874 28.6972 216.733 28.7171 216.613 28.7337C216.345 28.7701 216.105 28.8298 215.893 28.9126C215.68 28.9955 215.513 29.1115 215.39 29.2607C215.268 29.4065 215.207 29.5954 215.207 29.8274C215.207 30.1589 215.328 30.4091 215.569 30.5781C215.811 30.7472 216.12 30.8317 216.494 30.8317ZM227.204 26.3821L225.563 26.5611C225.517 26.3954 225.436 26.2396 225.32 26.0938C225.207 25.9479 225.055 25.8303 224.862 25.7408C224.67 25.6513 224.435 25.6065 224.156 25.6065C223.782 25.6065 223.467 25.6877 223.212 25.8501C222.96 26.0125 222.836 26.223 222.839 26.4815C222.836 26.7036 222.917 26.8842 223.083 27.0234C223.252 27.1626 223.53 27.277 223.918 27.3665L225.22 27.6449C225.943 27.8007 226.48 28.0476 226.831 28.3857C227.186 28.7237 227.365 29.1662 227.368 29.7131C227.365 30.1937 227.224 30.6179 226.945 30.9858C226.67 31.3504 226.288 31.6354 225.797 31.8409C225.306 32.0464 224.743 32.1491 224.107 32.1491C223.172 32.1491 222.42 31.9536 221.85 31.5625C221.279 31.1681 220.94 30.6196 220.83 29.9169L222.585 29.7479C222.665 30.0926 222.834 30.3527 223.092 30.5284C223.351 30.7041 223.687 30.7919 224.102 30.7919C224.529 30.7919 224.872 30.7041 225.131 30.5284C225.393 30.3527 225.524 30.1357 225.524 29.8771C225.524 29.6584 225.439 29.4777 225.27 29.3352C225.104 29.1927 224.846 29.0833 224.494 29.0071L223.192 28.7337C222.459 28.5812 221.918 28.3243 221.566 27.9631C221.215 27.5985 221.041 27.1378 221.044 26.581C221.041 26.1103 221.168 25.7027 221.427 25.358C221.689 25.0099 222.052 24.7415 222.516 24.5526C222.983 24.3603 223.522 24.2642 224.132 24.2642C225.026 24.2642 225.731 24.4548 226.244 24.8359C226.762 25.2171 227.081 25.7325 227.204 26.3821ZM229.952 27.5256V32H228.152V21.8182H229.912V25.6612H230.001C230.18 25.2304 230.457 24.8906 230.832 24.642C231.21 24.3902 231.69 24.2642 232.274 24.2642C232.804 24.2642 233.266 24.3752 233.661 24.5973C234.055 24.8194 234.36 25.1442 234.575 25.5717C234.794 25.9993 234.903 26.5213 234.903 27.1378V32H233.104V27.4162C233.104 26.9025 232.971 26.5031 232.706 26.218C232.444 25.9297 232.076 25.7855 231.602 25.7855C231.284 25.7855 230.999 25.8551 230.747 25.9943C230.499 26.1302 230.303 26.3274 230.161 26.5859C230.021 26.8445 229.952 27.1577 229.952 27.5256Z" fill="#916B00"/>
<path d="M519.791 66.6513C518.729 66.6513 517.86 67.5199 517.86 68.5816C517.86 69.6432 518.729 70.5118 519.791 70.5118C520.852 70.5118 521.721 69.6432 521.721 68.5816C521.721 67.5199 520.852 66.6513 519.791 66.6513ZM531.372 66.6513C530.311 66.6513 529.442 67.5199 529.442 68.5816C529.442 69.6432 530.311 70.5118 531.372 70.5118C532.434 70.5118 533.303 69.6432 533.303 68.5816C533.303 67.5199 532.434 66.6513 531.372 66.6513ZM525.582 66.6513C524.52 66.6513 523.651 67.5199 523.651 68.5816C523.651 69.6432 524.52 70.5118 525.582 70.5118C526.643 70.5118 527.512 69.6432 527.512 68.5816C527.512 67.5199 526.643 66.6513 525.582 66.6513Z" fill="#606060"/>
<path fill-rule="evenodd" clip-rule="evenodd" d="M31.5001 47.5C31.5001 46.9477 31.0524 46.5 30.5001 46.5C29.9478 46.5 29.5001 46.9477 29.5001 47.5V57.5V93V107.907L24.8108 101.415C24.4874 100.967 23.8623 100.866 23.4146 101.189C22.9669 101.513 22.8661 102.138 23.1894 102.585L29.5001 111.323V151.5C29.5001 157.575 34.425 162.5 40.5001 162.5H44.0001H98.5001C103.471 162.5 107.5 166.529 107.5 171.5V181.5C107.5 182.052 107.948 182.5 108.5 182.5C109.052 182.5 109.5 182.052 109.5 181.5V171.5C109.5 167.78 107.653 164.491 104.826 162.5H225.086L218.386 167.711C217.95 168.05 217.872 168.678 218.211 169.114C218.55 169.55 219.178 169.628 219.614 169.289L228.343 162.5H335C339.971 162.5 344 166.529 344 171.5V181.5C344 182.052 344.448 182.5 345 182.5C345.552 182.5 346 182.052 346 181.5V171.5C346 167.78 344.153 164.491 341.326 162.5H467.908L461.415 167.189C460.967 167.513 460.866 168.138 461.189 168.585C461.513 169.033 462.138 169.134 462.586 168.811L471.323 162.5H578C582.971 162.5 587 166.529 587 171.5V181.5C587 182.052 587.448 182.5 588 182.5C588.552 182.5 589 182.052 589 181.5V171.5C589 165.425 584.075 160.5 578 160.5H471.362L462.64 153.232C462.216 152.878 461.585 152.936 461.232 153.36C460.878 153.784 460.936 154.415 461.36 154.768L468.238 160.5H335H228.362L219.64 153.232C219.216 152.878 218.585 152.936 218.232 153.36C217.878 153.784 217.936 154.415 218.36 154.768L225.238 160.5H98.5001H44.0001H40.5001C35.5295 160.5 31.5001 156.471 31.5001 151.5V111.323L37.8108 102.585C38.1341 102.138 38.0333 101.513 37.5856 101.189C37.1379 100.866 36.5128 100.967 36.1894 101.415L31.5001 107.907V93V57.5V47.5Z" fill="#626262"/>
</svg>
