<svg width="806" height="238" viewBox="0 0 806 238" fill="none" xmlns="http://www.w3.org/2000/svg">
<rect x="665" y="178.221" width="140" height="59" rx="9" fill="#59C3AD" fill-opacity="0.1" stroke="#3E8D7D" stroke-width="2"/>
<path d="M719.712 206.08C719.618 205.773 719.487 205.498 719.32 205.256C719.157 205.009 718.96 204.799 718.729 204.625C718.502 204.451 718.241 204.32 717.945 204.233C717.65 204.142 717.328 204.097 716.979 204.097C716.354 204.097 715.798 204.254 715.309 204.568C714.82 204.883 714.436 205.345 714.155 205.955C713.879 206.561 713.741 207.299 713.741 208.17C713.741 209.049 713.879 209.794 714.155 210.403C714.432 211.013 714.816 211.477 715.309 211.795C715.801 212.11 716.373 212.267 717.025 212.267C717.616 212.267 718.127 212.153 718.559 211.926C718.995 211.699 719.33 211.377 719.565 210.96C719.799 210.54 719.917 210.047 719.917 209.483L720.394 209.557H717.235V207.909H721.957V209.307C721.957 210.303 721.745 211.165 721.32 211.892C720.896 212.619 720.313 213.18 719.57 213.574C718.828 213.964 717.976 214.159 717.013 214.159C715.941 214.159 715 213.919 714.19 213.438C713.383 212.953 712.752 212.265 712.298 211.375C711.847 210.481 711.621 209.42 711.621 208.193C711.621 207.254 711.754 206.415 712.019 205.676C712.288 204.938 712.663 204.311 713.144 203.795C713.625 203.277 714.19 202.883 714.837 202.614C715.485 202.341 716.19 202.205 716.951 202.205C717.595 202.205 718.195 202.299 718.752 202.489C719.309 202.674 719.803 202.939 720.235 203.284C720.671 203.629 721.029 204.038 721.309 204.511C721.589 204.985 721.773 205.508 721.86 206.08H719.712ZM725.615 214.176C725.062 214.176 724.564 214.078 724.121 213.881C723.682 213.68 723.333 213.384 723.076 212.994C722.822 212.604 722.695 212.123 722.695 211.551C722.695 211.059 722.786 210.652 722.968 210.33C723.15 210.008 723.398 209.75 723.712 209.557C724.026 209.364 724.381 209.218 724.775 209.119C725.172 209.017 725.583 208.943 726.007 208.898C726.519 208.845 726.934 208.797 727.252 208.756C727.57 208.71 727.801 208.642 727.945 208.551C728.093 208.456 728.167 208.311 728.167 208.114V208.08C728.167 207.652 728.04 207.32 727.786 207.085C727.532 206.85 727.167 206.733 726.689 206.733C726.186 206.733 725.786 206.843 725.49 207.062C725.199 207.282 725.002 207.542 724.9 207.841L722.979 207.568C723.131 207.038 723.381 206.595 723.729 206.239C724.078 205.879 724.504 205.61 725.007 205.432C725.511 205.25 726.068 205.159 726.678 205.159C727.098 205.159 727.517 205.208 727.934 205.307C728.35 205.405 728.731 205.568 729.076 205.795C729.42 206.019 729.697 206.324 729.905 206.71C730.117 207.097 730.223 207.58 730.223 208.159V214H728.246V212.801H728.178C728.053 213.044 727.877 213.271 727.65 213.483C727.426 213.691 727.144 213.86 726.803 213.989C726.466 214.114 726.07 214.176 725.615 214.176ZM726.15 212.665C726.562 212.665 726.92 212.583 727.223 212.42C727.526 212.254 727.759 212.034 727.922 211.761C728.089 211.489 728.172 211.191 728.172 210.869V209.841C728.108 209.894 727.998 209.943 727.843 209.989C727.691 210.034 727.521 210.074 727.331 210.108C727.142 210.142 726.954 210.172 726.769 210.199C726.583 210.225 726.422 210.248 726.286 210.267C725.979 210.309 725.704 210.377 725.462 210.472C725.22 210.566 725.028 210.699 724.888 210.869C724.748 211.036 724.678 211.252 724.678 211.517C724.678 211.896 724.816 212.182 725.093 212.375C725.369 212.568 725.722 212.665 726.15 212.665ZM735.85 205.273V206.864H730.832V205.273H735.85ZM732.071 203.182H734.128V211.375C734.128 211.652 734.17 211.864 734.253 212.011C734.34 212.155 734.454 212.254 734.594 212.307C734.734 212.36 734.889 212.386 735.06 212.386C735.189 212.386 735.306 212.377 735.412 212.358C735.522 212.339 735.605 212.322 735.662 212.307L736.009 213.915C735.899 213.953 735.742 213.994 735.537 214.04C735.336 214.085 735.09 214.112 734.798 214.119C734.283 214.134 733.819 214.057 733.406 213.886C732.993 213.712 732.666 213.443 732.423 213.08C732.185 212.716 732.067 212.261 732.071 211.716V203.182ZM739.014 208.886V214H736.957V202.364H738.969V206.756H739.071C739.275 206.263 739.592 205.875 740.02 205.591C740.452 205.303 741.001 205.159 741.667 205.159C742.273 205.159 742.802 205.286 743.253 205.54C743.703 205.794 744.052 206.165 744.298 206.653C744.548 207.142 744.673 207.739 744.673 208.443V214H742.616V208.761C742.616 208.174 742.465 207.718 742.162 207.392C741.863 207.062 741.442 206.898 740.9 206.898C740.537 206.898 740.211 206.977 739.923 207.136C739.639 207.292 739.416 207.517 739.253 207.812C739.094 208.108 739.014 208.466 739.014 208.886ZM749.833 214.17C748.958 214.17 748.203 213.989 747.566 213.625C746.934 213.258 746.447 212.739 746.106 212.068C745.765 211.394 745.595 210.6 745.595 209.688C745.595 208.79 745.765 208.002 746.106 207.324C746.451 206.642 746.932 206.112 747.549 205.733C748.167 205.35 748.892 205.159 749.725 205.159C750.263 205.159 750.771 205.246 751.248 205.42C751.729 205.591 752.153 205.856 752.521 206.216C752.892 206.576 753.184 207.034 753.396 207.591C753.608 208.144 753.714 208.803 753.714 209.568V210.199H746.561V208.812H751.742C751.739 208.419 751.653 208.068 751.487 207.761C751.32 207.451 751.087 207.206 750.788 207.028C750.492 206.85 750.148 206.761 749.754 206.761C749.333 206.761 748.964 206.864 748.646 207.068C748.328 207.269 748.08 207.534 747.902 207.864C747.727 208.189 747.638 208.547 747.634 208.938V210.148C747.634 210.655 747.727 211.091 747.913 211.455C748.098 211.814 748.358 212.091 748.691 212.284C749.025 212.473 749.415 212.568 749.862 212.568C750.161 212.568 750.432 212.527 750.674 212.443C750.917 212.356 751.127 212.229 751.305 212.062C751.483 211.896 751.617 211.689 751.708 211.443L753.629 211.659C753.508 212.167 753.277 212.61 752.936 212.989C752.598 213.364 752.167 213.655 751.64 213.864C751.114 214.068 750.511 214.17 749.833 214.17ZM754.654 214V205.273H756.648V206.727H756.739C756.898 206.223 757.171 205.835 757.557 205.562C757.948 205.286 758.393 205.148 758.893 205.148C759.006 205.148 759.133 205.153 759.273 205.165C759.417 205.172 759.537 205.186 759.631 205.205V207.097C759.544 207.066 759.406 207.04 759.217 207.017C759.031 206.991 758.851 206.977 758.677 206.977C758.302 206.977 757.965 207.059 757.665 207.222C757.37 207.381 757.137 207.602 756.967 207.886C756.796 208.17 756.711 208.498 756.711 208.869V214H754.654Z" fill="#008C6F"/>
<path d="M639 209.221C639.552 209.221 640 208.773 640 208.221C640 207.669 639.552 207.221 639 207.221V209.221ZM538.293 207.514C537.902 207.905 537.902 208.538 538.293 208.928L544.657 215.292C545.047 215.683 545.681 215.683 546.071 215.292C546.462 214.902 546.462 214.269 546.071 213.878L540.414 208.221L546.071 202.564C546.462 202.174 546.462 201.541 546.071 201.15C545.681 200.76 545.047 200.76 544.657 201.15L538.293 207.514ZM639 207.221H539V209.221H639V207.221Z" fill="#606060"/>
<path d="M539 31C538.448 31 538 31.4477 538 32C538 32.5523 538.448 33 539 33V31ZM639.707 32.7071C640.098 32.3166 640.098 31.6834 639.707 31.2929L633.343 24.9289C632.953 24.5384 632.319 24.5384 631.929 24.9289C631.538 25.3195 631.538 25.9526 631.929 26.3431L637.586 32L631.929 37.6569C631.538 38.0474 631.538 38.6805 631.929 39.0711C632.319 39.4616 632.953 39.4616 633.343 39.0711L639.707 32.7071ZM539 33H639V31H539V33Z" fill="#606060"/>
<rect x="1" y="178.221" width="198" height="59" rx="9" fill="#FFA318" fill-opacity="0.1" stroke="#FFA318" stroke-width="2"/>
<path d="M52.0193 205.707H49.8943C49.8336 205.358 49.7219 205.05 49.559 204.781C49.3961 204.508 49.1935 204.277 48.9511 204.087C48.7086 203.898 48.4321 203.756 48.1215 203.661C47.8147 203.563 47.4833 203.514 47.1272 203.514C46.4946 203.514 45.934 203.673 45.4454 203.991C44.9568 204.305 44.5742 204.767 44.2977 205.377C44.0211 205.983 43.8829 206.724 43.8829 207.599C43.8829 208.489 44.0211 209.239 44.2977 209.849C44.578 210.455 44.9605 210.913 45.4454 211.224C45.934 211.531 46.4927 211.684 47.1215 211.684C47.47 211.684 47.7958 211.639 48.0988 211.548C48.4056 211.453 48.6802 211.315 48.9227 211.133C49.1689 210.951 49.3753 210.728 49.542 210.462C49.7124 210.197 49.8299 209.894 49.8943 209.553L52.0193 209.565C51.9397 210.118 51.7674 210.637 51.5022 211.122C51.2408 211.606 50.898 212.034 50.4738 212.406C50.0496 212.773 49.5533 213.061 48.9852 213.269C48.417 213.474 47.7863 213.576 47.0931 213.576C46.0704 213.576 45.1575 213.339 44.3545 212.866C43.5514 212.392 42.9189 211.709 42.4568 210.815C41.9946 209.921 41.7636 208.849 41.7636 207.599C41.7636 206.345 41.9965 205.273 42.4624 204.383C42.9283 203.489 43.5628 202.805 44.3658 202.332C45.1689 201.858 46.078 201.622 47.0931 201.622C47.7408 201.622 48.3431 201.712 48.8999 201.894C49.4568 202.076 49.953 202.343 50.3886 202.695C50.8242 203.044 51.1821 203.472 51.4624 203.979C51.7465 204.483 51.9321 205.059 52.0193 205.707ZM56.8656 213.587C56.0133 213.587 55.2747 213.4 54.6496 213.025C54.0246 212.65 53.5398 212.125 53.1951 211.451C52.8542 210.777 52.6837 209.989 52.6837 209.087C52.6837 208.186 52.8542 207.396 53.1951 206.718C53.5398 206.04 54.0246 205.514 54.6496 205.139C55.2747 204.764 56.0133 204.576 56.8656 204.576C57.7178 204.576 58.4565 204.764 59.0815 205.139C59.7065 205.514 60.1894 206.04 60.5303 206.718C60.875 207.396 61.0474 208.186 61.0474 209.087C61.0474 209.989 60.875 210.777 60.5303 211.451C60.1894 212.125 59.7065 212.65 59.0815 213.025C58.4565 213.4 57.7178 213.587 56.8656 213.587ZM56.8769 211.94C57.339 211.94 57.7254 211.813 58.036 211.559C58.3466 211.301 58.5777 210.957 58.7292 210.525C58.8845 210.093 58.9622 209.612 58.9622 209.082C58.9622 208.548 58.8845 208.065 58.7292 207.633C58.5777 207.197 58.3466 206.851 58.036 206.593C57.7254 206.336 57.339 206.207 56.8769 206.207C56.4034 206.207 56.0095 206.336 55.6951 206.593C55.3845 206.851 55.1515 207.197 54.9962 207.633C54.8447 208.065 54.769 208.548 54.769 209.082C54.769 209.612 54.8447 210.093 54.9962 210.525C55.1515 210.957 55.3845 211.301 55.6951 211.559C56.0095 211.813 56.4034 211.94 56.8769 211.94ZM61.9931 213.417V204.69H63.959V206.173H64.0613C64.2431 205.673 64.5442 205.283 64.9647 205.002C65.3852 204.718 65.8871 204.576 66.4704 204.576C67.0613 204.576 67.5594 204.72 67.9647 205.008C68.3738 205.292 68.6617 205.68 68.8283 206.173H68.9192C69.1124 205.688 69.4382 205.301 69.8965 205.014C70.3586 204.722 70.906 204.576 71.5386 204.576C72.3416 204.576 72.9969 204.83 73.5045 205.337C74.0121 205.845 74.2658 206.586 74.2658 207.559V213.417H72.2033V207.877C72.2033 207.336 72.0594 206.94 71.7715 206.69C71.4836 206.436 71.1314 206.309 70.7147 206.309C70.2185 206.309 69.8302 206.464 69.5499 206.775C69.2734 207.082 69.1352 207.481 69.1352 207.974V213.417H67.1181V207.792C67.1181 207.341 66.9817 206.981 66.709 206.712C66.4401 206.444 66.0878 206.309 65.6522 206.309C65.3567 206.309 65.0878 206.385 64.8454 206.536C64.603 206.684 64.4098 206.894 64.2658 207.167C64.1219 207.436 64.0499 207.75 64.0499 208.11V213.417H61.9931ZM75.6434 213.417V201.781H77.7002V206.133H77.7854C77.8915 205.921 78.0411 205.695 78.2343 205.457C78.4275 205.214 78.6889 205.008 79.0184 204.837C79.3479 204.663 79.7684 204.576 80.2798 204.576C80.954 204.576 81.562 204.748 82.1036 205.093C82.6491 205.434 83.0809 205.94 83.3991 206.61C83.721 207.277 83.882 208.095 83.882 209.065C83.882 210.023 83.7248 210.837 83.4104 211.508C83.096 212.178 82.668 212.69 82.1264 213.042C81.5847 213.394 80.971 213.57 80.2854 213.57C79.7854 213.57 79.3707 213.487 79.0411 213.32C78.7116 213.154 78.4464 212.953 78.2457 212.718C78.0487 212.479 77.8953 212.254 77.7854 212.042H77.6661V213.417H75.6434ZM77.6604 209.053C77.6604 209.618 77.74 210.112 77.8991 210.536C78.062 210.961 78.2949 211.292 78.5979 211.531C78.9048 211.765 79.276 211.883 79.7116 211.883C80.1661 211.883 80.5468 211.762 80.8536 211.519C81.1604 211.273 81.3915 210.938 81.5468 210.514C81.7059 210.086 81.7854 209.599 81.7854 209.053C81.7854 208.512 81.7078 208.031 81.5525 207.61C81.3972 207.19 81.1661 206.86 80.8593 206.622C80.5525 206.383 80.1699 206.264 79.7116 206.264C79.2722 206.264 78.8991 206.379 78.5923 206.61C78.2854 206.841 78.0525 207.165 77.8934 207.582C77.7381 207.998 77.6604 208.489 77.6604 209.053ZM84.8306 213.417V204.69H86.8874V213.417H84.8306ZM85.8647 203.451C85.5389 203.451 85.2586 203.343 85.0238 203.127C84.7889 202.908 84.6715 202.644 84.6715 202.337C84.6715 202.027 84.7889 201.764 85.0238 201.548C85.2586 201.328 85.5389 201.218 85.8647 201.218C86.1943 201.218 86.4746 201.328 86.7056 201.548C86.9405 201.764 87.0579 202.027 87.0579 202.337C87.0579 202.644 86.9405 202.908 86.7056 203.127C86.4746 203.343 86.1943 203.451 85.8647 203.451ZM90.2593 208.303V213.417H88.2025V204.69H90.1684V206.173H90.2707C90.4714 205.684 90.7915 205.296 91.2309 205.008C91.6741 204.72 92.2214 204.576 92.8729 204.576C93.4752 204.576 93.9998 204.705 94.4468 204.962C94.8976 205.22 95.2461 205.593 95.4923 206.082C95.7423 206.57 95.8654 207.163 95.8616 207.86V213.417H93.8048V208.178C93.8048 207.595 93.6533 207.139 93.3502 206.809C93.051 206.479 92.6362 206.315 92.1059 206.315C91.7461 206.315 91.426 206.394 91.1457 206.553C90.8692 206.709 90.6514 206.934 90.4923 207.229C90.337 207.525 90.2593 207.883 90.2593 208.303ZM101.016 213.587C100.141 213.587 99.3854 213.406 98.7491 213.042C98.1165 212.675 97.6298 212.156 97.2889 211.485C96.9479 210.811 96.7775 210.017 96.7775 209.104C96.7775 208.207 96.9479 207.419 97.2889 206.741C97.6336 206.059 98.1146 205.529 98.732 205.15C99.3495 204.767 100.075 204.576 100.908 204.576C101.446 204.576 101.954 204.663 102.431 204.837C102.912 205.008 103.336 205.273 103.704 205.633C104.075 205.993 104.367 206.451 104.579 207.008C104.791 207.561 104.897 208.22 104.897 208.985V209.616H97.7434V208.229H102.925C102.921 207.836 102.836 207.485 102.67 207.178C102.503 206.868 102.27 206.623 101.971 206.445C101.675 206.267 101.331 206.178 100.937 206.178C100.516 206.178 100.147 206.281 99.8286 206.485C99.5104 206.686 99.2623 206.951 99.0843 207.281C98.9101 207.606 98.8211 207.964 98.8173 208.354V209.565C98.8173 210.072 98.9101 210.508 99.0957 210.872C99.2813 211.231 99.5407 211.508 99.8741 211.701C100.207 211.89 100.598 211.985 101.045 211.985C101.344 211.985 101.615 211.944 101.857 211.86C102.099 211.773 102.31 211.646 102.488 211.479C102.666 211.313 102.8 211.106 102.891 210.86L104.812 211.076C104.69 211.584 104.459 212.027 104.118 212.406C103.781 212.781 103.349 213.072 102.823 213.281C102.296 213.485 101.694 213.587 101.016 213.587ZM109.097 213.417V201.781H113.551C114.392 201.781 115.091 201.913 115.648 202.178C116.208 202.44 116.627 202.798 116.903 203.252C117.184 203.707 117.324 204.222 117.324 204.798C117.324 205.271 117.233 205.676 117.051 206.014C116.869 206.347 116.625 206.618 116.318 206.826C116.011 207.034 115.668 207.184 115.29 207.275V207.389C115.703 207.411 116.098 207.538 116.477 207.769C116.86 207.997 117.172 208.319 117.415 208.735C117.657 209.152 117.778 209.656 117.778 210.247C117.778 210.849 117.633 211.39 117.341 211.872C117.049 212.349 116.61 212.726 116.023 213.002C115.436 213.279 114.697 213.417 113.807 213.417H109.097ZM111.204 211.656H113.472C114.237 211.656 114.788 211.51 115.125 211.218C115.466 210.923 115.636 210.544 115.636 210.082C115.636 209.737 115.551 209.426 115.381 209.15C115.21 208.87 114.968 208.65 114.653 208.491C114.339 208.328 113.964 208.247 113.528 208.247H111.204V211.656ZM111.204 206.729H113.29C113.653 206.729 113.981 206.663 114.273 206.531C114.564 206.394 114.793 206.203 114.96 205.957C115.131 205.707 115.216 205.411 115.216 205.07C115.216 204.62 115.057 204.248 114.739 203.957C114.424 203.665 113.956 203.519 113.335 203.519H111.204V206.729ZM120.778 201.781V213.417H118.721V201.781H120.778ZM125.9 213.587C125.048 213.587 124.309 213.4 123.684 213.025C123.059 212.65 122.574 212.125 122.229 211.451C121.889 210.777 121.718 209.989 121.718 209.087C121.718 208.186 121.889 207.396 122.229 206.718C122.574 206.04 123.059 205.514 123.684 205.139C124.309 204.764 125.048 204.576 125.9 204.576C126.752 204.576 127.491 204.764 128.116 205.139C128.741 205.514 129.224 206.04 129.565 206.718C129.909 207.396 130.082 208.186 130.082 209.087C130.082 209.989 129.909 210.777 129.565 211.451C129.224 212.125 128.741 212.65 128.116 213.025C127.491 213.4 126.752 213.587 125.9 213.587ZM125.911 211.94C126.373 211.94 126.76 211.813 127.07 211.559C127.381 211.301 127.612 210.957 127.764 210.525C127.919 210.093 127.997 209.612 127.997 209.082C127.997 208.548 127.919 208.065 127.764 207.633C127.612 207.197 127.381 206.851 127.07 206.593C126.76 206.336 126.373 206.207 125.911 206.207C125.438 206.207 125.044 206.336 124.729 206.593C124.419 206.851 124.186 207.197 124.031 207.633C123.879 208.065 123.803 208.548 123.803 209.082C123.803 209.612 123.879 210.093 124.031 210.525C124.186 210.957 124.419 211.301 124.729 211.559C125.044 211.813 125.438 211.94 125.911 211.94ZM134.834 213.587C133.963 213.587 133.215 213.396 132.59 213.014C131.969 212.631 131.49 212.103 131.152 211.428C130.819 210.75 130.652 209.97 130.652 209.087C130.652 208.201 130.823 207.419 131.164 206.741C131.505 206.059 131.986 205.529 132.607 205.15C133.232 204.767 133.971 204.576 134.823 204.576C135.531 204.576 136.158 204.707 136.704 204.968C137.253 205.226 137.69 205.591 138.016 206.065C138.342 206.534 138.527 207.084 138.573 207.712H136.607C136.527 207.292 136.338 206.942 136.039 206.661C135.743 206.377 135.348 206.235 134.851 206.235C134.431 206.235 134.062 206.349 133.743 206.576C133.425 206.8 133.177 207.122 132.999 207.542C132.825 207.962 132.738 208.466 132.738 209.053C132.738 209.648 132.825 210.159 132.999 210.587C133.173 211.012 133.418 211.339 133.732 211.57C134.05 211.798 134.423 211.911 134.851 211.911C135.154 211.911 135.425 211.854 135.664 211.741C135.906 211.623 136.109 211.455 136.272 211.235C136.435 211.015 136.546 210.748 136.607 210.434H138.573C138.524 211.051 138.342 211.599 138.027 212.076C137.713 212.55 137.285 212.921 136.743 213.19C136.202 213.455 135.565 213.587 134.834 213.587ZM141.337 210.678L141.331 208.195H141.661L144.797 204.69H147.2L143.343 208.985H142.916L141.337 210.678ZM139.462 213.417V201.781H141.519V213.417H139.462ZM144.939 213.417L142.098 209.445L143.485 207.997L147.399 213.417H144.939ZM154.669 206.997L152.794 207.201C152.741 207.012 152.648 206.834 152.516 206.667C152.387 206.5 152.213 206.366 151.993 206.264C151.773 206.161 151.504 206.11 151.186 206.11C150.758 206.11 150.398 206.203 150.106 206.389C149.819 206.574 149.677 206.815 149.68 207.11C149.677 207.364 149.769 207.57 149.959 207.729C150.152 207.889 150.47 208.019 150.913 208.122L152.402 208.44C153.228 208.618 153.841 208.9 154.243 209.286C154.648 209.673 154.853 210.178 154.856 210.803C154.853 211.353 154.692 211.837 154.374 212.258C154.059 212.675 153.622 213 153.061 213.235C152.5 213.47 151.856 213.587 151.129 213.587C150.061 213.587 149.201 213.364 148.55 212.917C147.898 212.466 147.51 211.839 147.385 211.036L149.391 210.843C149.481 211.237 149.675 211.534 149.97 211.735C150.266 211.936 150.65 212.036 151.124 212.036C151.612 212.036 152.004 211.936 152.3 211.735C152.599 211.534 152.749 211.286 152.749 210.991C152.749 210.741 152.652 210.534 152.459 210.372C152.269 210.209 151.974 210.084 151.572 209.997L150.084 209.684C149.247 209.51 148.627 209.216 148.226 208.803C147.824 208.387 147.625 207.86 147.629 207.224C147.625 206.686 147.771 206.22 148.067 205.826C148.366 205.428 148.781 205.122 149.311 204.906C149.845 204.686 150.461 204.576 151.158 204.576C152.18 204.576 152.985 204.794 153.572 205.229C154.163 205.665 154.529 206.254 154.669 206.997Z" fill="#824E00"/>
<rect x="1" y="3" width="198" height="59" rx="9" fill="#4B82D3" fill-opacity="0.1" stroke="#4B82D3" stroke-width="2"/>
<path d="M30.687 38.2529V26.6166H38.1416V28.3836H32.795V31.5427H37.6302V33.3097H32.795V38.2529H30.687ZM39.1711 38.2529V29.5257H41.228V38.2529H39.1711ZM40.2052 28.287C39.8795 28.287 39.5992 28.1791 39.3643 27.9632C39.1295 27.7435 39.012 27.4802 39.012 27.1734C39.012 26.8628 39.1295 26.5995 39.3643 26.3836C39.5992 26.1639 39.8795 26.0541 40.2052 26.0541C40.5348 26.0541 40.8151 26.1639 41.0461 26.3836C41.281 26.5995 41.3984 26.8628 41.3984 27.1734C41.3984 27.4802 41.281 27.7435 41.0461 27.9632C40.8151 28.1791 40.5348 28.287 40.2052 28.287ZM44.5998 26.6166V38.2529H42.543V26.6166H44.5998ZM49.7785 38.4234C48.9035 38.4234 48.1478 38.2416 47.5115 37.8779C46.8789 37.5105 46.3922 36.9916 46.0512 36.3211C45.7103 35.6469 45.5399 34.8533 45.5399 33.9404C45.5399 33.0427 45.7103 32.2548 46.0512 31.5768C46.3959 30.895 46.877 30.3647 47.4944 29.9859C48.1119 29.6033 48.8372 29.412 49.6706 29.412C50.2084 29.412 50.716 29.4991 51.1933 29.6734C51.6744 29.8438 52.0986 30.109 52.466 30.4688C52.8372 30.8287 53.1289 31.287 53.341 31.8438C53.5531 32.3969 53.6592 33.056 53.6592 33.8211V34.4518H46.5058V33.0654H51.6876C51.6838 32.6715 51.5986 32.3211 51.4319 32.0143C51.2653 31.7037 51.0323 31.4594 50.7331 31.2813C50.4376 31.1033 50.0929 31.0143 49.699 31.0143C49.2785 31.0143 48.9092 31.1166 48.591 31.3211C48.2728 31.5219 48.0247 31.787 47.8467 32.1166C47.6725 32.4423 47.5834 32.8003 47.5797 33.1904V34.4007C47.5797 34.9082 47.6725 35.3438 47.8581 35.7075C48.0437 36.0673 48.3031 36.3438 48.6365 36.537C48.9698 36.7264 49.36 36.8211 49.8069 36.8211C50.1062 36.8211 50.377 36.7794 50.6194 36.6961C50.8619 36.609 51.0721 36.4821 51.2501 36.3154C51.4281 36.1488 51.5626 35.9423 51.6535 35.6961L53.574 35.912C53.4528 36.4196 53.2217 36.8628 52.8808 37.2416C52.5437 37.6166 52.1119 37.9082 51.5853 38.1166C51.0588 38.3211 50.4566 38.4234 49.7785 38.4234ZM56.7981 26.6166V38.2529H54.6902V26.6166H56.7981ZM62.224 38.2529H58.2808V26.6166H62.3035C63.4588 26.6166 64.4512 26.8495 65.2808 27.3154C66.1141 27.7776 66.7543 28.4423 67.2012 29.3097C67.6482 30.1772 67.8717 31.2151 67.8717 32.4234C67.8717 33.6355 67.6463 34.6772 67.1956 35.5484C66.7486 36.4196 66.1028 37.0882 65.2581 37.5541C64.4172 38.02 63.4058 38.2529 62.224 38.2529ZM60.3887 36.4291H62.1217C62.9323 36.4291 63.6084 36.2813 64.1501 35.9859C64.6918 35.6866 65.099 35.2416 65.3717 34.6507C65.6444 34.056 65.7808 33.3135 65.7808 32.4234C65.7808 31.5332 65.6444 30.7946 65.3717 30.2075C65.099 29.6166 64.6956 29.1753 64.1615 28.8836C63.6312 28.5882 62.9721 28.4404 62.1842 28.4404H60.3887V36.4291Z" fill="#003688"/>
<path d="M90.1738 38.2529V26.6166H94.5374C95.4313 26.6166 96.1813 26.7832 96.7874 27.1166C97.3973 27.4499 97.8575 27.9082 98.1681 28.4916C98.4825 29.0711 98.6397 29.7302 98.6397 30.4688C98.6397 31.2151 98.4825 31.8779 98.1681 32.4575C97.8537 33.037 97.3897 33.4935 96.776 33.8268C96.1624 34.1563 95.4067 34.3211 94.509 34.3211H91.617V32.5882H94.2249C94.7476 32.5882 95.1757 32.4972 95.509 32.3154C95.8423 32.1336 96.0885 31.8836 96.2476 31.5654C96.4105 31.2472 96.492 30.8817 96.492 30.4688C96.492 30.056 96.4105 29.6923 96.2476 29.3779C96.0885 29.0635 95.8404 28.8192 95.5033 28.645C95.17 28.4669 94.7401 28.3779 94.2135 28.3779H92.2817V38.2529H90.1738ZM103.318 38.4234C102.443 38.4234 101.688 38.2416 101.051 37.8779C100.419 37.5105 99.932 36.9916 99.5911 36.3211C99.2502 35.6469 99.0797 34.8533 99.0797 33.9404C99.0797 33.0427 99.2502 32.2548 99.5911 31.5768C99.9358 30.895 100.417 30.3647 101.034 29.9859C101.652 29.6033 102.377 29.412 103.21 29.412C103.748 29.412 104.256 29.4991 104.733 29.6734C105.214 29.8438 105.638 30.109 106.006 30.4688C106.377 30.8287 106.669 31.287 106.881 31.8438C107.093 32.3969 107.199 33.056 107.199 33.8211V34.4518H100.046V33.0654H105.227C105.224 32.6715 105.138 32.3211 104.972 32.0143C104.805 31.7037 104.572 31.4594 104.273 31.2813C103.977 31.1033 103.633 31.0143 103.239 31.0143C102.818 31.0143 102.449 31.1166 102.131 31.3211C101.813 31.5219 101.565 31.787 101.387 32.1166C101.212 32.4423 101.123 32.8003 101.12 33.1904V34.4007C101.12 34.9082 101.212 35.3438 101.398 35.7075C101.584 36.0673 101.843 36.3438 102.176 36.537C102.51 36.7264 102.9 36.8211 103.347 36.8211C103.646 36.8211 103.917 36.7794 104.159 36.6961C104.402 36.609 104.612 36.4821 104.79 36.3154C104.968 36.1488 105.102 35.9423 105.193 35.6961L107.114 35.912C106.993 36.4196 106.762 36.8628 106.421 37.2416C106.084 37.6166 105.652 37.9082 105.125 38.1166C104.599 38.3211 103.996 38.4234 103.318 38.4234ZM108.139 38.2529V29.5257H110.133V30.9802H110.224C110.383 30.4764 110.656 30.0882 111.043 29.8154C111.433 29.5389 111.878 29.4007 112.378 29.4007C112.491 29.4007 112.618 29.4063 112.758 29.4177C112.902 29.4253 113.022 29.4385 113.116 29.4575V31.3495C113.029 31.3192 112.891 31.2927 112.702 31.27C112.516 31.2435 112.336 31.2302 112.162 31.2302C111.787 31.2302 111.45 31.3116 111.15 31.4745C110.855 31.6336 110.622 31.8552 110.452 32.1393C110.281 32.4234 110.196 32.751 110.196 33.1222V38.2529H108.139ZM113.683 38.2529V29.5257H115.649V31.0086H115.751C115.933 30.5086 116.234 30.1185 116.654 29.8382C117.075 29.5541 117.577 29.412 118.16 29.412C118.751 29.412 119.249 29.556 119.654 29.8438C120.064 30.1279 120.351 30.5162 120.518 31.0086H120.609C120.802 30.5238 121.128 30.1374 121.586 29.8495C122.048 29.5579 122.596 29.412 123.228 29.412C124.031 29.412 124.687 29.6658 125.194 30.1734C125.702 30.681 125.956 31.4215 125.956 32.395V38.2529H123.893V32.7132C123.893 32.1715 123.749 31.7757 123.461 31.5257C123.173 31.2719 122.821 31.145 122.404 31.145C121.908 31.145 121.52 31.3003 121.24 31.6109C120.963 31.9177 120.825 32.3173 120.825 32.8097V38.2529H118.808V32.6279C118.808 32.1772 118.671 31.8173 118.399 31.5484C118.13 31.2794 117.778 31.145 117.342 31.145C117.046 31.145 116.778 31.2207 116.535 31.3722C116.293 31.52 116.1 31.7302 115.956 32.0029C115.812 32.2719 115.74 32.5863 115.74 32.9461V38.2529H113.683ZM127.242 38.2529V29.5257H129.299V38.2529H127.242ZM128.276 28.287C127.951 28.287 127.67 28.1791 127.435 27.9632C127.201 27.7435 127.083 27.4802 127.083 27.1734C127.083 26.8628 127.201 26.5995 127.435 26.3836C127.67 26.1639 127.951 26.0541 128.276 26.0541C128.606 26.0541 128.886 26.1639 129.117 26.3836C129.352 26.5995 129.47 26.8628 129.47 27.1734C129.47 27.4802 129.352 27.7435 129.117 27.9632C128.886 28.1791 128.606 28.287 128.276 28.287ZM137.512 31.8325L135.637 32.037C135.584 31.8476 135.491 31.6696 135.358 31.5029C135.23 31.3363 135.055 31.2018 134.836 31.0995C134.616 30.9972 134.347 30.9461 134.029 30.9461C133.601 30.9461 133.241 31.0389 132.949 31.2245C132.661 31.4101 132.519 31.6507 132.523 31.9461C132.519 32.1999 132.612 32.4063 132.802 32.5654C132.995 32.7245 133.313 32.8552 133.756 32.9575L135.245 33.2757C136.071 33.4537 136.684 33.7359 137.086 34.1222C137.491 34.5086 137.696 35.0143 137.699 35.6393C137.696 36.1885 137.535 36.6734 137.216 37.0938C136.902 37.5105 136.464 37.8363 135.904 38.0711C135.343 38.306 134.699 38.4234 133.972 38.4234C132.904 38.4234 132.044 38.1999 131.393 37.7529C130.741 37.3022 130.353 36.6753 130.228 35.8722L132.233 35.6791C132.324 36.073 132.518 36.3704 132.813 36.5711C133.108 36.7719 133.493 36.8722 133.966 36.8722C134.455 36.8722 134.847 36.7719 135.143 36.5711C135.442 36.3704 135.591 36.1222 135.591 35.8268C135.591 35.5768 135.495 35.3704 135.302 35.2075C135.112 35.0446 134.817 34.9196 134.415 34.8325L132.927 34.52C132.089 34.3457 131.47 34.0522 131.069 33.6393C130.667 33.2226 130.468 32.6961 130.472 32.0597C130.468 31.5219 130.614 31.056 130.91 30.662C131.209 30.2643 131.624 29.9575 132.154 29.7416C132.688 29.5219 133.304 29.412 134 29.412C135.023 29.412 135.828 29.6298 136.415 30.0654C137.006 30.501 137.372 31.0901 137.512 31.8325ZM145.493 31.8325L143.618 32.037C143.565 31.8476 143.472 31.6696 143.34 31.5029C143.211 31.3363 143.037 31.2018 142.817 31.0995C142.597 30.9972 142.328 30.9461 142.01 30.9461C141.582 30.9461 141.222 31.0389 140.931 31.2245C140.643 31.4101 140.501 31.6507 140.504 31.9461C140.501 32.1999 140.593 32.4063 140.783 32.5654C140.976 32.7245 141.294 32.8552 141.737 32.9575L143.226 33.2757C144.052 33.4537 144.665 33.7359 145.067 34.1222C145.472 34.5086 145.677 35.0143 145.681 35.6393C145.677 36.1885 145.516 36.6734 145.198 37.0938C144.883 37.5105 144.446 37.8363 143.885 38.0711C143.325 38.306 142.681 38.4234 141.953 38.4234C140.885 38.4234 140.025 38.1999 139.374 37.7529C138.722 37.3022 138.334 36.6753 138.209 35.8722L140.215 35.6791C140.306 36.073 140.499 36.3704 140.794 36.5711C141.09 36.7719 141.474 36.8722 141.948 36.8722C142.436 36.8722 142.828 36.7719 143.124 36.5711C143.423 36.3704 143.573 36.1222 143.573 35.8268C143.573 35.5768 143.476 35.3704 143.283 35.2075C143.093 35.0446 142.798 34.9196 142.396 34.8325L140.908 34.52C140.071 34.3457 139.451 34.0522 139.05 33.6393C138.648 33.2226 138.45 32.6961 138.453 32.0597C138.45 31.5219 138.595 31.056 138.891 30.662C139.19 30.2643 139.605 29.9575 140.135 29.7416C140.669 29.5219 141.285 29.412 141.982 29.412C143.004 29.412 143.809 29.6298 144.396 30.0654C144.987 30.501 145.353 31.0901 145.493 31.8325ZM146.577 38.2529V29.5257H148.633V38.2529H146.577ZM147.611 28.287C147.285 28.287 147.005 28.1791 146.77 27.9632C146.535 27.7435 146.418 27.4802 146.418 27.1734C146.418 26.8628 146.535 26.5995 146.77 26.3836C147.005 26.1639 147.285 26.0541 147.611 26.0541C147.94 26.0541 148.221 26.1639 148.452 26.3836C148.686 26.5995 148.804 26.8628 148.804 27.1734C148.804 27.4802 148.686 27.7435 148.452 27.9632C148.221 28.1791 147.94 28.287 147.611 28.287ZM153.755 38.4234C152.903 38.4234 152.164 38.2359 151.539 37.8609C150.914 37.4859 150.43 36.9613 150.085 36.287C149.744 35.6128 149.573 34.8249 149.573 33.9234C149.573 33.0219 149.744 32.2321 150.085 31.5541C150.43 30.876 150.914 30.3495 151.539 29.9745C152.164 29.5995 152.903 29.412 153.755 29.412C154.608 29.412 155.346 29.5995 155.971 29.9745C156.596 30.3495 157.079 30.876 157.42 31.5541C157.765 32.2321 157.937 33.0219 157.937 33.9234C157.937 34.8249 157.765 35.6128 157.42 36.287C157.079 36.9613 156.596 37.4859 155.971 37.8609C155.346 38.2359 154.608 38.4234 153.755 38.4234ZM153.767 36.7757C154.229 36.7757 154.615 36.6488 154.926 36.395C155.236 36.1374 155.467 35.7927 155.619 35.3609C155.774 34.9291 155.852 34.448 155.852 33.9177C155.852 33.3836 155.774 32.9007 155.619 32.4688C155.467 32.0332 155.236 31.6866 154.926 31.4291C154.615 31.1715 154.229 31.0427 153.767 31.0427C153.293 31.0427 152.899 31.1715 152.585 31.4291C152.274 31.6866 152.041 32.0332 151.886 32.4688C151.734 32.9007 151.659 33.3836 151.659 33.9177C151.659 34.448 151.734 34.9291 151.886 35.3609C152.041 35.7927 152.274 36.1374 152.585 36.395C152.899 36.6488 153.293 36.7757 153.767 36.7757ZM160.94 33.1393V38.2529H158.883V29.5257H160.849V31.0086H160.951C161.152 30.52 161.472 30.1317 161.911 29.8438C162.354 29.556 162.902 29.412 163.553 29.412C164.156 29.412 164.68 29.5408 165.127 29.7984C165.578 30.056 165.926 30.4291 166.173 30.9177C166.423 31.4063 166.546 31.9991 166.542 32.6961V38.2529H164.485V33.0143C164.485 32.431 164.334 31.9745 164.031 31.645C163.731 31.3154 163.317 31.1507 162.786 31.1507C162.426 31.1507 162.106 31.2302 161.826 31.3893C161.55 31.5446 161.332 31.77 161.173 32.0654C161.017 32.3609 160.94 32.7188 160.94 33.1393ZM174.731 31.8325L172.856 32.037C172.803 31.8476 172.71 31.6696 172.577 31.5029C172.448 31.3363 172.274 31.2018 172.054 31.0995C171.835 30.9972 171.566 30.9461 171.248 30.9461C170.82 30.9461 170.46 31.0389 170.168 31.2245C169.88 31.4101 169.738 31.6507 169.742 31.9461C169.738 32.1999 169.831 32.4063 170.02 32.5654C170.214 32.7245 170.532 32.8552 170.975 32.9575L172.464 33.2757C173.289 33.4537 173.903 33.7359 174.304 34.1222C174.71 34.5086 174.914 35.0143 174.918 35.6393C174.914 36.1885 174.753 36.6734 174.435 37.0938C174.121 37.5105 173.683 37.8363 173.123 38.0711C172.562 38.306 171.918 38.4234 171.191 38.4234C170.123 38.4234 169.263 38.1999 168.611 37.7529C167.96 37.3022 167.572 36.6753 167.447 35.8722L169.452 35.6791C169.543 36.073 169.736 36.3704 170.032 36.5711C170.327 36.7719 170.712 36.8722 171.185 36.8722C171.674 36.8722 172.066 36.7719 172.361 36.5711C172.661 36.3704 172.81 36.1222 172.81 35.8268C172.81 35.5768 172.714 35.3704 172.52 35.2075C172.331 35.0446 172.036 34.9196 171.634 34.8325L170.145 34.52C169.308 34.3457 168.689 34.0522 168.287 33.6393C167.886 33.2226 167.687 32.6961 167.691 32.0597C167.687 31.5219 167.833 31.056 168.128 30.662C168.428 30.2643 168.842 29.9575 169.373 29.7416C169.907 29.5219 170.522 29.412 171.219 29.412C172.242 29.412 173.047 29.6298 173.634 30.0654C174.225 30.501 174.59 31.0901 174.731 31.8325Z" fill="#003688"/>
<path d="M230 31C229.448 31 229 31.4477 229 32C229 32.5523 229.448 33 230 33V31ZM366.707 32.7071C367.098 32.3166 367.098 31.6834 366.707 31.2929L360.343 24.9289C359.953 24.5384 359.319 24.5384 358.929 24.9289C358.538 25.3195 358.538 25.9526 358.929 26.3431L364.586 32L358.929 37.6569C358.538 38.0474 358.538 38.6805 358.929 39.0711C359.319 39.4616 359.953 39.4616 360.343 39.0711L366.707 32.7071ZM230 33H366V31H230V33Z" fill="#606060"/>
<path d="M248.095 26V14.3636H252.458C253.352 14.3636 254.102 14.5189 254.708 14.8295C255.318 15.1402 255.778 15.5758 256.089 16.1364C256.403 16.6932 256.561 17.3428 256.561 18.0852C256.561 18.8314 256.401 19.4792 256.083 20.0284C255.769 20.5739 255.305 20.9962 254.691 21.2955C254.078 21.5909 253.324 21.7386 252.43 21.7386H249.322V19.9886H252.146C252.668 19.9886 253.096 19.9167 253.43 19.7727C253.763 19.625 254.009 19.411 254.168 19.1307C254.331 18.8466 254.413 18.4981 254.413 18.0852C254.413 17.6723 254.331 17.3201 254.168 17.0284C254.006 16.733 253.757 16.5095 253.424 16.358C253.091 16.2027 252.661 16.125 252.134 16.125H250.203V26H248.095ZM254.106 20.7273L256.987 26H254.634L251.805 20.7273H254.106ZM261.349 26.1705C260.474 26.1705 259.718 25.9886 259.082 25.625C258.449 25.2576 257.962 24.7386 257.621 24.0682C257.28 23.3939 257.11 22.6004 257.11 21.6875C257.11 20.7898 257.28 20.0019 257.621 19.3239C257.966 18.642 258.447 18.1117 259.064 17.733C259.682 17.3504 260.407 17.1591 261.241 17.1591C261.779 17.1591 262.286 17.2462 262.763 17.4205C263.244 17.5909 263.669 17.8561 264.036 18.2159C264.407 18.5758 264.699 19.0341 264.911 19.5909C265.123 20.1439 265.229 20.803 265.229 21.5682V22.1989H258.076V20.8125H263.258C263.254 20.4186 263.169 20.0682 263.002 19.7614C262.835 19.4508 262.602 19.2064 262.303 19.0284C262.008 18.8504 261.663 18.7614 261.269 18.7614C260.849 18.7614 260.479 18.8636 260.161 19.0682C259.843 19.2689 259.595 19.5341 259.417 19.8636C259.243 20.1894 259.154 20.5473 259.15 20.9375V22.1477C259.15 22.6553 259.243 23.0909 259.428 23.4545C259.614 23.8144 259.873 24.0909 260.207 24.2841C260.54 24.4735 260.93 24.5682 261.377 24.5682C261.676 24.5682 261.947 24.5265 262.189 24.4432C262.432 24.3561 262.642 24.2292 262.82 24.0625C262.998 23.8958 263.133 23.6894 263.224 23.4432L265.144 23.6591C265.023 24.1667 264.792 24.6098 264.451 24.9886C264.114 25.3636 263.682 25.6553 263.155 25.8636C262.629 26.0682 262.027 26.1705 261.349 26.1705ZM271.993 29.2727V24.625H271.908C271.802 24.8371 271.648 25.0625 271.448 25.3011C271.247 25.536 270.982 25.7367 270.652 25.9034C270.323 26.0701 269.908 26.1534 269.408 26.1534C268.722 26.1534 268.109 25.9773 267.567 25.625C267.025 25.2727 266.597 24.7614 266.283 24.0909C265.969 23.4205 265.811 22.6061 265.811 21.6477C265.811 20.678 265.97 19.8598 266.289 19.1932C266.611 18.5227 267.044 18.017 267.59 17.6761C268.135 17.3314 268.743 17.1591 269.414 17.1591C269.925 17.1591 270.345 17.2462 270.675 17.4205C271.005 17.5909 271.266 17.7973 271.459 18.0398C271.652 18.2784 271.802 18.5038 271.908 18.7159H272.033V17.2727H274.056V29.2727H271.993ZM269.982 24.4659C270.417 24.4659 270.789 24.3485 271.095 24.1136C271.402 23.875 271.635 23.5436 271.794 23.1193C271.953 22.6951 272.033 22.2008 272.033 21.6364C272.033 21.072 271.953 20.5814 271.794 20.1648C271.639 19.7481 271.408 19.4242 271.101 19.1932C270.798 18.9621 270.425 18.8466 269.982 18.8466C269.523 18.8466 269.141 18.9659 268.834 19.2045C268.527 19.4432 268.296 19.7727 268.141 20.1932C267.986 20.6136 267.908 21.0947 267.908 21.6364C267.908 22.1818 267.986 22.6686 268.141 23.0966C268.3 23.5208 268.533 23.8561 268.84 24.1023C269.15 24.3447 269.531 24.4659 269.982 24.4659ZM280.932 22.3295V17.2727H282.989V26H280.994V24.4489H280.903C280.706 24.9375 280.383 25.3371 279.932 25.6477C279.485 25.9583 278.934 26.1136 278.278 26.1136C277.706 26.1136 277.201 25.9867 276.761 25.733C276.326 25.4754 275.985 25.1023 275.739 24.6136C275.492 24.1212 275.369 23.5265 275.369 22.8295V17.2727H277.426V22.5114C277.426 23.0644 277.578 23.5038 277.881 23.8295C278.184 24.1553 278.581 24.3182 279.074 24.3182C279.377 24.3182 279.67 24.2443 279.955 24.0966C280.239 23.9489 280.472 23.7292 280.653 23.4375C280.839 23.142 280.932 22.7727 280.932 22.3295ZM288.167 26.1705C287.292 26.1705 286.537 25.9886 285.9 25.625C285.268 25.2576 284.781 24.7386 284.44 24.0682C284.099 23.3939 283.929 22.6004 283.929 21.6875C283.929 20.7898 284.099 20.0019 284.44 19.3239C284.785 18.642 285.266 18.1117 285.883 17.733C286.501 17.3504 287.226 17.1591 288.059 17.1591C288.597 17.1591 289.105 17.2462 289.582 17.4205C290.063 17.5909 290.487 17.8561 290.855 18.2159C291.226 18.5758 291.518 19.0341 291.73 19.5909C291.942 20.1439 292.048 20.803 292.048 21.5682V22.1989H284.895V20.8125H290.076C290.073 20.4186 289.987 20.0682 289.821 19.7614C289.654 19.4508 289.421 19.2064 289.122 19.0284C288.826 18.8504 288.482 18.7614 288.088 18.7614C287.667 18.7614 287.298 18.8636 286.98 19.0682C286.662 19.2689 286.414 19.5341 286.236 19.8636C286.061 20.1894 285.972 20.5473 285.968 20.9375V22.1477C285.968 22.6553 286.061 23.0909 286.247 23.4545C286.432 23.8144 286.692 24.0909 287.025 24.2841C287.359 24.4735 287.749 24.5682 288.196 24.5682C288.495 24.5682 288.766 24.5265 289.008 24.4432C289.251 24.3561 289.461 24.2292 289.639 24.0625C289.817 23.8958 289.951 23.6894 290.042 23.4432L291.963 23.6591C291.842 24.1667 291.611 24.6098 291.27 24.9886C290.932 25.3636 290.501 25.6553 289.974 25.8636C289.448 26.0682 288.845 26.1705 288.167 26.1705ZM299.886 19.5795L298.011 19.7841C297.958 19.5947 297.865 19.4167 297.732 19.25C297.604 19.0833 297.429 18.9489 297.21 18.8466C296.99 18.7443 296.721 18.6932 296.403 18.6932C295.975 18.6932 295.615 18.786 295.323 18.9716C295.035 19.1572 294.893 19.3977 294.897 19.6932C294.893 19.947 294.986 20.1534 295.176 20.3125C295.369 20.4716 295.687 20.6023 296.13 20.7045L297.619 21.0227C298.445 21.2008 299.058 21.483 299.46 21.8693C299.865 22.2557 300.07 22.7614 300.073 23.3864C300.07 23.9356 299.909 24.4205 299.59 24.8409C299.276 25.2576 298.838 25.5833 298.278 25.8182C297.717 26.053 297.073 26.1705 296.346 26.1705C295.278 26.1705 294.418 25.947 293.766 25.5C293.115 25.0492 292.727 24.4223 292.602 23.6193L294.607 23.4261C294.698 23.8201 294.891 24.1174 295.187 24.3182C295.482 24.5189 295.867 24.6193 296.34 24.6193C296.829 24.6193 297.221 24.5189 297.516 24.3182C297.816 24.1174 297.965 23.8693 297.965 23.5739C297.965 23.3239 297.869 23.1174 297.676 22.9545C297.486 22.7917 297.191 22.6667 296.789 22.5795L295.301 22.267C294.463 22.0928 293.844 21.7992 293.443 21.3864C293.041 20.9697 292.842 20.4432 292.846 19.8068C292.842 19.2689 292.988 18.803 293.284 18.4091C293.583 18.0114 293.998 17.7045 294.528 17.4886C295.062 17.2689 295.677 17.1591 296.374 17.1591C297.397 17.1591 298.202 17.3769 298.789 17.8125C299.38 18.2481 299.746 18.8371 299.886 19.5795ZM305.327 17.2727V18.8636H300.31V17.2727H305.327ZM301.549 15.1818H303.606V23.375C303.606 23.6515 303.647 23.8636 303.731 24.0114C303.818 24.1553 303.931 24.2538 304.072 24.3068C304.212 24.3598 304.367 24.3864 304.538 24.3864C304.666 24.3864 304.784 24.3769 304.89 24.358C305 24.339 305.083 24.322 305.14 24.3068L305.486 25.9148C305.377 25.9527 305.219 25.9943 305.015 26.0398C304.814 26.0852 304.568 26.1117 304.276 26.1193C303.761 26.1345 303.297 26.0568 302.884 25.8864C302.471 25.7121 302.144 25.4432 301.901 25.0795C301.663 24.7159 301.545 24.2614 301.549 23.7159V15.1818ZM316.314 19.5795L314.439 19.7841C314.386 19.5947 314.293 19.4167 314.161 19.25C314.032 19.0833 313.857 18.9489 313.638 18.8466C313.418 18.7443 313.149 18.6932 312.831 18.6932C312.403 18.6932 312.043 18.786 311.751 18.9716C311.464 19.1572 311.321 19.3977 311.325 19.6932C311.321 19.947 311.414 20.1534 311.604 20.3125C311.797 20.4716 312.115 20.6023 312.558 20.7045L314.047 21.0227C314.873 21.2008 315.486 21.483 315.888 21.8693C316.293 22.2557 316.498 22.7614 316.501 23.3864C316.498 23.9356 316.337 24.4205 316.018 24.8409C315.704 25.2576 315.267 25.5833 314.706 25.8182C314.145 26.053 313.501 26.1705 312.774 26.1705C311.706 26.1705 310.846 25.947 310.195 25.5C309.543 25.0492 309.155 24.4223 309.03 23.6193L311.036 23.4261C311.126 23.8201 311.32 24.1174 311.615 24.3182C311.911 24.5189 312.295 24.6193 312.768 24.6193C313.257 24.6193 313.649 24.5189 313.945 24.3182C314.244 24.1174 314.393 23.8693 314.393 23.5739C314.393 23.3239 314.297 23.1174 314.104 22.9545C313.914 22.7917 313.619 22.6667 313.217 22.5795L311.729 22.267C310.892 22.0928 310.272 21.7992 309.871 21.3864C309.469 20.9697 309.27 20.4432 309.274 19.8068C309.27 19.2689 309.416 18.803 309.712 18.4091C310.011 18.0114 310.426 17.7045 310.956 17.4886C311.49 17.2689 312.106 17.1591 312.803 17.1591C313.825 17.1591 314.63 17.3769 315.217 17.8125C315.808 18.2481 316.174 18.8371 316.314 19.5795ZM321.261 26.1705C320.386 26.1705 319.63 25.9886 318.994 25.625C318.361 25.2576 317.875 24.7386 317.534 24.0682C317.193 23.3939 317.022 22.6004 317.022 21.6875C317.022 20.7898 317.193 20.0019 317.534 19.3239C317.879 18.642 318.36 18.1117 318.977 17.733C319.594 17.3504 320.32 17.1591 321.153 17.1591C321.691 17.1591 322.199 17.2462 322.676 17.4205C323.157 17.5909 323.581 17.8561 323.949 18.2159C324.32 18.5758 324.611 19.0341 324.824 19.5909C325.036 20.1439 325.142 20.803 325.142 21.5682V22.1989H317.988V20.8125H323.17C323.166 20.4186 323.081 20.0682 322.914 19.7614C322.748 19.4508 322.515 19.2064 322.216 19.0284C321.92 18.8504 321.575 18.7614 321.182 18.7614C320.761 18.7614 320.392 18.8636 320.074 19.0682C319.755 19.2689 319.507 19.5341 319.329 19.8636C319.155 20.1894 319.066 20.5473 319.062 20.9375V22.1477C319.062 22.6553 319.155 23.0909 319.341 23.4545C319.526 23.8144 319.786 24.0909 320.119 24.2841C320.452 24.4735 320.843 24.5682 321.289 24.5682C321.589 24.5682 321.86 24.5265 322.102 24.4432C322.344 24.3561 322.555 24.2292 322.733 24.0625C322.911 23.8958 323.045 23.6894 323.136 23.4432L325.057 23.6591C324.935 24.1667 324.704 24.6098 324.363 24.9886C324.026 25.3636 323.594 25.6553 323.068 25.8636C322.541 26.0682 321.939 26.1705 321.261 26.1705ZM328.139 20.8864V26H326.082V17.2727H328.048V18.7557H328.15C328.351 18.267 328.671 17.8788 329.11 17.5909C329.553 17.303 330.101 17.1591 330.752 17.1591C331.355 17.1591 331.879 17.2879 332.326 17.5455C332.777 17.803 333.125 18.1761 333.372 18.6648C333.622 19.1534 333.745 19.7462 333.741 20.4432V26H331.684V20.7614C331.684 20.178 331.533 19.7216 331.23 19.392C330.93 19.0625 330.516 18.8977 329.985 18.8977C329.625 18.8977 329.305 18.9773 329.025 19.1364C328.748 19.2917 328.531 19.517 328.372 19.8125C328.216 20.108 328.139 20.4659 328.139 20.8864ZM339.39 17.2727V18.8636H334.373V17.2727H339.39ZM335.611 15.1818H337.668V23.375C337.668 23.6515 337.71 23.8636 337.793 24.0114C337.88 24.1553 337.994 24.2538 338.134 24.3068C338.274 24.3598 338.43 24.3864 338.6 24.3864C338.729 24.3864 338.846 24.3769 338.952 24.358C339.062 24.339 339.145 24.322 339.202 24.3068L339.549 25.9148C339.439 25.9527 339.282 25.9943 339.077 26.0398C338.877 26.0852 338.63 26.1117 338.339 26.1193C337.823 26.1345 337.359 26.0568 336.947 25.8864C336.534 25.7121 336.206 25.4432 335.964 25.0795C335.725 24.7159 335.608 24.2614 335.611 23.7159V15.1818Z" fill="#606060"/>
<path d="M260.329 42.2727V43.8636H255.312V42.2727H260.329ZM256.55 40.1818H258.607V48.375C258.607 48.6515 258.649 48.8636 258.732 49.0114C258.819 49.1553 258.933 49.2538 259.073 49.3068C259.213 49.3598 259.369 49.3864 259.539 49.3864C259.668 49.3864 259.785 49.3769 259.891 49.358C260.001 49.339 260.085 49.322 260.141 49.3068L260.488 50.9148C260.378 50.9527 260.221 50.9943 260.016 51.0398C259.816 51.0852 259.569 51.1117 259.278 51.1193C258.763 51.1345 258.299 51.0568 257.886 50.8864C257.473 50.7121 257.145 50.4432 256.903 50.0795C256.664 49.7159 256.547 49.2614 256.55 48.7159V40.1818ZM264.962 51.1705C264.11 51.1705 263.371 50.983 262.746 50.608C262.121 50.233 261.636 49.7083 261.292 49.0341C260.951 48.3598 260.78 47.572 260.78 46.6705C260.78 45.7689 260.951 44.9792 261.292 44.3011C261.636 43.6231 262.121 43.0966 262.746 42.7216C263.371 42.3466 264.11 42.1591 264.962 42.1591C265.814 42.1591 266.553 42.3466 267.178 42.7216C267.803 43.0966 268.286 43.6231 268.627 44.3011C268.972 44.9792 269.144 45.7689 269.144 46.6705C269.144 47.572 268.972 48.3598 268.627 49.0341C268.286 49.7083 267.803 50.233 267.178 50.608C266.553 50.983 265.814 51.1705 264.962 51.1705ZM264.973 49.5227C265.436 49.5227 265.822 49.3958 266.133 49.142C266.443 48.8845 266.674 48.5398 266.826 48.108C266.981 47.6761 267.059 47.1951 267.059 46.6648C267.059 46.1307 266.981 45.6477 266.826 45.2159C266.674 44.7803 266.443 44.4337 266.133 44.1761C265.822 43.9186 265.436 43.7898 264.973 43.7898C264.5 43.7898 264.106 43.9186 263.792 44.1761C263.481 44.4337 263.248 44.7803 263.093 45.2159C262.941 45.6477 262.865 46.1307 262.865 46.6648C262.865 47.1951 262.941 47.6761 263.093 48.108C263.248 48.5398 263.481 48.8845 263.792 49.142C264.106 49.3958 264.5 49.5227 264.973 49.5227ZM277.065 51.1705C276.194 51.1705 275.446 50.9792 274.821 50.5966C274.2 50.214 273.721 49.6856 273.383 49.0114C273.05 48.3333 272.883 47.553 272.883 46.6705C272.883 45.7841 273.054 45.0019 273.395 44.3239C273.736 43.642 274.217 43.1117 274.838 42.733C275.463 42.3504 276.202 42.1591 277.054 42.1591C277.762 42.1591 278.389 42.2898 278.935 42.5511C279.484 42.8087 279.921 43.1742 280.247 43.6477C280.573 44.1174 280.758 44.6667 280.804 45.2955H278.838C278.758 44.875 278.569 44.5246 278.27 44.2443C277.974 43.9602 277.578 43.8182 277.082 43.8182C276.662 43.8182 276.292 43.9318 275.974 44.1591C275.656 44.3826 275.408 44.7045 275.23 45.125C275.056 45.5455 274.969 46.0492 274.969 46.6364C274.969 47.2311 275.056 47.7424 275.23 48.1705C275.404 48.5947 275.649 48.9223 275.963 49.1534C276.281 49.3807 276.654 49.4943 277.082 49.4943C277.385 49.4943 277.656 49.4375 277.895 49.3239C278.137 49.2064 278.34 49.0379 278.503 48.8182C278.666 48.5985 278.777 48.3314 278.838 48.017H280.804C280.755 48.6345 280.573 49.1818 280.258 49.6591C279.944 50.1326 279.516 50.5038 278.974 50.7727C278.433 51.0379 277.796 51.1705 277.065 51.1705ZM285.5 51.1705C284.647 51.1705 283.909 50.983 283.284 50.608C282.659 50.233 282.174 49.7083 281.829 49.0341C281.488 48.3598 281.318 47.572 281.318 46.6705C281.318 45.7689 281.488 44.9792 281.829 44.3011C282.174 43.6231 282.659 43.0966 283.284 42.7216C283.909 42.3466 284.647 42.1591 285.5 42.1591C286.352 42.1591 287.09 42.3466 287.715 42.7216C288.34 43.0966 288.823 43.6231 289.164 44.3011C289.509 44.9792 289.681 45.7689 289.681 46.6705C289.681 47.572 289.509 48.3598 289.164 49.0341C288.823 49.7083 288.34 50.233 287.715 50.608C287.09 50.983 286.352 51.1705 285.5 51.1705ZM285.511 49.5227C285.973 49.5227 286.359 49.3958 286.67 49.142C286.981 48.8845 287.212 48.5398 287.363 48.108C287.519 47.6761 287.596 47.1951 287.596 46.6648C287.596 46.1307 287.519 45.6477 287.363 45.2159C287.212 44.7803 286.981 44.4337 286.67 44.1761C286.359 43.9186 285.973 43.7898 285.511 43.7898C285.037 43.7898 284.644 43.9186 284.329 44.1761C284.019 44.4337 283.786 44.7803 283.63 45.2159C283.479 45.6477 283.403 46.1307 283.403 46.6648C283.403 47.1951 283.479 47.6761 283.63 48.108C283.786 48.5398 284.019 48.8845 284.329 49.142C284.644 49.3958 285.037 49.5227 285.511 49.5227ZM292.684 45.8864V51H290.627V42.2727H292.593V43.7557H292.695C292.896 43.267 293.216 42.8788 293.656 42.5909C294.099 42.303 294.646 42.1591 295.298 42.1591C295.9 42.1591 296.424 42.2879 296.871 42.5455C297.322 42.803 297.671 43.1761 297.917 43.6648C298.167 44.1534 298.29 44.7462 298.286 45.4432V51H296.229V45.7614C296.229 45.178 296.078 44.7216 295.775 44.392C295.476 44.0625 295.061 43.8977 294.531 43.8977C294.171 43.8977 293.851 43.9773 293.57 44.1364C293.294 44.2917 293.076 44.517 292.917 44.8125C292.762 45.108 292.684 45.4659 292.684 45.8864ZM303.935 42.2727V43.8636H298.918V42.2727H303.935ZM300.157 40.1818H302.213V48.375C302.213 48.6515 302.255 48.8636 302.338 49.0114C302.426 49.1553 302.539 49.2538 302.679 49.3068C302.82 49.3598 302.975 49.3864 303.145 49.3864C303.274 49.3864 303.392 49.3769 303.498 49.358C303.607 49.339 303.691 49.322 303.748 49.3068L304.094 50.9148C303.984 50.9527 303.827 50.9943 303.623 51.0398C303.422 51.0852 303.176 51.1117 302.884 51.1193C302.369 51.1345 301.905 51.0568 301.492 50.8864C301.079 50.7121 300.751 50.4432 300.509 50.0795C300.27 49.7159 300.153 49.2614 300.157 48.7159V40.1818ZM304.855 51V42.2727H306.85V43.7273H306.94C307.1 43.2235 307.372 42.8352 307.759 42.5625C308.149 42.286 308.594 42.1477 309.094 42.1477C309.208 42.1477 309.334 42.1534 309.475 42.1648C309.619 42.1723 309.738 42.1856 309.833 42.2045V44.0966C309.745 44.0663 309.607 44.0398 309.418 44.017C309.232 43.9905 309.052 43.9773 308.878 43.9773C308.503 43.9773 308.166 44.0587 307.867 44.2216C307.571 44.3807 307.338 44.6023 307.168 44.8864C306.997 45.1705 306.912 45.4981 306.912 45.8693V51H304.855ZM312.754 51.1761C312.201 51.1761 311.703 51.0777 311.26 50.8807C310.82 50.6799 310.472 50.3845 310.214 49.9943C309.961 49.6042 309.834 49.1231 309.834 48.5511C309.834 48.0587 309.925 47.6515 310.106 47.3295C310.288 47.0076 310.536 46.75 310.851 46.5568C311.165 46.3636 311.519 46.2178 311.913 46.1193C312.311 46.017 312.722 45.9432 313.146 45.8977C313.658 45.8447 314.072 45.7973 314.39 45.7557C314.709 45.7102 314.94 45.642 315.084 45.5511C315.231 45.4564 315.305 45.3106 315.305 45.1136V45.0795C315.305 44.6515 315.178 44.3201 314.925 44.0852C314.671 43.8504 314.305 43.733 313.828 43.733C313.324 43.733 312.925 43.8428 312.629 44.0625C312.337 44.2822 312.14 44.5417 312.038 44.8409L310.118 44.5682C310.269 44.0379 310.519 43.5947 310.868 43.2386C311.216 42.8788 311.642 42.6098 312.146 42.4318C312.65 42.25 313.207 42.1591 313.817 42.1591C314.237 42.1591 314.656 42.2083 315.072 42.3068C315.489 42.4053 315.87 42.5682 316.214 42.7955C316.559 43.0189 316.836 43.3239 317.044 43.7102C317.256 44.0966 317.362 44.5795 317.362 45.1591V51H315.385V49.8011H315.317C315.192 50.0436 315.015 50.2708 314.788 50.483C314.565 50.6913 314.283 50.8598 313.942 50.9886C313.604 51.1136 313.209 51.1761 312.754 51.1761ZM313.288 49.6648C313.701 49.6648 314.059 49.5833 314.362 49.4205C314.665 49.2538 314.898 49.0341 315.061 48.7614C315.228 48.4886 315.311 48.1913 315.311 47.8693V46.8409C315.247 46.8939 315.137 46.9432 314.981 46.9886C314.83 47.0341 314.659 47.0739 314.47 47.108C314.281 47.142 314.093 47.1723 313.908 47.1989C313.722 47.2254 313.561 47.2481 313.425 47.267C313.118 47.3087 312.843 47.3769 312.601 47.4716C312.358 47.5663 312.167 47.6989 312.027 47.8693C311.887 48.036 311.817 48.2519 311.817 48.517C311.817 48.8958 311.955 49.1818 312.231 49.375C312.508 49.5682 312.86 49.6648 313.288 49.6648ZM322.437 51.1705C321.566 51.1705 320.818 50.9792 320.193 50.5966C319.572 50.214 319.092 49.6856 318.755 49.0114C318.422 48.3333 318.255 47.553 318.255 46.6705C318.255 45.7841 318.426 45.0019 318.767 44.3239C319.108 43.642 319.589 43.1117 320.21 42.733C320.835 42.3504 321.573 42.1591 322.426 42.1591C323.134 42.1591 323.761 42.2898 324.306 42.5511C324.856 42.8087 325.293 43.1742 325.619 43.6477C325.945 44.1174 326.13 44.6667 326.176 45.2955H324.21C324.13 44.875 323.941 44.5246 323.642 44.2443C323.346 43.9602 322.95 43.8182 322.454 43.8182C322.034 43.8182 321.664 43.9318 321.346 44.1591C321.028 44.3826 320.78 44.7045 320.602 45.125C320.428 45.5455 320.34 46.0492 320.34 46.6364C320.34 47.2311 320.428 47.7424 320.602 48.1705C320.776 48.5947 321.02 48.9223 321.335 49.1534C321.653 49.3807 322.026 49.4943 322.454 49.4943C322.757 49.4943 323.028 49.4375 323.267 49.3239C323.509 49.2064 323.712 49.0379 323.875 48.8182C324.037 48.5985 324.149 48.3314 324.21 48.017H326.176C326.126 48.6345 325.945 49.1818 325.63 49.6591C325.316 50.1326 324.888 50.5038 324.346 50.7727C323.805 51.0379 323.168 51.1705 322.437 51.1705ZM331.423 42.2727V43.8636H326.406V42.2727H331.423ZM327.644 40.1818H329.701V48.375C329.701 48.6515 329.743 48.8636 329.826 49.0114C329.913 49.1553 330.027 49.2538 330.167 49.3068C330.307 49.3598 330.462 49.3864 330.633 49.3864C330.762 49.3864 330.879 49.3769 330.985 49.358C331.095 49.339 331.178 49.322 331.235 49.3068L331.582 50.9148C331.472 50.9527 331.315 50.9943 331.11 51.0398C330.909 51.0852 330.663 51.1117 330.371 51.1193C329.856 51.1345 329.392 51.0568 328.979 50.8864C328.567 50.7121 328.239 50.4432 327.996 50.0795C327.758 49.7159 327.64 49.2614 327.644 48.7159V40.1818Z" fill="#606060"/>
<rect x="396" y="2" width="113" height="61" rx="10" fill="#FF957D" fill-opacity="0.1"/>
<rect x="397" y="3" width="111" height="59" rx="9" stroke="#FF2E00" stroke-opacity="0.5" stroke-width="2"/>
<path d="M429.47 38H427.22L431.317 26.3636H433.919L438.021 38H435.771L432.663 28.75H432.572L429.47 38ZM429.544 33.4375H435.68V35.1307H429.544V33.4375ZM442.204 38.1705C441.333 38.1705 440.585 37.9792 439.96 37.5966C439.339 37.214 438.86 36.6856 438.522 36.0114C438.189 35.3333 438.022 34.553 438.022 33.6705C438.022 32.7841 438.193 32.0019 438.534 31.3239C438.875 30.642 439.356 30.1117 439.977 29.733C440.602 29.3504 441.341 29.1591 442.193 29.1591C442.901 29.1591 443.528 29.2898 444.074 29.5511C444.623 29.8087 445.06 30.1742 445.386 30.6477C445.712 31.1174 445.897 31.6667 445.943 32.2955H443.977C443.897 31.875 443.708 31.5246 443.409 31.2443C443.113 30.9602 442.718 30.8182 442.221 30.8182C441.801 30.8182 441.432 30.9318 441.113 31.1591C440.795 31.3826 440.547 31.7045 440.369 32.125C440.195 32.5455 440.108 33.0492 440.108 33.6364C440.108 34.2311 440.195 34.7424 440.369 35.1705C440.543 35.5947 440.788 35.9223 441.102 36.1534C441.42 36.3807 441.793 36.4943 442.221 36.4943C442.524 36.4943 442.795 36.4375 443.034 36.3239C443.276 36.2064 443.479 36.0379 443.642 35.8182C443.805 35.5985 443.916 35.3314 443.977 35.017H445.943C445.894 35.6345 445.712 36.1818 445.397 36.6591C445.083 37.1326 444.655 37.5038 444.113 37.7727C443.572 38.0379 442.935 38.1705 442.204 38.1705ZM450.639 38.1705C449.767 38.1705 449.019 37.9792 448.394 37.5966C447.773 37.214 447.294 36.6856 446.957 36.0114C446.623 35.3333 446.457 34.553 446.457 33.6705C446.457 32.7841 446.627 32.0019 446.968 31.3239C447.309 30.642 447.79 30.1117 448.411 29.733C449.036 29.3504 449.775 29.1591 450.627 29.1591C451.336 29.1591 451.962 29.2898 452.508 29.5511C453.057 29.8087 453.495 30.1742 453.82 30.6477C454.146 31.1174 454.332 31.6667 454.377 32.2955H452.411C452.332 31.875 452.142 31.5246 451.843 31.2443C451.548 30.9602 451.152 30.8182 450.656 30.8182C450.235 30.8182 449.866 30.9318 449.548 31.1591C449.23 31.3826 448.981 31.7045 448.803 32.125C448.629 32.5455 448.542 33.0492 448.542 33.6364C448.542 34.2311 448.629 34.7424 448.803 35.1705C448.978 35.5947 449.222 35.9223 449.536 36.1534C449.855 36.3807 450.228 36.4943 450.656 36.4943C450.959 36.4943 451.23 36.4375 451.468 36.3239C451.711 36.2064 451.913 36.0379 452.076 35.8182C452.239 35.5985 452.351 35.3314 452.411 35.017H454.377C454.328 35.6345 454.146 36.1818 453.832 36.6591C453.517 37.1326 453.089 37.5038 452.548 37.7727C452.006 38.0379 451.37 38.1705 450.639 38.1705ZM459.13 38.1705C458.255 38.1705 457.499 37.9886 456.863 37.625C456.23 37.2576 455.743 36.7386 455.403 36.0682C455.062 35.3939 454.891 34.6004 454.891 33.6875C454.891 32.7898 455.062 32.0019 455.403 31.3239C455.747 30.642 456.228 30.1117 456.846 29.733C457.463 29.3504 458.189 29.1591 459.022 29.1591C459.56 29.1591 460.067 29.2462 460.545 29.4205C461.026 29.5909 461.45 29.8561 461.817 30.2159C462.189 30.5758 462.48 31.0341 462.692 31.5909C462.904 32.1439 463.011 32.803 463.011 33.5682V34.1989H455.857V32.8125H461.039C461.035 32.4186 460.95 32.0682 460.783 31.7614C460.617 31.4508 460.384 31.2064 460.084 31.0284C459.789 30.8504 459.444 30.7614 459.05 30.7614C458.63 30.7614 458.261 30.8636 457.942 31.0682C457.624 31.2689 457.376 31.5341 457.198 31.8636C457.024 32.1894 456.935 32.5473 456.931 32.9375V34.1477C456.931 34.6553 457.024 35.0909 457.209 35.4545C457.395 35.8144 457.654 36.0909 457.988 36.2841C458.321 36.4735 458.711 36.5682 459.158 36.5682C459.457 36.5682 459.728 36.5265 459.971 36.4432C460.213 36.3561 460.423 36.2292 460.601 36.0625C460.779 35.8958 460.914 35.6894 461.005 35.4432L462.925 35.6591C462.804 36.1667 462.573 36.6098 462.232 36.9886C461.895 37.3636 461.463 37.6553 460.937 37.8636C460.41 38.0682 459.808 38.1705 459.13 38.1705ZM463.951 41.2727V29.2727H465.973V30.7159H466.093C466.199 30.5038 466.348 30.2784 466.541 30.0398C466.735 29.7973 466.996 29.5909 467.326 29.4205C467.655 29.2462 468.076 29.1591 468.587 29.1591C469.261 29.1591 469.869 29.3314 470.411 29.6761C470.956 30.017 471.388 30.5227 471.706 31.1932C472.028 31.8598 472.189 32.678 472.189 33.6477C472.189 34.6061 472.032 35.4205 471.718 36.0909C471.403 36.7614 470.975 37.2727 470.434 37.625C469.892 37.9773 469.278 38.1534 468.593 38.1534C468.093 38.1534 467.678 38.0701 467.348 37.9034C467.019 37.7367 466.754 37.536 466.553 37.3011C466.356 37.0625 466.202 36.8371 466.093 36.625H466.007V41.2727H463.951ZM465.968 33.6364C465.968 34.2008 466.047 34.6951 466.206 35.1193C466.369 35.5436 466.602 35.875 466.905 36.1136C467.212 36.3485 467.583 36.4659 468.019 36.4659C468.473 36.4659 468.854 36.3447 469.161 36.1023C469.468 35.8561 469.699 35.5208 469.854 35.0966C470.013 34.6686 470.093 34.1818 470.093 33.6364C470.093 33.0947 470.015 32.6136 469.86 32.1932C469.704 31.7727 469.473 31.4432 469.166 31.2045C468.86 30.9659 468.477 30.8466 468.019 30.8466C467.579 30.8466 467.206 30.9621 466.899 31.1932C466.593 31.4242 466.36 31.7481 466.201 32.1648C466.045 32.5814 465.968 33.072 465.968 33.6364ZM477.509 29.2727V30.8636H472.491V29.2727H477.509ZM473.73 27.1818H475.787V35.375C475.787 35.6515 475.829 35.8636 475.912 36.0114C475.999 36.1553 476.113 36.2538 476.253 36.3068C476.393 36.3598 476.548 36.3864 476.719 36.3864C476.848 36.3864 476.965 36.3769 477.071 36.358C477.181 36.339 477.264 36.322 477.321 36.3068L477.668 37.9148C477.558 37.9527 477.401 37.9943 477.196 38.0398C476.995 38.0852 476.749 38.1117 476.457 38.1193C475.942 38.1345 475.478 38.0568 475.065 37.8864C474.652 37.7121 474.325 37.4432 474.082 37.0795C473.844 36.7159 473.726 36.2614 473.73 35.7159V27.1818Z" fill="#821700"/>
<path d="M664 56.9V8.1C664 3.83 672.826 2 679.217 2C685.304 2 694.435 3.83 694.435 8.1V56.9C694.435 61.17 685.304 63 679.217 63C672.826 63 664 61.17 664 56.9Z" fill="white"/>
<path d="M664 8.1C664 12.98 664 52.63 664 56.9C664 61.17 672.826 63 679.217 63C685.304 63 694.435 61.17 694.435 56.9C694.435 52.63 694.435 8.1 694.435 8.1M664 8.1C664 3.83 672.826 2 679.217 2C685.304 2 694.435 3.83 694.435 8.1M664 8.1C664 12.37 672.826 14.2 679.217 14.2C685.304 14.2 694.435 12.37 694.435 8.1" stroke="#459B01" stroke-width="2"/>
<path d="M700.522 56.9V8.1C700.522 3.83 709.348 2 715.739 2C721.826 2 730.957 3.83 730.957 8.1V56.9C730.957 61.17 721.826 63 715.739 63C709.348 63 700.522 61.17 700.522 56.9Z" fill="white"/>
<path d="M700.522 8.1C700.522 12.98 700.522 52.63 700.522 56.9C700.522 61.17 709.348 63 715.739 63C721.826 63 730.957 61.17 730.957 56.9C730.957 52.63 730.957 8.1 730.957 8.1M700.522 8.1C700.522 3.83 709.348 2 715.739 2C721.826 2 730.957 3.83 730.957 8.1M700.522 8.1C700.522 12.37 709.348 14.2 715.739 14.2C721.826 14.2 730.957 12.37 730.957 8.1" stroke="#459B01" stroke-width="2"/>
<path d="M737.043 56.9V8.1C737.043 3.83 745.87 2 752.261 2C758.348 2 767.478 3.83 767.478 8.1V56.9C767.478 61.17 758.348 63 752.261 63C745.87 63 737.043 61.17 737.043 56.9Z" fill="white"/>
<path d="M737.043 8.1C737.043 12.98 737.043 52.63 737.043 56.9C737.043 61.17 745.87 63 752.261 63C758.348 63 767.478 61.17 767.478 56.9C767.478 52.63 767.478 8.1 767.478 8.1M737.043 8.1C737.043 3.83 745.87 2 752.261 2C758.348 2 767.478 3.83 767.478 8.1M737.043 8.1C737.043 12.37 745.87 14.2 752.261 14.2C758.348 14.2 767.478 12.37 767.478 8.1" stroke="#459B01" stroke-width="2"/>
<path d="M773.565 56.9V8.1C773.565 3.83 782.391 2 788.783 2C794.87 2 804 3.83 804 8.1V56.9C804 61.17 794.87 63 788.783 63C782.391 63 773.565 61.17 773.565 56.9Z" fill="white"/>
<path d="M773.565 8.1C773.565 12.98 773.565 52.63 773.565 56.9C773.565 61.17 782.391 63 788.783 63C794.87 63 804 61.17 804 56.9C804 52.63 804 8.1 804 8.1M773.565 8.1C773.565 3.83 782.391 2 788.783 2C794.87 2 804 3.83 804 8.1M773.565 8.1C773.565 12.37 782.391 14.2 788.783 14.2C794.87 14.2 804 12.37 804 8.1" stroke="#459B01" stroke-width="2"/>
<rect x="692" y="21" width="90.7681" height="30" rx="9" fill="white" stroke="#459B01" stroke-width="2"/>
<path d="M709.834 41.0229V29.3866H714.288C715.129 29.3866 715.828 29.5192 716.385 29.7843C716.945 30.0457 717.364 30.4036 717.641 30.8582C717.921 31.3127 718.061 31.8279 718.061 32.4036C718.061 32.8771 717.97 33.2824 717.788 33.6195C717.606 33.9529 717.362 34.2237 717.055 34.432C716.748 34.6404 716.406 34.79 716.027 34.8809V34.9945C716.44 35.0173 716.836 35.1442 717.214 35.3752C717.597 35.6025 717.909 35.9245 718.152 36.3411C718.394 36.7578 718.516 37.2616 718.516 37.8525C718.516 38.4548 718.37 38.9964 718.078 39.4775C717.786 39.9548 717.347 40.3317 716.76 40.6082C716.173 40.8847 715.434 41.0229 714.544 41.0229H709.834ZM711.942 39.2616H714.209C714.974 39.2616 715.525 39.1158 715.862 38.8241C716.203 38.5286 716.373 38.1498 716.373 37.6877C716.373 37.343 716.288 37.0324 716.118 36.7559C715.947 36.4756 715.705 36.2559 715.391 36.0968C715.076 35.9339 714.701 35.8525 714.266 35.8525H711.942V39.2616ZM711.942 34.3354H714.027C714.391 34.3354 714.718 34.2692 715.01 34.1366C715.301 34.0002 715.531 33.8089 715.697 33.5627C715.868 33.3127 715.953 33.0173 715.953 32.6764C715.953 32.2256 715.794 31.8544 715.476 31.5627C715.161 31.2711 714.694 31.1252 714.072 31.1252H711.942V34.3354ZM725.021 37.3525V32.2957H727.078V41.0229H725.083V39.4718H724.992C724.796 39.9604 724.472 40.3601 724.021 40.6707C723.574 40.9813 723.023 41.1366 722.367 41.1366C721.796 41.1366 721.29 41.0097 720.85 40.7559C720.415 40.4983 720.074 40.1252 719.828 39.6366C719.582 39.1442 719.458 38.5495 719.458 37.8525V32.2957H721.515V37.5343C721.515 38.0873 721.667 38.5267 721.97 38.8525C722.273 39.1783 722.671 39.3411 723.163 39.3411C723.466 39.3411 723.76 39.2673 724.044 39.1195C724.328 38.9718 724.561 38.7521 724.742 38.4604C724.928 38.165 725.021 37.7957 725.021 37.3525ZM732.2 41.1934C731.328 41.1934 730.58 41.0021 729.955 40.6195C729.334 40.237 728.855 39.7086 728.518 39.0343C728.184 38.3563 728.018 37.576 728.018 36.6934C728.018 35.807 728.188 35.0248 728.529 34.3468C728.87 33.665 729.351 33.1347 729.972 32.7559C730.597 32.3733 731.336 32.182 732.188 32.182C732.897 32.182 733.523 32.3127 734.069 32.5741C734.618 32.8317 735.056 33.1972 735.381 33.6707C735.707 34.1404 735.893 34.6896 735.938 35.3184H733.972C733.893 34.8979 733.703 34.5476 733.404 34.2673C733.109 33.9832 732.713 33.8411 732.217 33.8411C731.796 33.8411 731.427 33.9548 731.109 34.182C730.791 34.4055 730.542 34.7275 730.364 35.1479C730.19 35.5684 730.103 36.0722 730.103 36.6593C730.103 37.254 730.19 37.7654 730.364 38.1934C730.539 38.6176 730.783 38.9453 731.097 39.1764C731.416 39.4036 731.789 39.5173 732.217 39.5173C732.52 39.5173 732.791 39.4604 733.029 39.3468C733.272 39.2294 733.474 39.0608 733.637 38.8411C733.8 38.6214 733.912 38.3544 733.972 38.04H735.938C735.889 38.6574 735.707 39.2048 735.393 39.682C735.078 40.1555 734.65 40.5267 734.109 40.7957C733.567 41.0608 732.931 41.1934 732.2 41.1934ZM738.702 38.2843L738.696 35.8014H739.026L742.162 32.2957H744.566L740.708 36.5911H740.282L738.702 38.2843ZM736.827 41.0229V29.3866H738.884V41.0229H736.827ZM742.304 41.0229L739.464 37.0514L740.85 35.6025L744.765 41.0229H742.304ZM748.641 41.1934C747.766 41.1934 747.01 41.0116 746.374 40.6479C745.741 40.2805 745.254 39.7616 744.914 39.0911C744.573 38.4169 744.402 37.6233 744.402 36.7104C744.402 35.8127 744.573 35.0248 744.914 34.3468C745.258 33.665 745.739 33.1347 746.357 32.7559C746.974 32.3733 747.7 32.182 748.533 32.182C749.071 32.182 749.578 32.2692 750.056 32.4434C750.537 32.6139 750.961 32.879 751.328 33.2389C751.7 33.5987 751.991 34.057 752.203 34.6139C752.415 35.1669 752.521 35.826 752.521 36.5911V37.2218H745.368V35.8354H750.55C750.546 35.4415 750.461 35.0911 750.294 34.7843C750.128 34.4737 749.895 34.2294 749.595 34.0514C749.3 33.8733 748.955 33.7843 748.561 33.7843C748.141 33.7843 747.771 33.8866 747.453 34.0911C747.135 34.2919 746.887 34.557 746.709 34.8866C746.535 35.2123 746.446 35.5703 746.442 35.9604V37.1707C746.442 37.6783 746.535 38.1139 746.72 38.4775C746.906 38.8373 747.165 39.1139 747.499 39.307C747.832 39.4964 748.222 39.5911 748.669 39.5911C748.968 39.5911 749.239 39.5495 749.482 39.4661C749.724 39.379 749.934 39.2521 750.112 39.0854C750.29 38.9188 750.425 38.7123 750.516 38.4661L752.436 38.682C752.315 39.1896 752.084 39.6328 751.743 40.0116C751.406 40.3866 750.974 40.6783 750.448 40.8866C749.921 41.0911 749.319 41.1934 748.641 41.1934ZM757.819 32.2957V33.8866H752.802V32.2957H757.819ZM754.041 30.2048H756.098V38.3979C756.098 38.6745 756.14 38.8866 756.223 39.0343C756.31 39.1783 756.424 39.2767 756.564 39.3298C756.704 39.3828 756.859 39.4093 757.03 39.4093C757.158 39.4093 757.276 39.3998 757.382 39.3809C757.492 39.362 757.575 39.3449 757.632 39.3298L757.979 40.9377C757.869 40.9756 757.712 41.0173 757.507 41.0627C757.306 41.1082 757.06 41.1347 756.768 41.1423C756.253 41.1574 755.789 41.0798 755.376 40.9093C754.963 40.7351 754.636 40.4661 754.393 40.1025C754.155 39.7389 754.037 39.2843 754.041 38.7389V30.2048ZM765.512 34.6025L763.637 34.807C763.584 34.6176 763.492 34.4396 763.359 34.2729C763.23 34.1063 763.056 33.9718 762.836 33.8695C762.617 33.7673 762.348 33.7161 762.029 33.7161C761.601 33.7161 761.242 33.8089 760.95 33.9945C760.662 34.1801 760.52 34.4207 760.524 34.7161C760.52 34.9699 760.613 35.1764 760.802 35.3354C760.995 35.4945 761.314 35.6252 761.757 35.7275L763.245 36.0457C764.071 36.2237 764.685 36.5059 765.086 36.8923C765.492 37.2786 765.696 37.7843 765.7 38.4093C765.696 38.9586 765.535 39.4434 765.217 39.8639C764.903 40.2805 764.465 40.6063 763.904 40.8411C763.344 41.076 762.7 41.1934 761.973 41.1934C760.904 41.1934 760.045 40.9699 759.393 40.5229C758.742 40.0722 758.353 39.4453 758.228 38.6423L760.234 38.4491C760.325 38.843 760.518 39.1404 760.814 39.3411C761.109 39.5419 761.493 39.6423 761.967 39.6423C762.456 39.6423 762.848 39.5419 763.143 39.3411C763.442 39.1404 763.592 38.8923 763.592 38.5968C763.592 38.3468 763.495 38.1404 763.302 37.9775C763.113 37.8146 762.817 37.6896 762.416 37.6025L760.927 37.29C760.09 37.1158 759.471 36.8222 759.069 36.4093C758.668 35.9926 758.469 35.4661 758.473 34.8298C758.469 34.2919 758.615 33.826 758.91 33.432C759.209 33.0343 759.624 32.7275 760.154 32.5116C760.689 32.2919 761.304 32.182 762.001 32.182C763.024 32.182 763.829 32.3998 764.416 32.8354C765.007 33.2711 765.372 33.8601 765.512 34.6025Z" fill="#3B8501"/>
<rect x="396" y="177" width="113" height="61" rx="10" fill="#FF957D" fill-opacity="0.1"/>
<rect x="397" y="178" width="111" height="59" rx="9" stroke="#FF2E00" stroke-opacity="0.5" stroke-width="2"/>
<path d="M428.882 214H424.938V202.364H428.961C430.116 202.364 431.109 202.597 431.938 203.062C432.772 203.525 433.412 204.189 433.859 205.057C434.306 205.924 434.529 206.962 434.529 208.17C434.529 209.383 434.304 210.424 433.853 211.295C433.406 212.167 432.76 212.835 431.916 213.301C431.075 213.767 430.063 214 428.882 214ZM427.046 212.176H428.779C429.59 212.176 430.266 212.028 430.808 211.733C431.349 211.434 431.757 210.989 432.029 210.398C432.302 209.803 432.438 209.061 432.438 208.17C432.438 207.28 432.302 206.542 432.029 205.955C431.757 205.364 431.353 204.922 430.819 204.631C430.289 204.335 429.63 204.188 428.842 204.188H427.046V212.176ZM439.505 214.17C438.63 214.17 437.874 213.989 437.238 213.625C436.605 213.258 436.118 212.739 435.778 212.068C435.437 211.394 435.266 210.6 435.266 209.688C435.266 208.79 435.437 208.002 435.778 207.324C436.122 206.642 436.603 206.112 437.221 205.733C437.838 205.35 438.564 205.159 439.397 205.159C439.935 205.159 440.442 205.246 440.92 205.42C441.401 205.591 441.825 205.856 442.192 206.216C442.564 206.576 442.855 207.034 443.067 207.591C443.279 208.144 443.386 208.803 443.386 209.568V210.199H436.232V208.812H441.414C441.41 208.419 441.325 208.068 441.158 207.761C440.992 207.451 440.759 207.206 440.459 207.028C440.164 206.85 439.819 206.761 439.425 206.761C439.005 206.761 438.636 206.864 438.317 207.068C437.999 207.269 437.751 207.534 437.573 207.864C437.399 208.189 437.31 208.547 437.306 208.938V210.148C437.306 210.655 437.399 211.091 437.584 211.455C437.77 211.814 438.029 212.091 438.363 212.284C438.696 212.473 439.086 212.568 439.533 212.568C439.832 212.568 440.103 212.527 440.346 212.443C440.588 212.356 440.798 212.229 440.976 212.062C441.154 211.896 441.289 211.689 441.38 211.443L443.3 211.659C443.179 212.167 442.948 212.61 442.607 212.989C442.27 213.364 441.838 213.655 441.312 213.864C440.785 214.068 440.183 214.17 439.505 214.17ZM448.132 214.17C447.261 214.17 446.513 213.979 445.888 213.597C445.267 213.214 444.788 212.686 444.451 212.011C444.117 211.333 443.951 210.553 443.951 209.67C443.951 208.784 444.121 208.002 444.462 207.324C444.803 206.642 445.284 206.112 445.905 205.733C446.53 205.35 447.269 205.159 448.121 205.159C448.829 205.159 449.456 205.29 450.002 205.551C450.551 205.809 450.988 206.174 451.314 206.648C451.64 207.117 451.826 207.667 451.871 208.295H449.905C449.826 207.875 449.636 207.525 449.337 207.244C449.041 206.96 448.646 206.818 448.149 206.818C447.729 206.818 447.36 206.932 447.041 207.159C446.723 207.383 446.475 207.705 446.297 208.125C446.123 208.545 446.036 209.049 446.036 209.636C446.036 210.231 446.123 210.742 446.297 211.17C446.471 211.595 446.716 211.922 447.03 212.153C447.348 212.381 447.721 212.494 448.149 212.494C448.452 212.494 448.723 212.437 448.962 212.324C449.204 212.206 449.407 212.038 449.57 211.818C449.733 211.598 449.845 211.331 449.905 211.017H451.871C451.822 211.634 451.64 212.182 451.326 212.659C451.011 213.133 450.583 213.504 450.041 213.773C449.5 214.038 448.863 214.17 448.132 214.17ZM452.76 214V205.273H454.754V206.727H454.845C455.004 206.223 455.277 205.835 455.663 205.562C456.054 205.286 456.499 205.148 456.999 205.148C457.112 205.148 457.239 205.153 457.379 205.165C457.523 205.172 457.643 205.186 457.737 205.205V207.097C457.65 207.066 457.512 207.04 457.322 207.017C457.137 206.991 456.957 206.977 456.783 206.977C456.408 206.977 456.071 207.059 455.771 207.222C455.476 207.381 455.243 207.602 455.072 207.886C454.902 208.17 454.817 208.498 454.817 208.869V214H452.76ZM459.848 217.273C459.567 217.273 459.308 217.25 459.069 217.205C458.834 217.163 458.647 217.114 458.507 217.057L458.984 215.455C459.283 215.542 459.55 215.583 459.785 215.58C460.02 215.576 460.227 215.502 460.405 215.358C460.586 215.218 460.74 214.983 460.865 214.653L461.041 214.182L457.876 205.273H460.058L462.069 211.864H462.16L464.177 205.273H466.365L462.87 215.057C462.708 215.519 462.492 215.915 462.223 216.244C461.954 216.578 461.624 216.831 461.234 217.006C460.848 217.184 460.386 217.273 459.848 217.273ZM466.988 217.273V205.273H469.011V206.716H469.13C469.236 206.504 469.386 206.278 469.579 206.04C469.772 205.797 470.034 205.591 470.363 205.42C470.693 205.246 471.113 205.159 471.624 205.159C472.299 205.159 472.907 205.331 473.448 205.676C473.994 206.017 474.426 206.523 474.744 207.193C475.066 207.86 475.227 208.678 475.227 209.648C475.227 210.606 475.07 211.42 474.755 212.091C474.441 212.761 474.013 213.273 473.471 213.625C472.929 213.977 472.316 214.153 471.63 214.153C471.13 214.153 470.715 214.07 470.386 213.903C470.056 213.737 469.791 213.536 469.59 213.301C469.393 213.062 469.24 212.837 469.13 212.625H469.045V217.273H466.988ZM469.005 209.636C469.005 210.201 469.085 210.695 469.244 211.119C469.407 211.544 469.64 211.875 469.943 212.114C470.249 212.348 470.621 212.466 471.056 212.466C471.511 212.466 471.891 212.345 472.198 212.102C472.505 211.856 472.736 211.521 472.891 211.097C473.051 210.669 473.13 210.182 473.13 209.636C473.13 209.095 473.052 208.614 472.897 208.193C472.742 207.773 472.511 207.443 472.204 207.205C471.897 206.966 471.515 206.847 471.056 206.847C470.617 206.847 470.244 206.962 469.937 207.193C469.63 207.424 469.397 207.748 469.238 208.165C469.083 208.581 469.005 209.072 469.005 209.636ZM480.546 205.273V206.864H475.529V205.273H480.546ZM476.768 203.182H478.824V211.375C478.824 211.652 478.866 211.864 478.949 212.011C479.037 212.155 479.15 212.254 479.29 212.307C479.43 212.36 479.586 212.386 479.756 212.386C479.885 212.386 480.002 212.377 480.109 212.358C480.218 212.339 480.302 212.322 480.359 212.307L480.705 213.915C480.595 213.953 480.438 213.994 480.234 214.04C480.033 214.085 479.787 214.112 479.495 214.119C478.98 214.134 478.516 214.057 478.103 213.886C477.69 213.712 477.362 213.443 477.12 213.08C476.881 212.716 476.764 212.261 476.768 211.716V203.182Z" fill="#821700"/>
<path d="M357.008 208.221C357.56 208.217 358.004 207.766 358 207.213C357.996 206.661 357.544 206.217 356.992 206.221L357.008 208.221ZM229.287 207.52C228.9 207.913 228.905 208.546 229.298 208.934L235.712 215.247C236.106 215.635 236.739 215.63 237.127 215.236C237.514 214.843 237.509 214.21 237.115 213.822L231.414 208.21L237.026 202.509C237.414 202.115 237.409 201.482 237.015 201.095C236.622 200.707 235.988 200.712 235.601 201.106L229.287 207.52ZM356.992 206.221L229.992 207.221L230.008 209.221L357.008 208.221L356.992 206.221Z" fill="#606060"/>
<rect x="217" y="111" width="84" height="43" rx="9" fill="white" stroke="#606060" stroke-width="2"/>
<path d="M241.504 139V127.364H243.612V132.29H249.004V127.364H251.118V139H249.004V134.057H243.612V139H241.504ZM255.031 139.176C254.478 139.176 253.98 139.078 253.536 138.881C253.097 138.68 252.748 138.384 252.491 137.994C252.237 137.604 252.11 137.123 252.11 136.551C252.11 136.059 252.201 135.652 252.383 135.33C252.565 135.008 252.813 134.75 253.127 134.557C253.442 134.364 253.796 134.218 254.19 134.119C254.588 134.017 254.998 133.943 255.423 133.898C255.934 133.845 256.349 133.797 256.667 133.756C256.985 133.71 257.216 133.642 257.36 133.551C257.508 133.456 257.582 133.311 257.582 133.114V133.08C257.582 132.652 257.455 132.32 257.201 132.085C256.947 131.85 256.582 131.733 256.105 131.733C255.601 131.733 255.201 131.843 254.906 132.062C254.614 132.282 254.417 132.542 254.315 132.841L252.394 132.568C252.546 132.038 252.796 131.595 253.144 131.239C253.493 130.879 253.919 130.61 254.423 130.432C254.927 130.25 255.483 130.159 256.093 130.159C256.514 130.159 256.932 130.208 257.349 130.307C257.766 130.405 258.146 130.568 258.491 130.795C258.836 131.019 259.112 131.324 259.32 131.71C259.533 132.097 259.639 132.58 259.639 133.159V139H257.661V137.801H257.593C257.468 138.044 257.292 138.271 257.065 138.483C256.841 138.691 256.559 138.86 256.218 138.989C255.881 139.114 255.485 139.176 255.031 139.176ZM255.565 137.665C255.978 137.665 256.336 137.583 256.639 137.42C256.942 137.254 257.175 137.034 257.338 136.761C257.504 136.489 257.588 136.191 257.588 135.869V134.841C257.523 134.894 257.413 134.943 257.258 134.989C257.106 135.034 256.936 135.074 256.747 135.108C256.557 135.142 256.37 135.172 256.184 135.199C255.998 135.225 255.838 135.248 255.701 135.267C255.394 135.309 255.12 135.377 254.877 135.472C254.635 135.566 254.444 135.699 254.303 135.869C254.163 136.036 254.093 136.252 254.093 136.517C254.093 136.896 254.231 137.182 254.508 137.375C254.784 137.568 255.137 137.665 255.565 137.665ZM267.805 132.58L265.93 132.784C265.877 132.595 265.784 132.417 265.651 132.25C265.522 132.083 265.348 131.949 265.128 131.847C264.909 131.744 264.64 131.693 264.322 131.693C263.894 131.693 263.534 131.786 263.242 131.972C262.954 132.157 262.812 132.398 262.816 132.693C262.812 132.947 262.905 133.153 263.094 133.312C263.288 133.472 263.606 133.602 264.049 133.705L265.538 134.023C266.363 134.201 266.977 134.483 267.378 134.869C267.784 135.256 267.988 135.761 267.992 136.386C267.988 136.936 267.827 137.42 267.509 137.841C267.195 138.258 266.757 138.583 266.197 138.818C265.636 139.053 264.992 139.17 264.265 139.17C263.197 139.17 262.337 138.947 261.685 138.5C261.034 138.049 260.645 137.422 260.52 136.619L262.526 136.426C262.617 136.82 262.81 137.117 263.106 137.318C263.401 137.519 263.786 137.619 264.259 137.619C264.748 137.619 265.14 137.519 265.435 137.318C265.734 137.117 265.884 136.869 265.884 136.574C265.884 136.324 265.788 136.117 265.594 135.955C265.405 135.792 265.109 135.667 264.708 135.58L263.219 135.267C262.382 135.093 261.763 134.799 261.361 134.386C260.96 133.97 260.761 133.443 260.765 132.807C260.761 132.269 260.907 131.803 261.202 131.409C261.502 131.011 261.916 130.705 262.447 130.489C262.981 130.269 263.596 130.159 264.293 130.159C265.316 130.159 266.121 130.377 266.708 130.812C267.299 131.248 267.664 131.837 267.805 132.58ZM270.945 133.886V139H268.888V127.364H270.899V131.756H271.002C271.206 131.263 271.523 130.875 271.951 130.591C272.382 130.303 272.932 130.159 273.598 130.159C274.204 130.159 274.733 130.286 275.184 130.54C275.634 130.794 275.983 131.165 276.229 131.653C276.479 132.142 276.604 132.739 276.604 133.443V139H274.547V133.761C274.547 133.174 274.396 132.718 274.093 132.392C273.793 132.062 273.373 131.898 272.831 131.898C272.468 131.898 272.142 131.977 271.854 132.136C271.57 132.292 271.346 132.517 271.184 132.812C271.024 133.108 270.945 133.466 270.945 133.886Z" fill="#606060"/>
<path d="M738 79C738 78.4477 737.552 78 737 78C736.448 78 736 78.4477 736 79H738ZM736.293 155.707C736.683 156.098 737.317 156.098 737.707 155.707L744.071 149.343C744.462 148.953 744.462 148.319 744.071 147.929C743.681 147.538 743.047 147.538 742.657 147.929L737 153.586L731.343 147.929C730.953 147.538 730.319 147.538 729.929 147.929C729.538 148.319 729.538 148.953 729.929 149.343L736.293 155.707ZM736 79V155H738V79H736Z" fill="#606060"/>
<path d="M97 155C97 155.552 97.4477 156 98 156C98.5523 156 99 155.552 99 155H97ZM98.7071 78.2929C98.3166 77.9024 97.6834 77.9024 97.2929 78.2929L90.9289 84.6569C90.5384 85.0474 90.5384 85.6805 90.9289 86.0711C91.3195 86.4616 91.9526 86.4616 92.3431 86.0711L98 80.4142L103.657 86.0711C104.047 86.4616 104.681 86.4616 105.071 86.0711C105.462 85.6805 105.462 85.0474 105.071 84.6569L98.7071 78.2929ZM99 155V79H97V155H99Z" fill="#606060"/>
<path d="M201 176.292L217.773 157.754" stroke="#606060" stroke-width="2" stroke-linecap="round"/>
<path d="M198 173.538L214.773 155" stroke="#606060" stroke-width="2" stroke-linecap="round"/>
</svg>
